G04 EAGLE Gerber RS-274X export*
G75*
%MOMM*%
%FSLAX34Y34*%
%LPD*%
%INTop Copper*%
%IPPOS*%
%AMOC8*
5,1,8,0,0,1.08239X$1,22.5*%
G01*
%ADD10C,2.540000*%
%ADD11P,1.649562X8X292.500000*%
%ADD12C,2.247900*%
%ADD13C,1.100000*%
%ADD14C,1.008000*%
%ADD15C,0.858000*%
%ADD16C,0.200000*%
%ADD17C,0.756400*%
%ADD18C,0.406400*%
%ADD19C,0.152400*%


D10*
X1932100Y894400D03*
X1995600Y919800D03*
X1945200Y909000D03*
X1995200Y914000D03*
X217600Y894400D03*
X281100Y919800D03*
X230700Y909000D03*
X280700Y914000D03*
X408100Y894400D03*
X471600Y919800D03*
X421200Y909000D03*
X471200Y914000D03*
X598600Y894400D03*
X662100Y919800D03*
X611700Y909000D03*
X661700Y914000D03*
X789100Y894400D03*
X852600Y919800D03*
X802200Y909000D03*
X852200Y914000D03*
X979600Y894400D03*
X1043100Y919800D03*
X992700Y909000D03*
X1042700Y914000D03*
X1170100Y894400D03*
X1233600Y919800D03*
X1183200Y909000D03*
X1233200Y914000D03*
X1360600Y894400D03*
X1424100Y919800D03*
X1373700Y909000D03*
X1423700Y914000D03*
X1551100Y894400D03*
X1614600Y919800D03*
X1564200Y909000D03*
X1614200Y914000D03*
X1741600Y894400D03*
X1805100Y919800D03*
X1754700Y909000D03*
X1804700Y914000D03*
X360500Y513400D03*
X424000Y538800D03*
X373600Y528000D03*
X423600Y533000D03*
X527200Y132400D03*
X590700Y157800D03*
X540300Y147000D03*
X590300Y152000D03*
X1955900Y132400D03*
X2019400Y157800D03*
X1969000Y147000D03*
X2019000Y152000D03*
X1217700Y322900D03*
X1281200Y348300D03*
X1230800Y337500D03*
X1280800Y342500D03*
X2646500Y703900D03*
X2710000Y729300D03*
X2659600Y718500D03*
X2709600Y723500D03*
X3551400Y1084900D03*
X3614900Y1110300D03*
X3564500Y1099500D03*
X3614500Y1104500D03*
X2598900Y894400D03*
X2662400Y919800D03*
X2612000Y909000D03*
X2662000Y914000D03*
X4313400Y132400D03*
X4376900Y157800D03*
X4326500Y147000D03*
X4376500Y152000D03*
X836700Y322900D03*
X900200Y348300D03*
X849800Y337500D03*
X899800Y342500D03*
X98500Y513400D03*
X162000Y538800D03*
X111600Y528000D03*
X161600Y533000D03*
X1789200Y322900D03*
X1852700Y348300D03*
X1802300Y337500D03*
X1852300Y342500D03*
X50900Y132400D03*
X114400Y157800D03*
X64000Y147000D03*
X114000Y152000D03*
X2670300Y132400D03*
X2733800Y157800D03*
X2683400Y147000D03*
X2733400Y152000D03*
X732267Y513398D03*
X795767Y538798D03*
X745367Y527998D03*
X795367Y532998D03*
X2122600Y900400D03*
X2186100Y925800D03*
X2135700Y915000D03*
X2185700Y920000D03*
X2932200Y703900D03*
X2995700Y729300D03*
X2945300Y718500D03*
X2995300Y723500D03*
X4313400Y322900D03*
X4376900Y348300D03*
X4326500Y337500D03*
X4376500Y342500D03*
X3122700Y132400D03*
X3186200Y157800D03*
X3135800Y147000D03*
X3185800Y152000D03*
X693900Y703900D03*
X757400Y729300D03*
X707000Y718500D03*
X757000Y723500D03*
X3122700Y703900D03*
X3186200Y729300D03*
X3135800Y718500D03*
X3185800Y723500D03*
X2313100Y894400D03*
X2376600Y919800D03*
X2326200Y909000D03*
X2376200Y914000D03*
X27100Y1084900D03*
X90600Y1110300D03*
X40200Y1099500D03*
X90200Y1104500D03*
X932000Y513400D03*
X995500Y538800D03*
X945100Y528000D03*
X995100Y533000D03*
X217600Y1084900D03*
X281100Y1110300D03*
X230700Y1099500D03*
X280700Y1104500D03*
X1932100Y1084900D03*
X1995600Y1110300D03*
X1945200Y1099500D03*
X1995200Y1104500D03*
X2122600Y1084900D03*
X2186100Y1110300D03*
X2135700Y1099500D03*
X2185700Y1104500D03*
X2313100Y1084900D03*
X2376600Y1110300D03*
X2326200Y1099500D03*
X2376200Y1104500D03*
X408100Y1084900D03*
X471600Y1110300D03*
X421200Y1099500D03*
X471200Y1104500D03*
X598600Y1084900D03*
X662100Y1110300D03*
X611700Y1099500D03*
X661700Y1104500D03*
X789100Y1084900D03*
X852600Y1110300D03*
X802200Y1099500D03*
X852200Y1104500D03*
X979600Y1084900D03*
X1043100Y1110300D03*
X992700Y1099500D03*
X1042700Y1104500D03*
X1170100Y1084900D03*
X1233600Y1110300D03*
X1183200Y1099500D03*
X1233200Y1104500D03*
X1360600Y1084900D03*
X1424100Y1110300D03*
X1373700Y1099500D03*
X1423700Y1104500D03*
X1551100Y1084900D03*
X1614600Y1110300D03*
X1564200Y1099500D03*
X1614200Y1104500D03*
X1741600Y1084900D03*
X1805100Y1110300D03*
X1754700Y1099500D03*
X1804700Y1104500D03*
X1122500Y513400D03*
X1186000Y538800D03*
X1135600Y528000D03*
X1185600Y533000D03*
X27100Y894400D03*
X90600Y919800D03*
X40200Y909000D03*
X90200Y914000D03*
X1313000Y513400D03*
X1376500Y538800D03*
X1326100Y528000D03*
X1376100Y533000D03*
X3122700Y894400D03*
X3186200Y919800D03*
X3135800Y909000D03*
X3185800Y914000D03*
X1646400Y703900D03*
X1709900Y729300D03*
X1659500Y718500D03*
X1709500Y723500D03*
X2932200Y894400D03*
X2995700Y919800D03*
X2945300Y909000D03*
X2995300Y914000D03*
X1503500Y513400D03*
X1567000Y538800D03*
X1516600Y528000D03*
X1566600Y533000D03*
X1694000Y513400D03*
X1757500Y538800D03*
X1707100Y528000D03*
X1757100Y533000D03*
X3646600Y132400D03*
X3710100Y157800D03*
X3659700Y147000D03*
X3709700Y152000D03*
X3551400Y322900D03*
X3614900Y348300D03*
X3564500Y337500D03*
X3614500Y342500D03*
X3741900Y322900D03*
X3805400Y348300D03*
X3755000Y337500D03*
X3805000Y342500D03*
X3932400Y322900D03*
X3995900Y348300D03*
X3945500Y337500D03*
X3995500Y342500D03*
X3551400Y513400D03*
X3614900Y538800D03*
X3564500Y528000D03*
X3614500Y533000D03*
X4313400Y703900D03*
X4376900Y729300D03*
X4326500Y718500D03*
X4376500Y723500D03*
X3741900Y513400D03*
X3805400Y538800D03*
X3755000Y528000D03*
X3805000Y533000D03*
X3932400Y513400D03*
X3995900Y538800D03*
X3945500Y528000D03*
X3995500Y533000D03*
X4313400Y513400D03*
X4376900Y538800D03*
X4326500Y528000D03*
X4376500Y533000D03*
X3551400Y703900D03*
X3614900Y729300D03*
X3564500Y718500D03*
X3614500Y723500D03*
X3741900Y703900D03*
X3805400Y729300D03*
X3755000Y718500D03*
X3805000Y723500D03*
X3932400Y703900D03*
X3995900Y729300D03*
X3945500Y718500D03*
X3995500Y723500D03*
X3932400Y894400D03*
X3995900Y919800D03*
X3945500Y909000D03*
X3995500Y914000D03*
X4122900Y894400D03*
X4186400Y919800D03*
X4136000Y909000D03*
X4186000Y914000D03*
X3932400Y132400D03*
X3995900Y157800D03*
X3945500Y147000D03*
X3995500Y152000D03*
X3741900Y894400D03*
X3805400Y919800D03*
X3755000Y909000D03*
X3805000Y914000D03*
X1884500Y513400D03*
X1948000Y538800D03*
X1897600Y528000D03*
X1947600Y533000D03*
X2217900Y703900D03*
X2281400Y729300D03*
X2231000Y718500D03*
X2281000Y723500D03*
X2932200Y132400D03*
X2995700Y157800D03*
X2945300Y147000D03*
X2995300Y152000D03*
X1598700Y322900D03*
X1662200Y348300D03*
X1611800Y337500D03*
X1661800Y342500D03*
X2432200Y132400D03*
X2495700Y157800D03*
X2445300Y147000D03*
X2495300Y152000D03*
X1408200Y322900D03*
X1471700Y348300D03*
X1421300Y337500D03*
X1471300Y342500D03*
X3932400Y1084900D03*
X3995900Y1110300D03*
X3945500Y1099500D03*
X3995500Y1104500D03*
X3551400Y894400D03*
X3614900Y919800D03*
X3564500Y909000D03*
X3614500Y914000D03*
X1836900Y703900D03*
X1900400Y729300D03*
X1850000Y718500D03*
X1900000Y723500D03*
X2027400Y703900D03*
X2090900Y729300D03*
X2040500Y718500D03*
X2090500Y723500D03*
X3313200Y1084900D03*
X3376700Y1110300D03*
X3326300Y1099500D03*
X3376300Y1104500D03*
X3741900Y1084900D03*
X3805400Y1110300D03*
X3755000Y1099500D03*
X3805000Y1104500D03*
X1979700Y322900D03*
X2043200Y348300D03*
X1992800Y337500D03*
X2042800Y342500D03*
X3313200Y703900D03*
X3376700Y729300D03*
X3326300Y718500D03*
X3376300Y723500D03*
X3313200Y894400D03*
X3376700Y919800D03*
X3326300Y909000D03*
X3376300Y914000D03*
X2932200Y1084900D03*
X2995700Y1110300D03*
X2945300Y1099500D03*
X2995300Y1104500D03*
X312900Y703900D03*
X376400Y729300D03*
X326000Y718500D03*
X376000Y723500D03*
X2265500Y513400D03*
X2329000Y538800D03*
X2278600Y528000D03*
X2328600Y533000D03*
X884400Y703900D03*
X947900Y729300D03*
X897500Y718500D03*
X947500Y723500D03*
X2408400Y703900D03*
X2471900Y729300D03*
X2421500Y718500D03*
X2471500Y723500D03*
X3313200Y132400D03*
X3376700Y157800D03*
X3326300Y147000D03*
X3376300Y152000D03*
X551000Y513400D03*
X614500Y538800D03*
X564100Y528000D03*
X614100Y533000D03*
X3122700Y1084900D03*
X3186200Y1110300D03*
X3135800Y1099500D03*
X3185800Y1104500D03*
X2075000Y513400D03*
X2138500Y538800D03*
X2088100Y528000D03*
X2138100Y533000D03*
X146200Y322900D03*
X209700Y348300D03*
X159300Y337500D03*
X209300Y342500D03*
X2527400Y322900D03*
X2590900Y348300D03*
X2540500Y337500D03*
X2590500Y342500D03*
X2170200Y322900D03*
X2233700Y348300D03*
X2183300Y337500D03*
X2233300Y342500D03*
X1241500Y132400D03*
X1305000Y157800D03*
X1254600Y147000D03*
X1304600Y152000D03*
X1074900Y703900D03*
X1138400Y729300D03*
X1088000Y718500D03*
X1138000Y723500D03*
X74700Y703900D03*
X138200Y729300D03*
X87800Y718500D03*
X137800Y723500D03*
X1455900Y703900D03*
X1519400Y729300D03*
X1469000Y718500D03*
X1519000Y723500D03*
X4313400Y894400D03*
X4376900Y919800D03*
X4326500Y909000D03*
X4376500Y914000D03*
X3122700Y322900D03*
X3186200Y348300D03*
X3135800Y337500D03*
X3185800Y342500D03*
X1027200Y322900D03*
X1090700Y348300D03*
X1040300Y337500D03*
X1090300Y342500D03*
X2503600Y1084900D03*
X2567100Y1110300D03*
X2516700Y1099500D03*
X2566700Y1104500D03*
X2694100Y1084900D03*
X2757600Y1110300D03*
X2707200Y1099500D03*
X2757200Y1104500D03*
X503400Y703900D03*
X566900Y729300D03*
X516500Y718500D03*
X566500Y723500D03*
X289000Y132400D03*
X352500Y157800D03*
X302100Y147000D03*
X352100Y152000D03*
X2194000Y132400D03*
X2257500Y157800D03*
X2207100Y147000D03*
X2257100Y152000D03*
X646200Y322900D03*
X709700Y348300D03*
X659300Y337500D03*
X709300Y342500D03*
X1265400Y703900D03*
X1328900Y729300D03*
X1278500Y718500D03*
X1328500Y723500D03*
X455700Y322900D03*
X519200Y348300D03*
X468800Y337500D03*
X518800Y342500D03*
X4309900Y1084900D03*
X4373400Y1110300D03*
X4323000Y1099500D03*
X4373000Y1104500D03*
X4131900Y1084900D03*
X4195400Y1110300D03*
X4145000Y1099500D03*
X4195000Y1104500D03*
X-163400Y1084900D03*
X-99900Y1110300D03*
X-150300Y1099500D03*
X-100300Y1104500D03*
X-163400Y894400D03*
X-99900Y919800D03*
X-150300Y909000D03*
X-100300Y914000D03*
X-163400Y703900D03*
X-99900Y729300D03*
X-150300Y718500D03*
X-100300Y723500D03*
X-163400Y513400D03*
X-99900Y538800D03*
X-150300Y528000D03*
X-100300Y533000D03*
X-163400Y322900D03*
X-99900Y348300D03*
X-150300Y337500D03*
X-100300Y342500D03*
X-163400Y132400D03*
X-99900Y157800D03*
X-150300Y147000D03*
X-100300Y152000D03*
D11*
X4355846Y1290066D03*
X4355846Y1244854D03*
D12*
X4330954Y1302512D03*
X4330954Y1232408D03*
D10*
X2524860Y513400D03*
X2588360Y538800D03*
X2537960Y528000D03*
X2587960Y533000D03*
D13*
X4457280Y1433840D02*
X4468280Y1433840D01*
X4468280Y1314440D02*
X4457280Y1314440D01*
D14*
X4425620Y1419640D02*
X4415540Y1419640D01*
D15*
X4424830Y1420340D02*
X4424830Y1411760D01*
D14*
X4425620Y1328640D02*
X4415540Y1328640D01*
D15*
X4424830Y1327940D02*
X4424830Y1336520D01*
D10*
X4122420Y609600D03*
X4185920Y635000D03*
X4135520Y624200D03*
X4185520Y629200D03*
X4122420Y228600D03*
X4185920Y254000D03*
X4135520Y243200D03*
X4185520Y248200D03*
D16*
X471488Y1104900D02*
X471488Y1109663D01*
X471488Y1104900D02*
X471200Y1104500D01*
X471488Y1109663D02*
X471600Y1110300D01*
X661988Y1109663D02*
X661988Y1104900D01*
X661700Y1104500D01*
X661988Y1109663D02*
X662100Y1110300D01*
X852488Y1109663D02*
X852488Y1104900D01*
X852200Y1104500D01*
X852488Y1109663D02*
X852600Y1110300D01*
X1042988Y1109663D02*
X1042988Y1104900D01*
X1042700Y1104500D01*
X1042988Y1109663D02*
X1043100Y1110300D01*
X1233488Y1109663D02*
X1233488Y1104900D01*
X1233200Y1104500D01*
X1233488Y1109663D02*
X1233600Y1110300D01*
X1423988Y1109663D02*
X1423988Y1104900D01*
X1423700Y1104500D01*
X1423988Y1109663D02*
X1424100Y1110300D01*
X1614488Y1109663D02*
X1614488Y1104900D01*
X1614200Y1104500D01*
X1614488Y1109663D02*
X1614600Y1110300D01*
X1804988Y1109663D02*
X1804988Y1104900D01*
X1804700Y1104500D01*
X1804988Y1109663D02*
X1805100Y1110300D01*
X1995488Y1109663D02*
X1995488Y1104900D01*
X1995200Y1104500D01*
X1995488Y1109663D02*
X1995600Y1110300D01*
X2185988Y1109663D02*
X2185988Y1104900D01*
X2185700Y1104500D01*
X2185988Y1109663D02*
X2186100Y1110300D01*
X2376488Y1109663D02*
X2376488Y1104900D01*
X2376200Y1104500D01*
X2376488Y1109663D02*
X2376600Y1110300D01*
X2566988Y1109663D02*
X2566988Y1104900D01*
X2566700Y1104500D01*
X2566988Y1109663D02*
X2567100Y1110300D01*
X2757488Y1109663D02*
X2757488Y1104900D01*
X2757200Y1104500D01*
X2757488Y1109663D02*
X2757600Y1110300D01*
X2995613Y1109663D02*
X2995613Y1104900D01*
X2995300Y1104500D01*
X2995613Y1109663D02*
X2995700Y1110300D01*
X3186113Y1109663D02*
X3186113Y1104900D01*
X3185800Y1104500D01*
X3186113Y1109663D02*
X3186200Y1110300D01*
X3376613Y1109663D02*
X3376613Y1104900D01*
X3376300Y1104500D01*
X3376613Y1109663D02*
X3376700Y1110300D01*
X3614738Y1109663D02*
X3614738Y1104900D01*
X3614500Y1104500D01*
X3614738Y1109663D02*
X3614900Y1110300D01*
X3805238Y1109663D02*
X3805238Y1104900D01*
X3805000Y1104500D01*
X3805238Y1109663D02*
X3805400Y1110300D01*
X3995738Y1109663D02*
X3995738Y1104900D01*
X3995500Y1104500D01*
X3995738Y1109663D02*
X3995900Y1110300D01*
X4186238Y919163D02*
X4186238Y914400D01*
X4186000Y914000D01*
X4186238Y919163D02*
X4186400Y919800D01*
X138113Y728663D02*
X138113Y723900D01*
X137800Y723500D01*
X138113Y728663D02*
X138200Y729300D01*
X376238Y728663D02*
X376238Y723900D01*
X376000Y723500D01*
X376238Y728663D02*
X376400Y729300D01*
X566738Y728663D02*
X566738Y723900D01*
X566500Y723500D01*
X566738Y728663D02*
X566900Y729300D01*
X757238Y728663D02*
X757238Y723900D01*
X757000Y723500D01*
X757238Y728663D02*
X757400Y729300D01*
X947738Y728663D02*
X947738Y723900D01*
X947500Y723500D01*
X947738Y728663D02*
X947900Y729300D01*
X1138238Y728663D02*
X1138238Y723900D01*
X1138000Y723500D01*
X1138238Y728663D02*
X1138400Y729300D01*
X1328738Y728663D02*
X1328738Y723900D01*
X1328500Y723500D01*
X1328738Y728663D02*
X1328900Y729300D01*
X1519238Y728663D02*
X1519238Y723900D01*
X1519000Y723500D01*
X1519238Y728663D02*
X1519400Y729300D01*
X1709738Y728663D02*
X1709738Y723900D01*
X1709500Y723500D01*
X1709738Y728663D02*
X1709900Y729300D01*
X1900238Y728663D02*
X1900238Y723900D01*
X1900000Y723500D01*
X1900238Y728663D02*
X1900400Y729300D01*
X2090738Y728663D02*
X2090738Y723900D01*
X2090500Y723500D01*
X2090738Y728663D02*
X2090900Y729300D01*
X2281238Y728663D02*
X2281238Y723900D01*
X2281000Y723500D01*
X2281238Y728663D02*
X2281400Y729300D01*
X2995613Y728663D02*
X2995613Y723900D01*
X2995300Y723500D01*
X2995613Y728663D02*
X2995700Y729300D01*
X3186113Y728663D02*
X3186113Y723900D01*
X3185800Y723500D01*
X3186113Y728663D02*
X3186200Y729300D01*
X3376613Y728663D02*
X3376613Y723900D01*
X3376300Y723500D01*
X3376613Y728663D02*
X3376700Y729300D01*
X3614738Y728663D02*
X3614738Y723900D01*
X3614500Y723500D01*
X3614738Y728663D02*
X3614900Y729300D01*
X3805238Y728663D02*
X3805238Y723900D01*
X3805000Y723500D01*
X3805238Y728663D02*
X3805400Y729300D01*
X3995738Y728663D02*
X3995738Y723900D01*
X3995500Y723500D01*
X3995738Y728663D02*
X3995900Y729300D01*
X4376738Y728663D02*
X4376738Y723900D01*
X4376500Y723500D01*
X4376738Y728663D02*
X4376900Y729300D01*
X2590800Y347663D02*
X2590800Y342900D01*
X2590800Y347663D02*
X2590900Y348300D01*
X2590800Y342900D02*
X2590500Y342500D01*
X4373563Y1104900D02*
X4373563Y1109663D01*
X4373563Y1104900D02*
X4373000Y1104500D01*
X4373563Y1109663D02*
X4373400Y1110300D01*
X4195763Y1109663D02*
X4195763Y1104900D01*
X4195000Y1104500D01*
X4195763Y1109663D02*
X4195400Y1110300D01*
X-100013Y1109663D02*
X-100013Y1104900D01*
X-100300Y1104500D01*
X-100013Y1109663D02*
X-99900Y1110300D01*
X-100013Y728663D02*
X-100013Y723900D01*
X-100300Y723500D01*
X-100013Y728663D02*
X-99900Y729300D01*
D17*
X4030980Y1346200D03*
D18*
X3942080Y1346200D01*
D17*
X3942080Y1346200D03*
X4107180Y1236980D03*
D18*
X4102100Y1231900D01*
D17*
X4109720Y1183640D03*
D18*
X4064000Y1226820D02*
X4069080Y1231900D01*
X4064000Y1226820D02*
X4064000Y1188720D01*
X4069080Y1183640D01*
X4069080Y1231900D02*
X4102100Y1231900D01*
X4109720Y1183640D02*
X4069080Y1183640D01*
D17*
X-71120Y1137920D03*
D18*
X-71120Y1087120D01*
X-52058Y1068058D02*
X-52058Y994398D01*
X-52058Y1068058D02*
X-71120Y1087120D01*
X-52058Y994398D02*
X-25400Y967740D01*
X22860Y967740D02*
X218440Y967740D01*
X22860Y967740D02*
X-25400Y967740D01*
X22860Y967740D02*
X30480Y975360D01*
X30480Y1018540D01*
D17*
X30480Y1018540D03*
D18*
X218440Y967740D02*
X220980Y970280D01*
X220980Y1018540D01*
D17*
X220980Y1018540D03*
D18*
X-25400Y967740D02*
X-78740Y967740D01*
X-139700Y967740D01*
X-162560Y990600D02*
X-162560Y1018540D01*
D17*
X-162560Y1018540D03*
D18*
X-162560Y990600D02*
X-139700Y967740D01*
X218440Y967740D02*
X450850Y967740D01*
X641350Y967740D01*
X831850Y967740D01*
X1022350Y967740D01*
X1176338Y967740D01*
X1403350Y967740D01*
X1524000Y967740D01*
X1784350Y967740D01*
X1974850Y967740D01*
X2165350Y967740D01*
X2355850Y967740D01*
X2509838Y967740D01*
X2700338Y967740D01*
X2974975Y967740D01*
X3165475Y967740D01*
X3355975Y967740D01*
X3557588Y967740D01*
X3748088Y967740D01*
X3938588Y967740D01*
X4119563Y967740D01*
X4300538Y967740D01*
X-78740Y967740D02*
X-78740Y902503D01*
X-53808Y877571D01*
X-53808Y810728D01*
X-17780Y774700D01*
X12700Y774700D01*
X27940Y789940D01*
X27940Y825500D01*
D17*
X27940Y825500D03*
D18*
X-17780Y774700D02*
X-96520Y774700D01*
X-154940Y774700D01*
X-172720Y792480D01*
X-172720Y825500D01*
D17*
X-172720Y825500D03*
D18*
X12700Y774700D02*
X223838Y774700D01*
X414338Y774700D01*
X604838Y774700D01*
X795338Y774700D01*
X985838Y774700D01*
X1176338Y774700D01*
X1366838Y774700D01*
X1557338Y774700D01*
X1747838Y774700D01*
X1938338Y774700D01*
X2128838Y774700D01*
X2319338Y774700D01*
X2460574Y774700D01*
X2504666Y818792D02*
X2538662Y818792D01*
X2577674Y774700D01*
X2605088Y774700D01*
X2698574Y774700D01*
X2742666Y818792D01*
X2774414Y818792D01*
X2504666Y818792D02*
X2460574Y774700D01*
X2774414Y818792D02*
X2813426Y774700D01*
X2938463Y774700D01*
X3167063Y774700D01*
X3319463Y774700D01*
X3557588Y774700D01*
X3748088Y774700D01*
X3938588Y774700D01*
X4167188Y774700D01*
X4300538Y774700D01*
X-48260Y726440D02*
X-96520Y774700D01*
X-48260Y726440D02*
X-48260Y619760D01*
X-20320Y581660D01*
X2428811Y581660D02*
X2432593Y585442D01*
X2455327Y585442D01*
X2459109Y581660D01*
X2666811Y581660D02*
X2670593Y585442D01*
X2749578Y585442D01*
X2755900Y581660D01*
X80963Y581660D02*
X-20320Y581660D01*
X80963Y581660D02*
X319088Y581660D01*
X509588Y581660D01*
X700088Y581660D01*
X890588Y581660D01*
X1081088Y581660D01*
X1271588Y581660D01*
X1462088Y581660D01*
X1652588Y581660D01*
X1843088Y581660D01*
X2033588Y581660D01*
X2224088Y581660D01*
X2414588Y581660D01*
X2428811Y581660D01*
X2459109Y581660D02*
X2652713Y581660D01*
X2666811Y581660D01*
X2755900Y581660D02*
X2979738Y581660D01*
X3170238Y581660D01*
X3360738Y581660D01*
X3557588Y581660D01*
X3748088Y581660D01*
X3938588Y581660D01*
X4066540Y581660D01*
X-20320Y581660D02*
X-106680Y581660D01*
X-157480Y581660D01*
X-167640Y591820D01*
X-167640Y632460D01*
D17*
X-167640Y632460D03*
D18*
X-106680Y581660D02*
X-50800Y525780D01*
X-50800Y419100D02*
X-25400Y388620D01*
X-50800Y419100D02*
X-50800Y525780D01*
X76667Y394942D02*
X82989Y388620D01*
X53933Y394942D02*
X47611Y388620D01*
X53933Y394942D02*
X76667Y394942D01*
X47611Y388620D02*
X-25400Y388620D01*
X-91440Y388620D01*
X-142240Y388620D01*
X-172720Y419100D01*
X-172720Y444500D01*
D17*
X-172720Y444500D03*
D18*
X285611Y388620D02*
X291933Y394942D01*
X316258Y394942D01*
X322580Y388620D01*
X117475Y388620D02*
X82989Y388620D01*
X117475Y388620D02*
X285611Y388620D01*
X322580Y388620D02*
X400050Y388620D01*
X557213Y388620D01*
X738188Y388620D01*
X938213Y388620D01*
X1128713Y388620D01*
X1319213Y388620D01*
X1509713Y388620D01*
X1700213Y388620D01*
X1890713Y388620D01*
X2081213Y388620D01*
X2320925Y388620D01*
X2386571Y388620D01*
X-53340Y350520D02*
X-91440Y388620D01*
X-53340Y350520D02*
X-53340Y228600D01*
X-30480Y195580D01*
X49426Y247292D02*
X81174Y247292D01*
X7874Y195580D02*
X-30480Y195580D01*
X7874Y195580D02*
X49426Y247292D01*
X284886Y247292D02*
X316634Y247292D01*
X284886Y247292D02*
X243334Y195580D01*
X122726Y195580D02*
X81174Y247292D01*
X122726Y195580D02*
X152400Y195580D01*
X243334Y195580D01*
X316634Y247292D02*
X368346Y195580D01*
X759371Y195580D02*
X768233Y204442D01*
X790967Y204442D01*
X799829Y195580D01*
X461963Y195580D02*
X368346Y195580D01*
X461963Y195580D02*
X652463Y195580D01*
X759371Y195580D01*
X1759371Y195580D02*
X1768233Y204442D01*
X1790967Y204442D01*
X1794629Y200779D01*
X1799829Y195580D01*
X842963Y195580D02*
X799829Y195580D01*
X842963Y195580D02*
X1033463Y195580D01*
X1276350Y195580D01*
X1414463Y195580D01*
X1604963Y195580D01*
X1759371Y195580D01*
X1799829Y195580D02*
X1985963Y195580D01*
X2228850Y195580D01*
X2369820Y195580D01*
X2421532Y247292D01*
X2467968Y247292D02*
X2494280Y220980D01*
X2519680Y195580D01*
X2619454Y195580D01*
X2671166Y247292D02*
X2704188Y247292D01*
X2758440Y195580D02*
X3186113Y195580D01*
X3545471Y195580D01*
X2467968Y247292D02*
X2421532Y247292D01*
X2619454Y195580D02*
X2671166Y247292D01*
X2704188Y247292D02*
X2758440Y195580D01*
X3545471Y195580D02*
X3554333Y204442D01*
X3580158Y204442D02*
X3589020Y195580D01*
X3748088Y195580D01*
X3783471Y195580D01*
X3792333Y204442D01*
X3815067Y204442D01*
X3823929Y195580D01*
X3557588Y204442D02*
X3554333Y204442D01*
X3557588Y204442D02*
X3580158Y204442D01*
X-30480Y195580D02*
X-99060Y195580D01*
X-144780Y195580D01*
X-170180Y231140D01*
X-170180Y254000D01*
D17*
X-170180Y254000D03*
D18*
X-99060Y195580D02*
X-53340Y149860D01*
X-53340Y38100D02*
X-33020Y17780D01*
X766266Y56792D02*
X792934Y56792D01*
X57150Y17780D02*
X-33020Y17780D01*
X57150Y17780D02*
X295275Y17780D01*
X533400Y17780D01*
X727254Y17780D01*
X766266Y56792D01*
X792934Y56792D02*
X831946Y17780D01*
X1766266Y56792D02*
X1792934Y56792D01*
X1766266Y56792D02*
X1727254Y17780D01*
X1792934Y56792D02*
X1831946Y17780D01*
X-53340Y42863D02*
X-53340Y149860D01*
X-53340Y42863D02*
X-53340Y38100D01*
X831946Y17780D02*
X1276350Y17780D01*
X1727254Y17780D01*
X3552366Y56792D02*
X3579034Y56792D01*
X1962150Y17780D02*
X1831946Y17780D01*
X1962150Y17780D02*
X2200275Y17780D01*
X2438400Y17780D01*
X2676525Y17780D01*
X2938463Y17780D01*
X3128963Y17780D01*
X3319463Y17780D01*
X3513354Y17780D01*
X3552366Y56792D01*
X3579034Y56792D02*
X3618046Y17780D01*
X3790366Y56792D02*
X3817034Y56792D01*
X3790366Y56792D02*
X3751354Y17780D01*
X3817034Y56792D02*
X3856046Y17780D01*
X3652838Y17780D02*
X3618046Y17780D01*
X3652838Y17780D02*
X3751354Y17780D01*
X3856046Y17780D02*
X3938588Y17780D01*
X4259580Y17780D01*
X4310380Y68580D01*
D17*
X4310380Y68580D03*
D18*
X4066540Y581660D02*
X4142740Y657860D01*
X4216400Y657860D01*
X4234180Y640080D02*
X4305300Y640080D01*
D17*
X4305300Y640080D03*
D18*
X4234180Y640080D02*
X4216400Y657860D01*
X2457867Y340058D02*
X2435133Y340058D01*
X2621280Y388620D02*
X2682240Y327660D01*
X2730500Y327660D01*
X4310380Y429260D02*
X4310380Y447040D01*
D17*
X4310380Y447040D03*
D18*
X2435133Y340058D02*
X2386571Y388620D01*
X2457867Y340058D02*
X2506429Y388620D01*
X2530475Y388620D01*
X2621280Y388620D01*
X2730500Y327660D02*
X2791460Y388620D01*
X3600450Y388620D01*
X3790950Y388620D01*
X3938588Y388620D01*
X4269740Y388620D01*
X4310380Y429260D01*
X4127500Y276860D02*
X4046220Y195580D01*
X4127500Y276860D02*
X4203700Y276860D01*
X4226560Y254000D01*
X4297680Y254000D01*
D17*
X4297680Y254000D03*
D18*
X3984625Y195580D02*
X3823929Y195580D01*
X3984625Y195580D02*
X4046220Y195580D01*
X-157163Y68263D02*
X-157163Y65088D01*
X-134938Y42863D01*
X-53340Y42863D01*
X57150Y17780D02*
X57150Y69850D01*
X295275Y69850D02*
X295275Y17780D01*
X152400Y195580D02*
X152400Y260350D01*
X104775Y403225D02*
X104775Y450850D01*
X104775Y403225D02*
X117475Y390525D01*
X117475Y388620D01*
X533400Y69850D02*
X533400Y17780D01*
X461963Y195580D02*
X461963Y260350D01*
X80963Y581660D02*
X80963Y641350D01*
X366713Y450850D02*
X366713Y423863D01*
X400050Y390525D01*
X400050Y388620D01*
X652463Y260350D02*
X652463Y195580D01*
X319088Y581660D02*
X319088Y641350D01*
X557213Y450850D02*
X557213Y388620D01*
X223838Y774700D02*
X223838Y831850D01*
X842963Y260350D02*
X842963Y195580D01*
X509588Y581660D02*
X509588Y641350D01*
X738188Y450850D02*
X738188Y388620D01*
X414338Y774700D02*
X414338Y831850D01*
X1033463Y260350D02*
X1033463Y195580D01*
X700088Y581660D02*
X700088Y641350D01*
X1311275Y53975D02*
X1276350Y19050D01*
X1276350Y17780D01*
X938213Y388620D02*
X938213Y450850D01*
X604838Y774700D02*
X604838Y831850D01*
X1223963Y249238D02*
X1276350Y196850D01*
X1276350Y195580D01*
X890588Y581660D02*
X890588Y641350D01*
X1128713Y450850D02*
X1128713Y388620D01*
X795338Y774700D02*
X795338Y831850D01*
X1414463Y260350D02*
X1414463Y195580D01*
X1081088Y581660D02*
X1081088Y641350D01*
X1319213Y450850D02*
X1319213Y388620D01*
X985838Y774700D02*
X985838Y831850D01*
X1604963Y260350D02*
X1604963Y195580D01*
X1271588Y581660D02*
X1271588Y641350D01*
X1509713Y450850D02*
X1509713Y388620D01*
X1176338Y774700D02*
X1176338Y831850D01*
X1462088Y641350D02*
X1462088Y581660D01*
X1700213Y450850D02*
X1700213Y388620D01*
X1366838Y774700D02*
X1366838Y831850D01*
X1652588Y641350D02*
X1652588Y581660D01*
X1557338Y774700D02*
X1557338Y831850D01*
X1747838Y830263D02*
X1747838Y774700D01*
X414338Y1004888D02*
X414338Y1022350D01*
X414338Y1004888D02*
X450850Y968375D01*
X450850Y967740D01*
X604838Y1004888D02*
X604838Y1022350D01*
X604838Y1004888D02*
X641350Y968375D01*
X641350Y967740D01*
X795338Y1004888D02*
X795338Y1022350D01*
X795338Y1004888D02*
X831850Y968375D01*
X831850Y967740D01*
X985838Y1004888D02*
X985838Y1022350D01*
X985838Y1004888D02*
X1022350Y968375D01*
X1022350Y967740D01*
X1176338Y967740D02*
X1176338Y1022350D01*
X1366838Y1022350D02*
X1366838Y1004888D01*
X1403350Y968375D01*
X1403350Y967740D01*
X1524000Y967740D02*
X1524000Y1020763D01*
X1962150Y68263D02*
X1962150Y17780D01*
X1795463Y201613D02*
X1795463Y260350D01*
X1795463Y201613D02*
X1794629Y200779D01*
X1985963Y195580D02*
X1985963Y260350D01*
X1890713Y388620D02*
X1890713Y450850D01*
X1843088Y581660D02*
X1843088Y641350D01*
X2033588Y639763D02*
X2033588Y581660D01*
X2200275Y69850D02*
X2200275Y17780D01*
X2228850Y196850D02*
X2176463Y249238D01*
X2228850Y196850D02*
X2228850Y195580D01*
X2081213Y388620D02*
X2081213Y450850D01*
X2271713Y439738D02*
X2320925Y390525D01*
X2320925Y388620D01*
X2438400Y69850D02*
X2438400Y17780D01*
X2676525Y17780D02*
X2676525Y69850D01*
X1938338Y774700D02*
X1938338Y831850D01*
X2506663Y233363D02*
X2494280Y220980D01*
X2224088Y581660D02*
X2224088Y641350D01*
X2530475Y450850D02*
X2530475Y388620D01*
X2938463Y69850D02*
X2938463Y17780D01*
X2414588Y581660D02*
X2414588Y641350D01*
X2319338Y774700D02*
X2319338Y831850D01*
X3128963Y69850D02*
X3128963Y17780D01*
X2652713Y581660D02*
X2652713Y641350D01*
X3319463Y69850D02*
X3319463Y17780D01*
X3186113Y196850D02*
X3130550Y252413D01*
X3186113Y196850D02*
X3186113Y195580D01*
X2605088Y774700D02*
X2605088Y831850D01*
X2938463Y641350D02*
X2938463Y623888D01*
X2979738Y582613D01*
X2979738Y581660D01*
X3652838Y58738D02*
X3652838Y17780D01*
X3128963Y623888D02*
X3128963Y641350D01*
X3128963Y623888D02*
X3170238Y582613D01*
X3170238Y581660D01*
X2938463Y774700D02*
X2938463Y831850D01*
X3557588Y249238D02*
X3557588Y204442D01*
X3128963Y814388D02*
X3128963Y831850D01*
X3128963Y814388D02*
X3167063Y776288D01*
X3167063Y774700D01*
X3319463Y641350D02*
X3319463Y623888D01*
X3360738Y582613D01*
X3360738Y581660D01*
X3938588Y69850D02*
X3938588Y17780D01*
X3748088Y195580D02*
X3748088Y260350D01*
X3557588Y433388D02*
X3557588Y450850D01*
X3557588Y433388D02*
X3600450Y390525D01*
X3600450Y388620D01*
X3319463Y774700D02*
X3319463Y831850D01*
X3748088Y450850D02*
X3748088Y433388D01*
X3790950Y390525D01*
X3790950Y388620D01*
X3938588Y260350D02*
X3938588Y242888D01*
X3984625Y196850D01*
X3984625Y195580D01*
X3557588Y581660D02*
X3557588Y641350D01*
X3938588Y450850D02*
X3938588Y388620D01*
X3748088Y581660D02*
X3748088Y641350D01*
X3557588Y774700D02*
X3557588Y831850D01*
X3748088Y831850D02*
X3748088Y774700D01*
X3938588Y641350D02*
X3938588Y581660D01*
X3938588Y774700D02*
X3938588Y831850D01*
X4129088Y831850D02*
X4129088Y814388D01*
X4167188Y776288D01*
X4167188Y774700D01*
X4300538Y774700D02*
X4300538Y811213D01*
X1747838Y1004888D02*
X1747838Y1022350D01*
X1747838Y1004888D02*
X1784350Y968375D01*
X1784350Y967740D01*
X2128838Y836613D02*
X2128838Y774700D01*
X1938338Y1004888D02*
X1938338Y1022350D01*
X1938338Y1004888D02*
X1974850Y968375D01*
X1974850Y967740D01*
X2128838Y1004888D02*
X2128838Y1022350D01*
X2128838Y1004888D02*
X2165350Y968375D01*
X2165350Y967740D01*
X2319338Y1004888D02*
X2319338Y1022350D01*
X2319338Y1004888D02*
X2355850Y968375D01*
X2355850Y967740D01*
X2509838Y967740D02*
X2509838Y1022350D01*
X2700338Y1022350D02*
X2700338Y967740D01*
X2938463Y1004888D02*
X2938463Y1022350D01*
X2938463Y1004888D02*
X2974975Y968375D01*
X2974975Y967740D01*
X3128963Y1004888D02*
X3128963Y1022350D01*
X3128963Y1004888D02*
X3165475Y968375D01*
X3165475Y967740D01*
X3319463Y1004888D02*
X3319463Y1022350D01*
X3319463Y1004888D02*
X3355975Y968375D01*
X3355975Y967740D01*
X3557588Y967740D02*
X3557588Y1022350D01*
X3748088Y1022350D02*
X3748088Y967740D01*
X3938588Y967740D02*
X3938588Y1022350D01*
X4119563Y1020763D02*
X4119563Y967740D01*
X4300538Y967740D02*
X4300538Y1003300D01*
D17*
X-157163Y68263D03*
X57150Y69850D03*
X295275Y69850D03*
X152400Y260350D03*
X104775Y450850D03*
X533400Y69850D03*
X461963Y260350D03*
X80963Y641350D03*
X366713Y450850D03*
X652463Y260350D03*
X319088Y641350D03*
X557213Y450850D03*
X223838Y831850D03*
X842963Y260350D03*
X509588Y641350D03*
X738188Y450850D03*
X414338Y831850D03*
X1033463Y260350D03*
X700088Y641350D03*
X1311275Y53975D03*
X938213Y450850D03*
X604838Y831850D03*
X1223963Y249238D03*
X890588Y641350D03*
X1128713Y450850D03*
X795338Y831850D03*
X1414463Y260350D03*
X1081088Y641350D03*
X1319213Y450850D03*
X985838Y831850D03*
X1604963Y260350D03*
X1271588Y641350D03*
X1509713Y450850D03*
X1176338Y831850D03*
X1462088Y641350D03*
X1700213Y450850D03*
X1366838Y831850D03*
X1652588Y641350D03*
X1557338Y831850D03*
X1747838Y830263D03*
X414338Y1022350D03*
X604838Y1022350D03*
X795338Y1022350D03*
X985838Y1022350D03*
X1176338Y1022350D03*
X1366838Y1022350D03*
X1524000Y1020763D03*
X1962150Y68263D03*
X1795463Y260350D03*
X1985963Y260350D03*
X1890713Y450850D03*
X1843088Y641350D03*
X2033588Y639763D03*
X2200275Y69850D03*
X2176463Y249238D03*
X2081213Y450850D03*
X2271713Y439738D03*
X2438400Y69850D03*
X2676525Y69850D03*
X1938338Y831850D03*
X2506663Y233363D03*
X2224088Y641350D03*
X2530475Y450850D03*
X2938463Y69850D03*
X2414588Y641350D03*
X2319338Y831850D03*
X3128963Y69850D03*
X2652713Y641350D03*
X3319463Y69850D03*
X3130550Y252413D03*
X2605088Y831850D03*
X2938463Y641350D03*
X3652838Y58738D03*
X3128963Y641350D03*
X2938463Y831850D03*
X3557588Y249238D03*
X3128963Y831850D03*
X3319463Y641350D03*
X3938588Y69850D03*
X3748088Y260350D03*
X3557588Y450850D03*
X3319463Y831850D03*
X3748088Y450850D03*
X3938588Y260350D03*
X3557588Y641350D03*
X3938588Y450850D03*
X3748088Y641350D03*
X3557588Y831850D03*
X3748088Y831850D03*
X3938588Y641350D03*
X3938588Y831850D03*
X4129088Y831850D03*
X4300538Y811213D03*
X1747838Y1022350D03*
X2128838Y836613D03*
X1938338Y1022350D03*
X2128838Y1022350D03*
X2319338Y1022350D03*
X2509838Y1022350D03*
X2700338Y1022350D03*
X2938463Y1022350D03*
X3128963Y1022350D03*
X3319463Y1022350D03*
X3557588Y1022350D03*
X3748088Y1022350D03*
X3938588Y1022350D03*
X4119563Y1020763D03*
X4300538Y1003300D03*
X4196080Y1231900D03*
D16*
X4292600Y1231900D01*
D17*
X4292600Y1231900D03*
X4403090Y1347724D03*
D19*
X4409440Y1354074D01*
X4409440Y1361440D01*
X4411980Y1363980D01*
X4422140Y1363980D01*
X4424680Y1366520D01*
X4432300Y1366520D01*
X4433852Y1368072D01*
D17*
X4439666Y1376172D03*
D19*
X4433852Y1370358D01*
X4433852Y1368072D01*
D17*
X4051963Y1420114D03*
X4123182Y1420114D03*
D18*
X4442206Y1389126D02*
X4442460Y1389380D01*
D17*
X4442460Y1389380D03*
X4119880Y1234440D03*
D18*
X4122420Y1231900D01*
X4157980Y1219200D02*
X4157980Y1216660D01*
X4145280Y1231900D02*
X4122420Y1231900D01*
X4145280Y1231900D02*
X4157980Y1219200D01*
D17*
X4157980Y1216660D03*
D18*
X4061460Y1420114D02*
X4051963Y1420114D01*
X4061460Y1420114D02*
X4123182Y1420114D01*
X4142486Y1420114D01*
X4158742Y1391158D02*
X4171950Y1391158D01*
X4175760Y1387348D01*
X4152900Y1409700D02*
X4142486Y1420114D01*
X4152900Y1409700D02*
X4152900Y1397000D01*
X4158742Y1391158D01*
D17*
X4175760Y1369060D03*
D18*
X4179316Y1365504D01*
X4179316Y1329944D01*
X4179316Y1329436D01*
D17*
X4179316Y1329944D03*
D18*
X4179316Y1265936D01*
X4145280Y1231900D01*
X4427982Y1403858D02*
X4442460Y1389380D01*
X4175760Y1387348D02*
X4175760Y1369060D01*
X4062222Y1420876D02*
X4061460Y1420114D01*
X4180840Y1363980D02*
X4343400Y1363980D01*
X4180840Y1363980D02*
X4175760Y1369060D01*
X4368800Y1389380D02*
X4442460Y1389380D01*
X4368800Y1389380D02*
X4343400Y1363980D01*
X4051963Y1420114D02*
X4035806Y1420114D01*
X3924300Y1430020D02*
X3865880Y1371600D01*
X3865880Y1346200D01*
X3792220Y1272540D01*
X-20320Y1272540D02*
X-220980Y1071880D01*
X4025900Y1430020D02*
X4035806Y1420114D01*
X4025900Y1430020D02*
X3924300Y1430020D01*
X3792220Y1272540D02*
X-20320Y1272540D01*
X-220980Y1071880D02*
X-220980Y982980D01*
X-220980Y800100D01*
X-220980Y612140D01*
X-220980Y424180D01*
X-220980Y236220D01*
X-220980Y91948D01*
X-215900Y977900D02*
X-220980Y982980D01*
X-215900Y977900D02*
X-182880Y977900D01*
D17*
X-182880Y977900D03*
D18*
X-180340Y800100D02*
X-220980Y800100D01*
D17*
X-180340Y800100D03*
D18*
X-180340Y612140D02*
X-220980Y612140D01*
D17*
X-180340Y612140D03*
D18*
X-180340Y424180D02*
X-220980Y424180D01*
D17*
X-180340Y424180D03*
D18*
X-180340Y236220D02*
X-220980Y236220D01*
D17*
X-180340Y236220D03*
D18*
X-220980Y91948D02*
X-195072Y66040D01*
X-182880Y66040D01*
D17*
X-182880Y66040D03*
X4013022Y1419936D03*
D16*
X3967482Y1419936D01*
X3967480Y1419938D01*
X3929116Y1419938D01*
X3879518Y1370340D01*
X3879518Y1339840D02*
X3802996Y1263318D01*
X13518Y1263318D01*
X3879518Y1339840D02*
X3879518Y1370340D01*
X-150300Y1098000D02*
X-163400Y1084900D01*
X-150300Y1098000D02*
X-150300Y1099500D01*
X13518Y1263318D01*
X-149225Y908050D02*
X-161925Y895350D01*
X-163400Y894400D01*
X-150300Y909000D02*
X-149225Y908050D01*
X-149225Y717550D02*
X-161925Y704850D01*
X-163400Y703900D01*
X-150300Y718500D02*
X-149225Y717550D01*
X-149225Y527050D02*
X-161925Y514350D01*
X-163400Y513400D01*
X-150300Y528000D02*
X-149225Y527050D01*
X-149225Y146050D02*
X-161925Y133350D01*
X-163400Y132400D01*
X-150300Y147000D02*
X-149225Y146050D01*
X-161925Y323850D02*
X-149225Y336550D01*
X-161925Y323850D02*
X-163400Y322900D01*
X-150300Y337500D02*
X-149225Y336550D01*
X-150813Y909638D02*
X-150813Y971550D01*
X-196850Y1017588D01*
X-196850Y1066800D01*
X-184150Y1079500D01*
X-169863Y1079500D01*
X-150813Y909638D02*
X-150300Y909000D01*
X-169863Y1079500D02*
X-163400Y1084900D01*
D17*
X4013200Y1410716D03*
D16*
X3932936Y1410716D02*
X3888740Y1366520D01*
X3932936Y1410716D02*
X4013200Y1410716D01*
X3888740Y1338560D02*
X3808594Y1258414D01*
X200614Y1258414D01*
X3888740Y1338560D02*
X3888740Y1366520D01*
X41806Y1099606D02*
X27100Y1084900D01*
X41806Y1099606D02*
X200614Y1258414D01*
X27100Y1084900D02*
X21360Y1079160D01*
X6257Y1079160D01*
X-5260Y1067644D01*
X-5260Y1051357D01*
X15240Y1030857D01*
X15240Y976674D01*
D17*
X15240Y976674D03*
X10160Y784860D03*
D16*
X21360Y888660D02*
X27100Y894400D01*
X21360Y888660D02*
X6257Y888660D01*
X-5260Y877144D01*
X-5260Y860857D01*
X10160Y845437D02*
X10160Y784860D01*
X10160Y845437D02*
X-5260Y860857D01*
X88900Y717550D02*
X76200Y704850D01*
X74700Y703900D01*
X87800Y718500D02*
X88900Y717550D01*
X41806Y1099606D02*
X41275Y1100138D01*
X40200Y1099500D01*
X112713Y527050D02*
X100013Y514350D01*
X98500Y513400D01*
X111600Y528000D02*
X112713Y527050D01*
X65088Y146050D02*
X52388Y133350D01*
X50900Y132400D01*
X64000Y147000D02*
X65088Y146050D01*
X147638Y323850D02*
X160338Y336550D01*
X147638Y323850D02*
X146200Y322900D01*
X159300Y337500D02*
X160338Y336550D01*
X114300Y292100D02*
X114300Y219075D01*
X114300Y292100D02*
X112713Y293688D01*
X112713Y304800D01*
X130175Y322263D01*
X146050Y322263D01*
X146200Y322900D01*
X98425Y512763D02*
X82550Y512763D01*
X65088Y495300D01*
X65088Y431800D01*
X100013Y396875D01*
X98425Y512763D02*
X98500Y513400D01*
X74613Y703263D02*
X58738Y703263D01*
X41275Y685800D01*
X41275Y598488D01*
X49213Y590550D01*
X74613Y703263D02*
X74700Y703900D01*
D17*
X114300Y219075D03*
X100013Y396875D03*
X49213Y590550D03*
X3987800Y1392851D03*
D16*
X3927771Y1392851D01*
X3896360Y1361440D01*
X3896360Y1336040D01*
X3813556Y1253236D01*
X384436Y1253236D01*
X217600Y1086400D02*
X217600Y1084900D01*
X217600Y1086400D02*
X230700Y1099500D01*
X384436Y1253236D01*
D17*
X210820Y976674D03*
D16*
X185240Y1067644D02*
X196757Y1079160D01*
X185240Y1067644D02*
X185240Y1051357D01*
X196757Y1079160D02*
X211860Y1079160D01*
X210820Y1025777D02*
X210820Y976674D01*
X211860Y1079160D02*
X217600Y1084900D01*
X185240Y1051357D02*
X210820Y1025777D01*
X374650Y527050D02*
X361950Y514350D01*
X360500Y513400D01*
X373600Y528000D02*
X374650Y527050D01*
X314325Y704850D02*
X327025Y717550D01*
X314325Y704850D02*
X312900Y703900D01*
X326000Y718500D02*
X327025Y717550D01*
X306388Y642938D02*
X306388Y595313D01*
X306388Y642938D02*
X279400Y669925D01*
X279400Y685800D01*
X296863Y703263D01*
X312738Y703263D01*
X312900Y703900D01*
X303213Y146050D02*
X290513Y133350D01*
X289000Y132400D01*
X302100Y147000D02*
X303213Y146050D01*
X457200Y323850D02*
X469900Y336550D01*
X457200Y323850D02*
X455700Y322900D01*
X468800Y337500D02*
X469900Y336550D01*
X366713Y249238D02*
X366713Y211138D01*
X366713Y249238D02*
X439738Y322263D01*
X455613Y322263D01*
X455700Y322900D01*
X360363Y512763D02*
X344488Y512763D01*
X327025Y495300D01*
X327025Y452438D01*
X382588Y396875D01*
X360363Y512763D02*
X360500Y513400D01*
X327025Y785813D02*
X327025Y876300D01*
X304800Y898525D01*
X266700Y898525D01*
X257175Y908050D01*
X231775Y908050D01*
X230700Y909000D01*
D17*
X306388Y595313D03*
X366713Y211138D03*
X382588Y396875D03*
X327025Y785813D03*
X3987800Y1383763D03*
D16*
X3928843Y1383763D01*
X3903980Y1358900D01*
X3903980Y1333500D01*
X3819144Y1248664D01*
X570364Y1248664D01*
X421200Y1098000D02*
X408100Y1084900D01*
X421200Y1098000D02*
X421200Y1099500D01*
X570364Y1248664D01*
X541338Y146050D02*
X528638Y133350D01*
X527200Y132400D01*
X540300Y147000D02*
X541338Y146050D01*
X647700Y323850D02*
X660400Y336550D01*
X647700Y323850D02*
X646200Y322900D01*
X659300Y337500D02*
X660400Y336550D01*
X541338Y233363D02*
X541338Y211138D01*
X541338Y233363D02*
X630238Y322263D01*
X646113Y322263D01*
X646200Y322900D01*
X409575Y895350D02*
X422275Y908050D01*
X409575Y895350D02*
X408100Y894400D01*
X420688Y976313D02*
X420688Y990600D01*
X374650Y1036638D01*
X374650Y1066800D01*
X392113Y1084263D01*
X407988Y1084263D01*
X408100Y1084900D01*
X565150Y527050D02*
X552450Y514350D01*
X551000Y513400D01*
X504825Y704850D02*
X517525Y717550D01*
X504825Y704850D02*
X503400Y703900D01*
X516500Y718500D02*
X517525Y717550D01*
X496888Y642938D02*
X496888Y595313D01*
X496888Y642938D02*
X469900Y669925D01*
X469900Y685800D01*
X487363Y703263D01*
X503238Y703263D01*
X503400Y703900D01*
X455613Y908050D02*
X422275Y908050D01*
X455613Y908050D02*
X474663Y889000D01*
X504825Y889000D01*
X517525Y876300D01*
X517525Y782638D01*
X422275Y908050D02*
X421200Y909000D01*
X660400Y496888D02*
X660400Y404813D01*
X660400Y496888D02*
X639763Y517525D01*
X600075Y517525D01*
X590550Y527050D01*
X565150Y527050D01*
X564100Y528000D01*
D17*
X541338Y211138D03*
X420688Y976313D03*
X496888Y595313D03*
X517525Y782638D03*
X660400Y404813D03*
X3987800Y1374675D03*
D16*
X3929915Y1374675D01*
X3911600Y1356360D01*
X3911600Y1330960D01*
X3824732Y1244092D01*
X756292Y1244092D01*
X611700Y1098000D02*
X598600Y1084900D01*
X611700Y1098000D02*
X611700Y1099500D01*
X756292Y1244092D01*
X612775Y908050D02*
X600075Y895350D01*
X598600Y894400D01*
X611188Y976313D02*
X611188Y990600D01*
X565150Y1036638D01*
X565150Y1066800D01*
X582613Y1084263D01*
X598488Y1084263D01*
X598600Y1084900D01*
X850900Y336550D02*
X838200Y323850D01*
X836700Y322900D01*
X849800Y337500D02*
X850900Y336550D01*
X695325Y704850D02*
X708025Y717550D01*
X695325Y704850D02*
X693900Y703900D01*
X707000Y718500D02*
X708025Y717550D01*
X746125Y527050D02*
X733425Y514350D01*
X732267Y513398D01*
X693738Y703263D02*
X677863Y703263D01*
X660400Y685800D01*
X660400Y612775D01*
X682625Y590550D01*
X693738Y703263D02*
X693900Y703900D01*
X849313Y488950D02*
X849313Y404813D01*
X849313Y488950D02*
X820738Y517525D01*
X781050Y517525D01*
X771525Y527050D01*
X746125Y527050D01*
X745367Y527998D01*
X646113Y908050D02*
X612775Y908050D01*
X646113Y908050D02*
X665163Y889000D01*
X695325Y889000D01*
X708025Y876300D01*
X708025Y782638D01*
X612775Y908050D02*
X611700Y909000D01*
D17*
X611188Y976313D03*
X682625Y590550D03*
X849313Y404813D03*
X708025Y782638D03*
X3987491Y1365587D03*
D16*
X3986193Y1365587D01*
X3982720Y1369060D01*
X3934460Y1369060D01*
X3919220Y1353820D01*
X3919220Y1328420D01*
X3830325Y1239525D01*
X802200Y1098000D02*
X789100Y1084900D01*
X802200Y1098000D02*
X802200Y1099500D01*
X942225Y1239525D01*
X3830325Y1239525D01*
X803275Y908050D02*
X790575Y895350D01*
X789100Y894400D01*
X801688Y976313D02*
X801688Y990600D01*
X755650Y1036638D01*
X755650Y1066800D01*
X773113Y1084263D01*
X788988Y1084263D01*
X789100Y1084900D01*
X1041400Y336550D02*
X1028700Y323850D01*
X1027200Y322900D01*
X1040300Y337500D02*
X1041400Y336550D01*
X885825Y704850D02*
X898525Y717550D01*
X885825Y704850D02*
X884400Y703900D01*
X897500Y718500D02*
X898525Y717550D01*
X946150Y527050D02*
X933450Y514350D01*
X932000Y513400D01*
X884238Y703263D02*
X868363Y703263D01*
X850900Y685800D01*
X850900Y622300D01*
X882650Y590550D01*
X884238Y703263D02*
X884400Y703900D01*
X1041400Y496888D02*
X1041400Y404813D01*
X1041400Y496888D02*
X1020763Y517525D01*
X981075Y517525D01*
X971550Y527050D01*
X946150Y527050D01*
X945100Y528000D01*
X836613Y908050D02*
X803275Y908050D01*
X836613Y908050D02*
X855663Y889000D01*
X885825Y889000D01*
X898525Y876300D01*
X898525Y782638D01*
X803275Y908050D02*
X802200Y909000D01*
D17*
X801688Y976313D03*
X882650Y590550D03*
X1041400Y404813D03*
X898525Y782638D03*
X3970274Y1360678D03*
D16*
X3936238Y1360678D01*
X3926840Y1351280D01*
X3926840Y1325880D01*
X3835146Y1234186D01*
X1127386Y1234186D01*
X992700Y1098000D02*
X979600Y1084900D01*
X992700Y1098000D02*
X992700Y1099500D01*
X1127386Y1234186D01*
X1255713Y146050D02*
X1243013Y133350D01*
X1241500Y132400D01*
X1254600Y147000D02*
X1255713Y146050D01*
X1219200Y323850D02*
X1231900Y336550D01*
X1219200Y323850D02*
X1217700Y322900D01*
X1230800Y337500D02*
X1231900Y336550D01*
X1184275Y274638D02*
X1254125Y204788D01*
X1184275Y274638D02*
X1184275Y304800D01*
X1201738Y322263D01*
X1217613Y322263D01*
X1217700Y322900D01*
X981075Y895350D02*
X993775Y908050D01*
X981075Y895350D02*
X979600Y894400D01*
X992188Y976313D02*
X992188Y990600D01*
X946150Y1036638D01*
X946150Y1066800D01*
X963613Y1084263D01*
X979488Y1084263D01*
X979600Y1084900D01*
X1136650Y527050D02*
X1123950Y514350D01*
X1122500Y513400D01*
X1076325Y704850D02*
X1089025Y717550D01*
X1076325Y704850D02*
X1074900Y703900D01*
X1088000Y718500D02*
X1089025Y717550D01*
X1068388Y642938D02*
X1068388Y595313D01*
X1068388Y642938D02*
X1041400Y669925D01*
X1041400Y685800D01*
X1058863Y703263D01*
X1074738Y703263D01*
X1074900Y703900D01*
X1027113Y908050D02*
X993775Y908050D01*
X1027113Y908050D02*
X1046163Y889000D01*
X1076325Y889000D01*
X1089025Y876300D01*
X1089025Y782638D01*
X993775Y908050D02*
X992700Y909000D01*
X1231900Y496888D02*
X1231900Y404813D01*
X1231900Y496888D02*
X1211263Y517525D01*
X1171575Y517525D01*
X1162050Y527050D01*
X1136650Y527050D01*
X1135600Y528000D01*
D17*
X1254125Y204788D03*
X992188Y976313D03*
X1068388Y595313D03*
X1089025Y782638D03*
X1231900Y404813D03*
X3970020Y1330960D03*
D16*
X3970020Y1325880D01*
X3872992Y1228852D01*
X1314052Y1228852D01*
X1184806Y1099606D02*
X1170100Y1084900D01*
X1184806Y1099606D02*
X1314052Y1228852D01*
X1184275Y1100138D02*
X1183200Y1099500D01*
X1184275Y1100138D02*
X1184806Y1099606D01*
X1184275Y908050D02*
X1171575Y895350D01*
X1170100Y894400D01*
X1169988Y1084263D02*
X1154113Y1084263D01*
X1136650Y1066800D01*
X1136650Y976313D01*
X1169988Y1084263D02*
X1170100Y1084900D01*
X1422400Y336550D02*
X1409700Y323850D01*
X1408200Y322900D01*
X1421300Y337500D02*
X1422400Y336550D01*
X1266825Y704850D02*
X1279525Y717550D01*
X1266825Y704850D02*
X1265400Y703900D01*
X1278500Y718500D02*
X1279525Y717550D01*
X1327150Y527050D02*
X1314450Y514350D01*
X1313000Y513400D01*
X1265238Y703263D02*
X1249363Y703263D01*
X1231900Y685800D01*
X1231900Y622300D01*
X1263650Y590550D01*
X1265238Y703263D02*
X1265400Y703900D01*
X1422400Y496888D02*
X1422400Y404813D01*
X1422400Y496888D02*
X1401763Y517525D01*
X1362075Y517525D01*
X1352550Y527050D01*
X1327150Y527050D01*
X1326100Y528000D01*
X1217613Y908050D02*
X1184275Y908050D01*
X1217613Y908050D02*
X1236663Y889000D01*
X1266825Y889000D01*
X1279525Y876300D01*
X1279525Y782638D01*
X1184275Y908050D02*
X1183200Y909000D01*
D17*
X1136650Y976313D03*
X1263650Y590550D03*
X1422400Y404813D03*
X1279525Y782638D03*
X3987800Y1327464D03*
D16*
X3984946Y1324610D01*
X3976370Y1324610D01*
X3875532Y1223772D01*
X1497972Y1223772D01*
X1373700Y1098000D02*
X1360600Y1084900D01*
X1373700Y1098000D02*
X1373700Y1099500D01*
X1497972Y1223772D01*
X1374775Y908050D02*
X1362075Y895350D01*
X1360600Y894400D01*
X1373188Y976313D02*
X1373188Y990600D01*
X1327150Y1036638D01*
X1327150Y1066800D01*
X1344613Y1084263D01*
X1360488Y1084263D01*
X1360600Y1084900D01*
X1612900Y336550D02*
X1600200Y323850D01*
X1598700Y322900D01*
X1611800Y337500D02*
X1612900Y336550D01*
X1457325Y704850D02*
X1470025Y717550D01*
X1457325Y704850D02*
X1455900Y703900D01*
X1469000Y718500D02*
X1470025Y717550D01*
X1517650Y527050D02*
X1504950Y514350D01*
X1503500Y513400D01*
X1455738Y703263D02*
X1439863Y703263D01*
X1422400Y685800D01*
X1422400Y622300D01*
X1454150Y590550D01*
X1455738Y703263D02*
X1455900Y703900D01*
X1612900Y496888D02*
X1612900Y404813D01*
X1612900Y496888D02*
X1592263Y517525D01*
X1552575Y517525D01*
X1543050Y527050D01*
X1517650Y527050D01*
X1516600Y528000D01*
X1408113Y908050D02*
X1374775Y908050D01*
X1408113Y908050D02*
X1427163Y889000D01*
X1457325Y889000D01*
X1470025Y876300D01*
X1470025Y782638D01*
X1374775Y908050D02*
X1373700Y909000D01*
D17*
X1373188Y976313D03*
X1454150Y590550D03*
X1612900Y404813D03*
X1470025Y782638D03*
X3987800Y1309288D03*
D16*
X3978066Y1309288D01*
X3883914Y1215136D01*
X1870336Y1215136D01*
X1754700Y1098000D02*
X1741600Y1084900D01*
X1754700Y1098000D02*
X1754700Y1099500D01*
X1870336Y1215136D01*
X1970088Y146050D02*
X1957388Y133350D01*
X1955900Y132400D01*
X1969000Y147000D02*
X1970088Y146050D01*
X1981200Y323850D02*
X1993900Y336550D01*
X1981200Y323850D02*
X1979700Y322900D01*
X1992800Y337500D02*
X1993900Y336550D01*
X1968500Y266700D02*
X1968500Y211138D01*
X1968500Y266700D02*
X1946275Y288925D01*
X1946275Y304800D01*
X1963738Y322263D01*
X1979613Y322263D01*
X1979700Y322900D01*
X1743075Y895350D02*
X1755775Y908050D01*
X1743075Y895350D02*
X1741600Y894400D01*
X1754188Y976313D02*
X1754188Y990600D01*
X1708150Y1036638D01*
X1708150Y1066800D01*
X1725613Y1084263D01*
X1741488Y1084263D01*
X1741600Y1084900D01*
X1898650Y527050D02*
X1885950Y514350D01*
X1884500Y513400D01*
X1838325Y704850D02*
X1851025Y717550D01*
X1838325Y704850D02*
X1836900Y703900D01*
X1850000Y718500D02*
X1851025Y717550D01*
X1830388Y642938D02*
X1830388Y595313D01*
X1830388Y642938D02*
X1803400Y669925D01*
X1803400Y685800D01*
X1820863Y703263D01*
X1836738Y703263D01*
X1836900Y703900D01*
X1789113Y908050D02*
X1755775Y908050D01*
X1789113Y908050D02*
X1808163Y889000D01*
X1838325Y889000D01*
X1851025Y876300D01*
X1851025Y782638D01*
X1755775Y908050D02*
X1754700Y909000D01*
X1993900Y496888D02*
X1993900Y404813D01*
X1993900Y496888D02*
X1973263Y517525D01*
X1933575Y517525D01*
X1924050Y527050D01*
X1898650Y527050D01*
X1897600Y528000D01*
D17*
X1968500Y211138D03*
X1754188Y976313D03*
X1830388Y595313D03*
X1851025Y782638D03*
X1993900Y404813D03*
X3987800Y1300200D03*
D16*
X3976852Y1300200D01*
X3887470Y1210818D01*
X2056518Y1210818D01*
X1945200Y1098000D02*
X1932100Y1084900D01*
X1945200Y1098000D02*
X1945200Y1099500D01*
X2056518Y1210818D01*
X2208213Y146050D02*
X2195513Y133350D01*
X2194000Y132400D01*
X2207100Y147000D02*
X2208213Y146050D01*
X2171700Y323850D02*
X2184400Y336550D01*
X2171700Y323850D02*
X2170200Y322900D01*
X2183300Y337500D02*
X2184400Y336550D01*
X2136775Y274638D02*
X2206625Y204788D01*
X2136775Y274638D02*
X2136775Y304800D01*
X2154238Y322263D01*
X2170113Y322263D01*
X2170200Y322900D01*
X1933575Y895350D02*
X1946275Y908050D01*
X1933575Y895350D02*
X1932100Y894400D01*
X1944688Y976313D02*
X1944688Y990600D01*
X1898650Y1036638D01*
X1898650Y1066800D01*
X1916113Y1084263D01*
X1931988Y1084263D01*
X1932100Y1084900D01*
X2089150Y527050D02*
X2076450Y514350D01*
X2075000Y513400D01*
X2028825Y704850D02*
X2041525Y717550D01*
X2028825Y704850D02*
X2027400Y703900D01*
X2040500Y718500D02*
X2041525Y717550D01*
X2020888Y642938D02*
X2020888Y595313D01*
X2020888Y642938D02*
X1993900Y669925D01*
X1993900Y685800D01*
X2011363Y703263D01*
X2027238Y703263D01*
X2027400Y703900D01*
X1979613Y908050D02*
X1946275Y908050D01*
X1979613Y908050D02*
X1998663Y889000D01*
X2028825Y889000D01*
X2041525Y876300D01*
X2041525Y782638D01*
X1946275Y908050D02*
X1945200Y909000D01*
X2184400Y496888D02*
X2184400Y404813D01*
X2184400Y496888D02*
X2163763Y517525D01*
X2124075Y517525D01*
X2114550Y527050D01*
X2089150Y527050D01*
X2088100Y528000D01*
D17*
X2206625Y204788D03*
X1944688Y976313D03*
X2020888Y595313D03*
X2041525Y782638D03*
X2184400Y404813D03*
X3987800Y1291112D03*
D16*
X3976807Y1291112D01*
X3892195Y1206500D01*
X2242700Y1206500D01*
X2122600Y1086400D02*
X2122600Y1084900D01*
X2122600Y1086400D02*
X2135700Y1099500D01*
X2242700Y1206500D01*
X2136775Y914400D02*
X2124075Y901700D01*
X2122600Y900400D01*
X2135188Y976313D02*
X2135188Y990600D01*
X2089150Y1036638D01*
X2089150Y1066800D01*
X2106613Y1084263D01*
X2122488Y1084263D01*
X2122600Y1084900D01*
X2446338Y146050D02*
X2433638Y133350D01*
X2432200Y132400D01*
X2445300Y147000D02*
X2446338Y146050D01*
X2219325Y704850D02*
X2232025Y717550D01*
X2219325Y704850D02*
X2217900Y703900D01*
X2231000Y718500D02*
X2232025Y717550D01*
X2279650Y527050D02*
X2266950Y514350D01*
X2265500Y513400D01*
X2278600Y528000D02*
X2279650Y527050D01*
X2217738Y703263D02*
X2201863Y703263D01*
X2184400Y685800D01*
X2184400Y622300D01*
X2216150Y590550D01*
X2217738Y703263D02*
X2217900Y703900D01*
X2354263Y342900D02*
X2354263Y211138D01*
X2292350Y404813D02*
X2232025Y465138D01*
X2232025Y495300D01*
X2249488Y512763D01*
X2265363Y512763D01*
X2265500Y513400D01*
X2168525Y914400D02*
X2136775Y914400D01*
X2168525Y914400D02*
X2187575Y895350D01*
X2219325Y895350D01*
X2232025Y882650D01*
X2232025Y782638D01*
X2136775Y914400D02*
X2135700Y915000D01*
D17*
X2135188Y976313D03*
X2216150Y590550D03*
X2354263Y211138D03*
X2354263Y342900D03*
X2292350Y404813D03*
X2232025Y782638D03*
X3987800Y1282024D03*
D16*
X3976507Y1282024D01*
X3896975Y1202492D01*
X2429192Y1202492D01*
X2326200Y1098000D02*
X2313100Y1084900D01*
X2326200Y1098000D02*
X2326200Y1099500D01*
X2429192Y1202492D01*
X2422525Y717550D02*
X2409825Y704850D01*
X2408400Y703900D01*
X2421500Y718500D02*
X2422525Y717550D01*
X2314575Y895350D02*
X2327275Y908050D01*
X2314575Y895350D02*
X2313100Y894400D01*
X2325688Y976313D02*
X2325688Y990600D01*
X2279650Y1036638D01*
X2279650Y1066800D01*
X2297113Y1084263D01*
X2312988Y1084263D01*
X2313100Y1084900D01*
X2422525Y876300D02*
X2422525Y785813D01*
X2422525Y876300D02*
X2400300Y898525D01*
X2362200Y898525D01*
X2352675Y908050D01*
X2327275Y908050D01*
X2326200Y909000D01*
D17*
X2325688Y976313D03*
X2422525Y785813D03*
X3987800Y1263848D03*
D16*
X3976670Y1263848D01*
X3907298Y1194476D01*
X2802176Y1194476D01*
X2707200Y1098000D02*
X2694100Y1084900D01*
X2707200Y1098000D02*
X2707200Y1099500D01*
X2802176Y1194476D01*
X2613025Y908050D02*
X2600325Y895350D01*
X2598900Y894400D01*
X2612000Y909000D02*
X2613025Y908050D01*
X2613025Y976313D02*
X2613025Y1019175D01*
X2678113Y1084263D01*
X2693988Y1084263D01*
X2694100Y1084900D01*
X2660650Y717550D02*
X2647950Y704850D01*
X2646500Y703900D01*
X2659600Y718500D02*
X2660650Y717550D01*
X2684463Y146050D02*
X2671763Y133350D01*
X2670300Y132400D01*
X2683400Y147000D02*
X2684463Y146050D01*
X2525713Y514350D02*
X2538413Y527050D01*
X2525713Y514350D02*
X2524860Y513400D01*
X2538413Y527050D02*
X2537960Y528000D01*
X2541588Y336550D02*
X2528888Y323850D01*
X2527400Y322900D01*
X2540500Y337500D02*
X2541588Y336550D01*
X2524125Y512763D02*
X2508250Y512763D01*
X2492375Y496888D01*
X2492375Y385763D01*
X2524125Y512763D02*
X2524860Y513400D01*
X2557463Y211138D02*
X2592388Y211138D01*
X2557463Y211138D02*
X2493963Y274638D01*
X2493963Y304800D01*
X2511425Y322263D01*
X2527300Y322263D01*
X2527400Y322900D01*
X2630488Y703263D02*
X2646363Y703263D01*
X2630488Y703263D02*
X2600325Y673100D01*
X2600325Y590550D01*
X2646363Y703263D02*
X2646500Y703900D01*
X2598738Y893763D02*
X2568575Y893763D01*
X2460625Y785813D01*
X2598738Y893763D02*
X2598900Y894400D01*
D17*
X2613025Y976313D03*
X2492375Y385763D03*
X2592388Y211138D03*
X2600325Y590550D03*
X2460625Y785813D03*
X3987800Y1254760D03*
D16*
X3977640Y1254760D01*
X3913348Y1190468D01*
X2945300Y1098000D02*
X2932200Y1084900D01*
X2945300Y1098000D02*
X2945300Y1099500D01*
X3036268Y1190468D01*
X3913348Y1190468D01*
X2946400Y908050D02*
X2933700Y895350D01*
X2932200Y894400D01*
X2945300Y909000D02*
X2946400Y908050D01*
X2946400Y146050D02*
X2933700Y133350D01*
X2932200Y132400D01*
X2945300Y147000D02*
X2946400Y146050D01*
X2933700Y704850D02*
X2946400Y717550D01*
X2933700Y704850D02*
X2932200Y703900D01*
X2945300Y718500D02*
X2946400Y717550D01*
X2944813Y381000D02*
X2944813Y214313D01*
X2944813Y401638D02*
X2944813Y573088D01*
X2944813Y595313D02*
X2944813Y609600D01*
X2898775Y655638D01*
X2898775Y685800D01*
X2916238Y703263D01*
X2932113Y703263D01*
X2932200Y703900D01*
X2932113Y893763D02*
X2916238Y893763D01*
X2898775Y876300D01*
X2898775Y782638D01*
X2932113Y893763D02*
X2932200Y894400D01*
X2944813Y976313D02*
X2944813Y990600D01*
X2898775Y1036638D01*
X2898775Y1066800D01*
X2916238Y1084263D01*
X2932113Y1084263D01*
X2932200Y1084900D01*
D17*
X2944813Y214313D03*
X2944813Y381000D03*
X2944813Y401638D03*
X2944813Y573088D03*
X2944813Y595313D03*
X2898775Y782638D03*
X2944813Y976313D03*
X4015740Y1226820D03*
D16*
X4015740Y1203960D01*
X3997960Y1186180D01*
X3222480Y1186180D02*
X3135800Y1099500D01*
X3222480Y1186180D02*
X3997960Y1186180D01*
X3135800Y1099500D02*
X3135800Y1098000D01*
X3122700Y1084900D01*
X3136900Y146050D02*
X3124200Y133350D01*
X3122700Y132400D01*
X3135800Y147000D02*
X3136900Y146050D01*
X3124200Y323850D02*
X3136900Y336550D01*
X3124200Y323850D02*
X3122700Y322900D01*
X3135800Y337500D02*
X3136900Y336550D01*
X3135313Y228600D02*
X3135313Y214313D01*
X3135313Y228600D02*
X3089275Y274638D01*
X3089275Y304800D01*
X3106738Y322263D01*
X3122613Y322263D01*
X3122700Y322900D01*
X3124200Y704850D02*
X3136900Y717550D01*
X3124200Y704850D02*
X3122700Y703900D01*
X3135800Y718500D02*
X3136900Y717550D01*
X3124200Y895350D02*
X3136900Y908050D01*
X3124200Y895350D02*
X3122700Y894400D01*
X3135800Y909000D02*
X3136900Y908050D01*
X3135313Y800100D02*
X3135313Y785813D01*
X3135313Y800100D02*
X3089275Y846138D01*
X3089275Y876300D01*
X3106738Y893763D01*
X3122613Y893763D01*
X3122700Y894400D01*
X3135313Y573088D02*
X3135313Y401638D01*
X3135313Y595313D02*
X3135313Y609600D01*
X3089275Y655638D01*
X3089275Y685800D01*
X3106738Y703263D01*
X3122613Y703263D01*
X3122700Y703900D01*
X3135313Y976313D02*
X3135313Y990600D01*
X3089275Y1036638D01*
X3089275Y1066800D01*
X3106738Y1084263D01*
X3122613Y1084263D01*
X3122700Y1084900D01*
D17*
X3135313Y214313D03*
X3135313Y785813D03*
X3135313Y401638D03*
X3135313Y573088D03*
X3135313Y595313D03*
X3135313Y976313D03*
D16*
X3313200Y1084900D02*
X3326300Y1098000D01*
X3326300Y1099500D01*
D17*
X4025900Y1226820D03*
D16*
X4025900Y1198880D01*
X4008120Y1181100D01*
X3406140Y1181100D01*
X3332480Y1105680D02*
X3326300Y1099500D01*
X3332480Y1105680D02*
X3332480Y1107440D01*
X3406140Y1181100D01*
X3327400Y908050D02*
X3314700Y895350D01*
X3313200Y894400D01*
X3326300Y909000D02*
X3327400Y908050D01*
X3327400Y146050D02*
X3314700Y133350D01*
X3313200Y132400D01*
X3326300Y147000D02*
X3327400Y146050D01*
X3314700Y704850D02*
X3327400Y717550D01*
X3314700Y704850D02*
X3313200Y703900D01*
X3326300Y718500D02*
X3327400Y717550D01*
X3325813Y381000D02*
X3325813Y214313D01*
X3325813Y401638D02*
X3325813Y573088D01*
X3325813Y595313D02*
X3325813Y609600D01*
X3279775Y655638D01*
X3279775Y685800D01*
X3297238Y703263D01*
X3313113Y703263D01*
X3313200Y703900D01*
X3313113Y893763D02*
X3297238Y893763D01*
X3279775Y876300D01*
X3279775Y782638D01*
X3313113Y893763D02*
X3313200Y894400D01*
X3325813Y976313D02*
X3325813Y990600D01*
X3279775Y1036638D01*
X3279775Y1066800D01*
X3297238Y1084263D01*
X3313113Y1084263D01*
X3313200Y1084900D01*
D17*
X3325813Y214313D03*
X3325813Y381000D03*
X3325813Y401638D03*
X3325813Y573088D03*
X3325813Y595313D03*
X3279775Y782638D03*
X3325813Y976313D03*
D16*
X3551400Y1084900D02*
X3564500Y1098000D01*
X3564500Y1099500D01*
X3641020Y1176020D01*
X4015740Y1176020D02*
X4037076Y1197356D01*
X4037076Y1226764D02*
X4037132Y1226820D01*
X4037076Y1226764D02*
X4037076Y1197356D01*
D17*
X4037132Y1226820D03*
D16*
X4015740Y1176020D02*
X3641020Y1176020D01*
X3565525Y908050D02*
X3552825Y895350D01*
X3551400Y894400D01*
X3564500Y909000D02*
X3565525Y908050D01*
X3565525Y717550D02*
X3552825Y704850D01*
X3551400Y703900D01*
X3564500Y718500D02*
X3565525Y717550D01*
X3660775Y146050D02*
X3648075Y133350D01*
X3646600Y132400D01*
X3659700Y147000D02*
X3660775Y146050D01*
X3552825Y323850D02*
X3565525Y336550D01*
X3552825Y323850D02*
X3551400Y322900D01*
X3552825Y514350D02*
X3565525Y527050D01*
X3552825Y514350D02*
X3551400Y513400D01*
X3564500Y528000D02*
X3565525Y527050D01*
X3563938Y419100D02*
X3563938Y401638D01*
X3563938Y419100D02*
X3517900Y465138D01*
X3517900Y495300D01*
X3535363Y512763D01*
X3551238Y512763D01*
X3551400Y513400D01*
X3660775Y306388D02*
X3660775Y214313D01*
X3660775Y306388D02*
X3640138Y327025D01*
X3600450Y327025D01*
X3590925Y336550D01*
X3565525Y336550D01*
X3564500Y337500D01*
X3551238Y703263D02*
X3535363Y703263D01*
X3517900Y685800D01*
X3517900Y590550D01*
X3551238Y703263D02*
X3551400Y703900D01*
X3551238Y893763D02*
X3535363Y893763D01*
X3517900Y876300D01*
X3517900Y782638D01*
X3551238Y893763D02*
X3551400Y894400D01*
X3551238Y1084263D02*
X3535363Y1084263D01*
X3517900Y1066800D01*
X3517900Y976313D01*
X3551238Y1084263D02*
X3551400Y1084900D01*
D17*
X3563938Y401638D03*
X3660775Y214313D03*
X3517900Y590550D03*
X3517900Y782638D03*
X3517900Y976313D03*
D16*
X3741900Y1084900D02*
X3755000Y1098000D01*
X3755000Y1099500D01*
X3826440Y1170940D01*
X4023360Y1170940D01*
X4046220Y1193800D01*
X4046220Y1226820D01*
D17*
X4046220Y1226820D03*
D16*
X3756025Y908050D02*
X3743325Y895350D01*
X3741900Y894400D01*
X3755000Y909000D02*
X3756025Y908050D01*
X3756025Y717550D02*
X3743325Y704850D01*
X3741900Y703900D01*
X3755000Y718500D02*
X3756025Y717550D01*
X3756025Y336550D02*
X3743325Y323850D01*
X3741900Y322900D01*
X3755000Y337500D02*
X3756025Y336550D01*
X3743325Y514350D02*
X3756025Y527050D01*
X3743325Y514350D02*
X3741900Y513400D01*
X3755000Y528000D02*
X3756025Y527050D01*
X3754438Y419100D02*
X3754438Y401638D01*
X3754438Y419100D02*
X3708400Y465138D01*
X3708400Y495300D01*
X3725863Y512763D01*
X3741738Y512763D01*
X3741900Y513400D01*
X3741738Y703263D02*
X3725863Y703263D01*
X3708400Y685800D01*
X3708400Y590550D01*
X3741738Y703263D02*
X3741900Y703900D01*
X3741738Y893763D02*
X3725863Y893763D01*
X3708400Y876300D01*
X3708400Y782638D01*
X3741738Y893763D02*
X3741900Y894400D01*
X3741738Y1084263D02*
X3725863Y1084263D01*
X3708400Y1066800D01*
X3708400Y976313D01*
X3741738Y1084263D02*
X3741900Y1084900D01*
D17*
X3754438Y401638D03*
X3708400Y590550D03*
X3708400Y782638D03*
X3708400Y976313D03*
D16*
X3932400Y1084900D02*
X3932400Y1086400D01*
X3945500Y1099500D01*
X4011860Y1165860D01*
X4028440Y1165860D01*
X4056380Y1193800D01*
X4056380Y1226820D01*
D17*
X4056380Y1226820D03*
D16*
X3946525Y908050D02*
X3933825Y895350D01*
X3932400Y894400D01*
X3945500Y909000D02*
X3946525Y908050D01*
X3946525Y717550D02*
X3933825Y704850D01*
X3932400Y703900D01*
X3945500Y718500D02*
X3946525Y717550D01*
X3946525Y527050D02*
X3933825Y514350D01*
X3932400Y513400D01*
X3945500Y528000D02*
X3946525Y527050D01*
X3946525Y146050D02*
X3933825Y133350D01*
X3932400Y132400D01*
X3945500Y147000D02*
X3946525Y146050D01*
X3933825Y323850D02*
X3946525Y336550D01*
X3933825Y323850D02*
X3932400Y322900D01*
X3945500Y337500D02*
X3946525Y336550D01*
X3944938Y228600D02*
X3944938Y214313D01*
X3944938Y228600D02*
X3898900Y274638D01*
X3898900Y304800D01*
X3916363Y322263D01*
X3932238Y322263D01*
X3932400Y322900D01*
X3932238Y512763D02*
X3916363Y512763D01*
X3898900Y495300D01*
X3898900Y396875D01*
X3932238Y512763D02*
X3932400Y513400D01*
X3932238Y703263D02*
X3916363Y703263D01*
X3898900Y685800D01*
X3898900Y590550D01*
X3932238Y703263D02*
X3932400Y703900D01*
X3932238Y893763D02*
X3916363Y893763D01*
X3898900Y876300D01*
X3898900Y782638D01*
X3932238Y893763D02*
X3932400Y894400D01*
X3932238Y1084263D02*
X3916363Y1084263D01*
X3898900Y1066800D01*
X3898900Y976313D01*
X3932238Y1084263D02*
X3932400Y1084900D01*
D17*
X3944938Y214313D03*
X3898900Y396875D03*
X3898900Y590550D03*
X3898900Y782638D03*
X3898900Y976313D03*
D16*
X4314825Y895350D02*
X4327525Y908050D01*
X4314825Y895350D02*
X4313400Y894400D01*
X4326500Y909000D02*
X4327525Y908050D01*
X4240213Y1154113D02*
X4100513Y1154113D01*
X4276725Y1117600D02*
X4308475Y1085850D01*
X4276725Y1117600D02*
X4240213Y1154113D01*
X4308475Y1085850D02*
X4309900Y1084900D01*
X4310063Y1085850D02*
X4322763Y1098550D01*
X4323000Y1099500D01*
X4310063Y1085850D02*
X4309900Y1084900D01*
X4327525Y965200D02*
X4327525Y909638D01*
X4327525Y965200D02*
X4329113Y966788D01*
X4329113Y984250D01*
X4276725Y1036638D01*
X4276725Y1117600D01*
X4327525Y909638D02*
X4326500Y909000D01*
X4327525Y717550D02*
X4314825Y704850D01*
X4313400Y703900D01*
X4326500Y718500D02*
X4327525Y717550D01*
X4327525Y527050D02*
X4321175Y520700D01*
X4314825Y514350D01*
X4313400Y513400D01*
X4326500Y528000D02*
X4327525Y527050D01*
X4327525Y146050D02*
X4314825Y133350D01*
X4313400Y132400D01*
X4326500Y147000D02*
X4327525Y146050D01*
X4321175Y330200D02*
X4327525Y336550D01*
X4321175Y330200D02*
X4314825Y323850D01*
X4313400Y322900D01*
X4326500Y337500D02*
X4327525Y336550D01*
X4325938Y228600D02*
X4325938Y147638D01*
X4325938Y228600D02*
X4305300Y249238D01*
X4305300Y263525D01*
X4279900Y288925D01*
X4279900Y304800D01*
X4297363Y322263D01*
X4313238Y322263D01*
X4325938Y147638D02*
X4326500Y147000D01*
X4313238Y322263D02*
X4313400Y322900D01*
X4313238Y512763D02*
X4297363Y512763D01*
X4279900Y495300D01*
X4279900Y479425D01*
X4305300Y454025D01*
X4313238Y454025D01*
X4321175Y446088D01*
X4321175Y330200D01*
X4313238Y512763D02*
X4313400Y513400D01*
X4321175Y330200D02*
X4313400Y322900D01*
X4313238Y703263D02*
X4297363Y703263D01*
X4279900Y685800D01*
X4279900Y669925D01*
X4302125Y647700D01*
X4306888Y647700D01*
X4321175Y633413D01*
X4321175Y520700D01*
X4313238Y703263D02*
X4313400Y703900D01*
X4321175Y520700D02*
X4313400Y513400D01*
X4313238Y893763D02*
X4297363Y893763D01*
X4279900Y876300D01*
X4279900Y842963D01*
X4346575Y776288D01*
X4346575Y738188D01*
X4327525Y719138D01*
X4313238Y893763D02*
X4313400Y894400D01*
X4327525Y719138D02*
X4326500Y718500D01*
D17*
X4100513Y1154113D03*
D16*
X4137025Y242888D02*
X4122738Y228600D01*
X4122420Y228600D01*
X4135520Y243200D02*
X4137025Y242888D01*
X4122738Y609600D02*
X4137025Y623888D01*
X4122738Y609600D02*
X4122420Y609600D01*
X4135520Y624200D02*
X4137025Y623888D01*
X4135438Y381000D02*
X4135438Y312738D01*
X4135438Y401638D02*
X4135438Y514350D01*
X4089400Y560388D01*
X4089400Y592138D01*
X4106863Y609600D01*
X4122420Y609600D01*
X4124325Y895350D02*
X4137025Y908050D01*
X4124325Y895350D02*
X4122900Y894400D01*
X4136000Y909000D02*
X4137025Y908050D01*
X4130675Y1085850D02*
X4098925Y1117600D01*
X4062413Y1154113D01*
X4130675Y1085850D02*
X4131900Y1084900D01*
X4132263Y1085850D02*
X4144963Y1098550D01*
X4145000Y1099500D01*
X4132263Y1085850D02*
X4131900Y1084900D01*
X4135438Y1014413D02*
X4135438Y976313D01*
X4135438Y1014413D02*
X4098925Y1050925D01*
X4098925Y1117600D01*
X4140200Y766763D02*
X4140200Y665163D01*
X4140200Y785813D02*
X4140200Y795338D01*
X4089400Y846138D01*
X4089400Y876300D01*
X4106863Y893763D01*
X4122738Y893763D01*
X4122900Y894400D01*
D17*
X4135438Y312738D03*
X4135438Y381000D03*
X4135438Y401638D03*
X4062413Y1154113D03*
X4135438Y976313D03*
X4140200Y665163D03*
X4140200Y766763D03*
X4140200Y785813D03*
X3987800Y1272936D03*
D16*
X3976969Y1272936D01*
X3902517Y1198484D01*
X2516700Y1098000D02*
X2503600Y1084900D01*
X2516700Y1098000D02*
X2516700Y1099500D01*
X2615684Y1198484D01*
X3902517Y1198484D01*
X-180975Y817563D02*
X-212725Y849313D01*
D17*
X-180975Y817563D03*
X-212725Y849313D03*
D16*
X4024313Y639763D02*
X4068763Y595313D01*
D17*
X4024313Y639763D03*
X4068763Y595313D03*
D16*
X4221163Y517525D02*
X4314825Y611188D01*
D17*
X4221163Y517525D03*
X4314825Y611188D03*
D16*
X-176213Y625475D02*
X-212725Y661988D01*
D17*
X-176213Y625475D03*
X-212725Y661988D03*
D16*
X-212725Y468313D02*
X-180975Y436563D01*
D17*
X-180975Y436563D03*
X-212725Y468313D03*
D16*
X2516188Y261938D02*
X2532063Y246063D01*
D17*
X2532063Y246063D03*
X2516188Y261938D03*
D16*
X3189288Y233363D02*
X3319463Y233363D01*
D17*
X3189288Y233363D03*
X3319463Y233363D03*
D16*
X-177800Y246063D02*
X-212725Y280988D01*
D17*
X-177800Y246063D03*
X-212725Y280988D03*
D16*
X4025900Y258763D02*
X4062413Y222250D01*
D17*
X4025900Y258763D03*
X4062413Y222250D03*
D16*
X4140200Y136525D02*
X4221163Y136525D01*
X4314825Y230188D01*
D17*
X4140200Y136525D03*
X4314825Y230188D03*
D16*
X1744663Y42863D02*
X1314450Y42863D01*
X1744663Y42863D02*
X1763713Y61913D01*
X1954213Y61913D01*
D17*
X1314450Y42863D03*
X1954213Y61913D03*
D16*
X2589213Y533400D02*
X2589213Y538163D01*
X2588360Y538800D01*
X2589213Y533400D02*
X2587960Y533000D01*
D17*
X4338320Y1371600D03*
D16*
X4196080Y1371600D01*
X4180840Y1386840D02*
X4180840Y1391920D01*
X4177046Y1395714D01*
X4157456Y1400064D02*
X4157456Y1411587D01*
X4144373Y1424670D01*
X4137930Y1424670D01*
X4132580Y1430020D01*
X4117340Y1430020D01*
X4114800Y1427480D01*
D17*
X4114800Y1427480D03*
D16*
X4180840Y1386840D02*
X4196080Y1371600D01*
X4177046Y1395714D02*
X4161806Y1395714D01*
X4157456Y1400064D01*
D17*
X4439920Y1366520D03*
X4485640Y1432560D03*
D16*
X4485640Y1404620D01*
X4447540Y1366520D01*
X4439920Y1366520D01*
X4189413Y631825D02*
X4187825Y631825D01*
X4189413Y631825D02*
X4271963Y631825D01*
X4187825Y631825D02*
X4186238Y630238D01*
X4185520Y629200D01*
X4189413Y631825D02*
X4186238Y635000D01*
X4185920Y635000D01*
X4189413Y631825D02*
X4185520Y629200D01*
D17*
X4271963Y631825D03*
D16*
X4273550Y246063D02*
X4187825Y246063D01*
X4186238Y247650D01*
X4185520Y248200D01*
X4186238Y249238D02*
X4186238Y254000D01*
X4185920Y254000D01*
X4186238Y249238D02*
X4185520Y248200D01*
D17*
X4273550Y246063D03*
X3987800Y1318376D03*
D16*
X3977756Y1318376D01*
X3878580Y1219200D01*
X1683900Y1219200D01*
X1564200Y1098000D02*
X1551100Y1084900D01*
X1564200Y1098000D02*
X1564200Y1099500D01*
X1683900Y1219200D01*
X1565275Y908050D02*
X1552575Y895350D01*
X1551100Y894400D01*
X1563688Y976313D02*
X1563688Y990600D01*
X1517650Y1036638D01*
X1517650Y1066800D01*
X1535113Y1084263D01*
X1550988Y1084263D01*
X1551100Y1084900D01*
X1803400Y336550D02*
X1790700Y323850D01*
X1789200Y322900D01*
X1802300Y337500D02*
X1803400Y336550D01*
X1647825Y704850D02*
X1660525Y717550D01*
X1647825Y704850D02*
X1646400Y703900D01*
X1659500Y718500D02*
X1660525Y717550D01*
X1708150Y527050D02*
X1695450Y514350D01*
X1694000Y513400D01*
X1646238Y703263D02*
X1630363Y703263D01*
X1612900Y685800D01*
X1612900Y622300D01*
X1644650Y590550D01*
X1646238Y703263D02*
X1646400Y703900D01*
X1803400Y496888D02*
X1803400Y404813D01*
X1803400Y496888D02*
X1782763Y517525D01*
X1743075Y517525D01*
X1733550Y527050D01*
X1708150Y527050D01*
X1707100Y528000D01*
X1598613Y908050D02*
X1565275Y908050D01*
X1598613Y908050D02*
X1617663Y889000D01*
X1647825Y889000D01*
X1660525Y876300D01*
X1660525Y782638D01*
X1565275Y908050D02*
X1564200Y909000D01*
D17*
X1563688Y976313D03*
X1644650Y590550D03*
X1803400Y404813D03*
X1660525Y782638D03*
M02*
