G04 EAGLE Gerber RS-274X export*
G75*
%MOMM*%
%FSLAX34Y34*%
%LPD*%
%INBottom Copper*%
%IPPOS*%
%AMOC8*
5,1,8,0,0,1.08239X$1,22.5*%
G01*
%ADD10C,2.540000*%
%ADD11R,1.000000X0.750000*%
%ADD12R,1.220000X0.910000*%
%ADD13R,1.500000X1.300000*%
%ADD14R,1.300000X1.500000*%
%ADD15P,1.649562X8X292.500000*%
%ADD16C,2.247900*%
%ADD17R,1.600000X1.300000*%
%ADD18R,1.300000X1.600000*%
%ADD19R,1.200000X1.100000*%
%ADD20R,0.558800X1.193800*%
%ADD21R,1.193800X0.558800*%
%ADD22R,0.800000X0.300000*%
%ADD23C,1.100000*%
%ADD24C,1.008000*%
%ADD25C,0.858000*%
%ADD26C,0.200000*%
%ADD27C,0.254000*%
%ADD28C,0.406400*%
%ADD29C,0.304800*%
%ADD30C,0.756400*%
%ADD31C,0.152400*%


D10*
X1932100Y894400D03*
X1995600Y919800D03*
X1945200Y909000D03*
X1995200Y914000D03*
D11*
X1991200Y831250D03*
X1949200Y831250D03*
X1949200Y816750D03*
X1991200Y816750D03*
D10*
X217600Y894400D03*
X281100Y919800D03*
X230700Y909000D03*
X280700Y914000D03*
D11*
X276700Y831250D03*
X234700Y831250D03*
X234700Y816750D03*
X276700Y816750D03*
D10*
X408100Y894400D03*
X471600Y919800D03*
X421200Y909000D03*
X471200Y914000D03*
D11*
X467200Y831250D03*
X425200Y831250D03*
X425200Y816750D03*
X467200Y816750D03*
D10*
X598600Y894400D03*
X662100Y919800D03*
X611700Y909000D03*
X661700Y914000D03*
D11*
X657700Y831250D03*
X615700Y831250D03*
X615700Y816750D03*
X657700Y816750D03*
D10*
X789100Y894400D03*
X852600Y919800D03*
X802200Y909000D03*
X852200Y914000D03*
D11*
X848200Y831250D03*
X806200Y831250D03*
X806200Y816750D03*
X848200Y816750D03*
D10*
X979600Y894400D03*
X1043100Y919800D03*
X992700Y909000D03*
X1042700Y914000D03*
D11*
X1038700Y831250D03*
X996700Y831250D03*
X996700Y816750D03*
X1038700Y816750D03*
D10*
X1170100Y894400D03*
X1233600Y919800D03*
X1183200Y909000D03*
X1233200Y914000D03*
D11*
X1229200Y831250D03*
X1187200Y831250D03*
X1187200Y816750D03*
X1229200Y816750D03*
D10*
X1360600Y894400D03*
X1424100Y919800D03*
X1373700Y909000D03*
X1423700Y914000D03*
D11*
X1419700Y831250D03*
X1377700Y831250D03*
X1377700Y816750D03*
X1419700Y816750D03*
D10*
X1551100Y894400D03*
X1614600Y919800D03*
X1564200Y909000D03*
X1614200Y914000D03*
D11*
X1610200Y831250D03*
X1568200Y831250D03*
X1568200Y816750D03*
X1610200Y816750D03*
D10*
X1741600Y894400D03*
X1805100Y919800D03*
X1754700Y909000D03*
X1804700Y914000D03*
D11*
X1800700Y831250D03*
X1758700Y831250D03*
X1758700Y816750D03*
X1800700Y816750D03*
D10*
X360500Y513400D03*
X424000Y538800D03*
X373600Y528000D03*
X423600Y533000D03*
D11*
X419600Y450250D03*
X377600Y450250D03*
X377600Y435750D03*
X419600Y435750D03*
D10*
X527200Y132400D03*
X590700Y157800D03*
X540300Y147000D03*
X590300Y152000D03*
D11*
X586300Y69250D03*
X544300Y69250D03*
X544300Y54750D03*
X586300Y54750D03*
D10*
X1955900Y132400D03*
X2019400Y157800D03*
X1969000Y147000D03*
X2019000Y152000D03*
D11*
X2015000Y69250D03*
X1973000Y69250D03*
X1973000Y54750D03*
X2015000Y54750D03*
D10*
X1217700Y322900D03*
X1281200Y348300D03*
X1230800Y337500D03*
X1280800Y342500D03*
D11*
X1276800Y259750D03*
X1234800Y259750D03*
X1234800Y245250D03*
X1276800Y245250D03*
D10*
X2646500Y703900D03*
X2710000Y729300D03*
X2659600Y718500D03*
X2709600Y723500D03*
D11*
X2705600Y640750D03*
X2663600Y640750D03*
X2663600Y626250D03*
X2705600Y626250D03*
D10*
X3551400Y1084900D03*
X3614900Y1110300D03*
X3564500Y1099500D03*
X3614500Y1104500D03*
D11*
X3610500Y1021750D03*
X3568500Y1021750D03*
X3568500Y1007250D03*
X3610500Y1007250D03*
D10*
X2598900Y894400D03*
X2662400Y919800D03*
X2612000Y909000D03*
X2662000Y914000D03*
D11*
X2658000Y831250D03*
X2616000Y831250D03*
X2616000Y816750D03*
X2658000Y816750D03*
D10*
X4313400Y132400D03*
X4376900Y157800D03*
X4326500Y147000D03*
X4376500Y152000D03*
D11*
X4372500Y69250D03*
X4330500Y69250D03*
X4330500Y54750D03*
X4372500Y54750D03*
D10*
X836700Y322900D03*
X900200Y348300D03*
X849800Y337500D03*
X899800Y342500D03*
D11*
X895800Y259750D03*
X853800Y259750D03*
X853800Y245250D03*
X895800Y245250D03*
D10*
X98500Y513400D03*
X162000Y538800D03*
X111600Y528000D03*
X161600Y533000D03*
D11*
X157600Y450250D03*
X115600Y450250D03*
X115600Y435750D03*
X157600Y435750D03*
D10*
X1789200Y322900D03*
X1852700Y348300D03*
X1802300Y337500D03*
X1852300Y342500D03*
D11*
X1848300Y259750D03*
X1806300Y259750D03*
X1806300Y245250D03*
X1848300Y245250D03*
D10*
X50900Y132400D03*
X114400Y157800D03*
X64000Y147000D03*
X114000Y152000D03*
D11*
X110000Y69250D03*
X68000Y69250D03*
X68000Y54750D03*
X110000Y54750D03*
D10*
X2670300Y132400D03*
X2733800Y157800D03*
X2683400Y147000D03*
X2733400Y152000D03*
D11*
X2729400Y69250D03*
X2687400Y69250D03*
X2687400Y54750D03*
X2729400Y54750D03*
D10*
X732267Y513398D03*
X795767Y538798D03*
X745367Y527998D03*
X795367Y532998D03*
D11*
X791367Y450248D03*
X749367Y450248D03*
X749367Y435748D03*
X791367Y435748D03*
D12*
X2051300Y953750D03*
X2051300Y921050D03*
X336800Y953750D03*
X336800Y921050D03*
X527300Y953750D03*
X527300Y921050D03*
X717800Y953750D03*
X717800Y921050D03*
X908300Y953750D03*
X908300Y921050D03*
X1098800Y953750D03*
X1098800Y921050D03*
X1289300Y953750D03*
X1289300Y921050D03*
X1479800Y953750D03*
X1479800Y921050D03*
X1670300Y953750D03*
X1670300Y921050D03*
X1860800Y953750D03*
X1860800Y921050D03*
X479700Y572750D03*
X479700Y540050D03*
X646400Y186670D03*
X646400Y153970D03*
X2075100Y186670D03*
X2075100Y153970D03*
D10*
X2122600Y900400D03*
X2186100Y925800D03*
X2135700Y915000D03*
X2185700Y920000D03*
D11*
X2181700Y837250D03*
X2139700Y837250D03*
X2139700Y822750D03*
X2181700Y822750D03*
D12*
X1336900Y374630D03*
X1336900Y341930D03*
X2768240Y740390D03*
X2768240Y707690D03*
X3670600Y1144250D03*
X3670600Y1111550D03*
X2718100Y953750D03*
X2718100Y921050D03*
X4432600Y191750D03*
X4432600Y159050D03*
X955900Y374630D03*
X955900Y341930D03*
X217700Y572750D03*
X217700Y540050D03*
X1908400Y374630D03*
X1908400Y341930D03*
X170100Y186670D03*
X170100Y153970D03*
X2789500Y186670D03*
X2789500Y153970D03*
X860700Y572750D03*
X860700Y540050D03*
X2241800Y953750D03*
X2241800Y921050D03*
X3051400Y763250D03*
X3051400Y730550D03*
X4432600Y374630D03*
X4432600Y341930D03*
X3241900Y186670D03*
X3241900Y153970D03*
X813100Y763250D03*
X813100Y730550D03*
D10*
X2932200Y703900D03*
X2995700Y729300D03*
X2945300Y718500D03*
X2995300Y723500D03*
D11*
X2991300Y640750D03*
X2949300Y640750D03*
X2949300Y626250D03*
X2991300Y626250D03*
D10*
X4313400Y322900D03*
X4376900Y348300D03*
X4326500Y337500D03*
X4376500Y342500D03*
D11*
X4372500Y259750D03*
X4330500Y259750D03*
X4330500Y245250D03*
X4372500Y245250D03*
D12*
X3241900Y763250D03*
X3241900Y730550D03*
X2711980Y575290D03*
X2711980Y542590D03*
X4259880Y370870D03*
X4259880Y338170D03*
X2432300Y953750D03*
X2432300Y921050D03*
X4254800Y762030D03*
X4254800Y729330D03*
X146300Y1144250D03*
X146300Y1111550D03*
X1051200Y572750D03*
X1051200Y540050D03*
X336800Y1144250D03*
X336800Y1111550D03*
X2051300Y1144250D03*
X2051300Y1111550D03*
X2241800Y1144250D03*
X2241800Y1111550D03*
X2432300Y1144250D03*
X2432300Y1111550D03*
X527300Y1144250D03*
X527300Y1111550D03*
X717800Y1144250D03*
X717800Y1111550D03*
X908300Y1144250D03*
X908300Y1111550D03*
X1098800Y1144250D03*
X1098800Y1111550D03*
X1289300Y1144250D03*
X1289300Y1111550D03*
X1479800Y1144250D03*
X1479800Y1111550D03*
X1670300Y1144250D03*
X1670300Y1111550D03*
X1860800Y1144250D03*
X1860800Y1111550D03*
X1241700Y572750D03*
X1241700Y540050D03*
X146300Y953750D03*
X146300Y921050D03*
X1432200Y572750D03*
X1432200Y540050D03*
X3241900Y953750D03*
X3241900Y921050D03*
X1765600Y763250D03*
X1765600Y730550D03*
X3051400Y953750D03*
X3051400Y921050D03*
X1622700Y572750D03*
X1622700Y540050D03*
X1813200Y572750D03*
X1813200Y540050D03*
X3765800Y186670D03*
X3765800Y153970D03*
X3670600Y374630D03*
X3670600Y341930D03*
X3861100Y374630D03*
X3861100Y341930D03*
X4041440Y374630D03*
X4041440Y341930D03*
X3670600Y572750D03*
X3670600Y540050D03*
X4432600Y763250D03*
X4432600Y730550D03*
X3861100Y572750D03*
X3861100Y540050D03*
X4051600Y572750D03*
X4051600Y540050D03*
X4432600Y572750D03*
X4432600Y540050D03*
X3670600Y763250D03*
X3670600Y730550D03*
X3861100Y763250D03*
X3861100Y730550D03*
X4051600Y763250D03*
X4051600Y730550D03*
X4051600Y953750D03*
X4051600Y921050D03*
X4242100Y953750D03*
X4242100Y921050D03*
X4051600Y186670D03*
X4051600Y153970D03*
X3861100Y953750D03*
X3861100Y921050D03*
X2003700Y572750D03*
X2003700Y540050D03*
X2337100Y763250D03*
X2337100Y730550D03*
X3051400Y186670D03*
X3051400Y153970D03*
X1717900Y374630D03*
X1717900Y341930D03*
X2551400Y186670D03*
X2551400Y153970D03*
X1527400Y374630D03*
X1527400Y341930D03*
X4051600Y1144250D03*
X4051600Y1111550D03*
X3670600Y953750D03*
X3670600Y921050D03*
X1956100Y763250D03*
X1956100Y730550D03*
D10*
X3122700Y132400D03*
X3186200Y157800D03*
X3135800Y147000D03*
X3185800Y152000D03*
D11*
X3181800Y69250D03*
X3139800Y69250D03*
X3139800Y54750D03*
X3181800Y54750D03*
D12*
X2146600Y763250D03*
X2146600Y730550D03*
X3432400Y1144250D03*
X3432400Y1111550D03*
X3861100Y1144250D03*
X3861100Y1111550D03*
X2098900Y374630D03*
X2098900Y341930D03*
X3432400Y763250D03*
X3432400Y730550D03*
X3432400Y953750D03*
X3432400Y921050D03*
X3051400Y1144250D03*
X3051400Y1111550D03*
X432100Y763250D03*
X432100Y730550D03*
X2384700Y572750D03*
X2384700Y540050D03*
X1003600Y763250D03*
X1003600Y730550D03*
X2527600Y740390D03*
X2527600Y707690D03*
X3432400Y186670D03*
X3432400Y153970D03*
X670200Y572750D03*
X670200Y540050D03*
X3241900Y1144250D03*
X3241900Y1111550D03*
X2194200Y572750D03*
X2194200Y540050D03*
X265400Y374630D03*
X265400Y341930D03*
X2722800Y377170D03*
X2722800Y344470D03*
X2289400Y374630D03*
X2289400Y341930D03*
X1360700Y186670D03*
X1360700Y153970D03*
X1194100Y763250D03*
X1194100Y730550D03*
X193900Y763250D03*
X193900Y730550D03*
X1575100Y763250D03*
X1575100Y730550D03*
X4432600Y953750D03*
X4432600Y921050D03*
X3241900Y374630D03*
X3241900Y341930D03*
X1146400Y374630D03*
X1146400Y341930D03*
X2622800Y1144250D03*
X2622800Y1111550D03*
X2813300Y1144250D03*
X2813300Y1111550D03*
X622600Y763250D03*
X622600Y730550D03*
X408200Y186670D03*
X408200Y153970D03*
X2313200Y186670D03*
X2313200Y153970D03*
X765400Y374630D03*
X765400Y341930D03*
X1384600Y763250D03*
X1384600Y730550D03*
X574900Y374630D03*
X574900Y341930D03*
D10*
X693900Y703900D03*
X757400Y729300D03*
X707000Y718500D03*
X757000Y723500D03*
D11*
X753000Y640750D03*
X711000Y640750D03*
X711000Y626250D03*
X753000Y626250D03*
D10*
X3122700Y703900D03*
X3186200Y729300D03*
X3135800Y718500D03*
X3185800Y723500D03*
D11*
X3181800Y640750D03*
X3139800Y640750D03*
X3139800Y626250D03*
X3181800Y626250D03*
D10*
X2313100Y894400D03*
X2376600Y919800D03*
X2326200Y909000D03*
X2376200Y914000D03*
D11*
X2372200Y831250D03*
X2330200Y831250D03*
X2330200Y816750D03*
X2372200Y816750D03*
D10*
X27100Y1084900D03*
X90600Y1110300D03*
X40200Y1099500D03*
X90200Y1104500D03*
D11*
X86200Y1021750D03*
X44200Y1021750D03*
X44200Y1007250D03*
X86200Y1007250D03*
D10*
X932000Y513400D03*
X995500Y538800D03*
X945100Y528000D03*
X995100Y533000D03*
D11*
X991100Y450250D03*
X949100Y450250D03*
X949100Y435750D03*
X991100Y435750D03*
D10*
X217600Y1084900D03*
X281100Y1110300D03*
X230700Y1099500D03*
X280700Y1104500D03*
D11*
X276700Y1021750D03*
X234700Y1021750D03*
X234700Y1007250D03*
X276700Y1007250D03*
D10*
X1932100Y1084900D03*
X1995600Y1110300D03*
X1945200Y1099500D03*
X1995200Y1104500D03*
D11*
X1991200Y1021750D03*
X1949200Y1021750D03*
X1949200Y1007250D03*
X1991200Y1007250D03*
D10*
X2122600Y1084900D03*
X2186100Y1110300D03*
X2135700Y1099500D03*
X2185700Y1104500D03*
D11*
X2181700Y1021750D03*
X2139700Y1021750D03*
X2139700Y1007250D03*
X2181700Y1007250D03*
D10*
X2313100Y1084900D03*
X2376600Y1110300D03*
X2326200Y1099500D03*
X2376200Y1104500D03*
D11*
X2372200Y1021750D03*
X2330200Y1021750D03*
X2330200Y1007250D03*
X2372200Y1007250D03*
D10*
X408100Y1084900D03*
X471600Y1110300D03*
X421200Y1099500D03*
X471200Y1104500D03*
D11*
X467200Y1021750D03*
X425200Y1021750D03*
X425200Y1007250D03*
X467200Y1007250D03*
D10*
X598600Y1084900D03*
X662100Y1110300D03*
X611700Y1099500D03*
X661700Y1104500D03*
D11*
X657700Y1021750D03*
X615700Y1021750D03*
X615700Y1007250D03*
X657700Y1007250D03*
D10*
X789100Y1084900D03*
X852600Y1110300D03*
X802200Y1099500D03*
X852200Y1104500D03*
D11*
X848200Y1021750D03*
X806200Y1021750D03*
X806200Y1007250D03*
X848200Y1007250D03*
D10*
X979600Y1084900D03*
X1043100Y1110300D03*
X992700Y1099500D03*
X1042700Y1104500D03*
D11*
X1038700Y1021750D03*
X996700Y1021750D03*
X996700Y1007250D03*
X1038700Y1007250D03*
D10*
X1170100Y1084900D03*
X1233600Y1110300D03*
X1183200Y1099500D03*
X1233200Y1104500D03*
D11*
X1229200Y1021750D03*
X1187200Y1021750D03*
X1187200Y1007250D03*
X1229200Y1007250D03*
D10*
X1360600Y1084900D03*
X1424100Y1110300D03*
X1373700Y1099500D03*
X1423700Y1104500D03*
D11*
X1419700Y1021750D03*
X1377700Y1021750D03*
X1377700Y1007250D03*
X1419700Y1007250D03*
D10*
X1551100Y1084900D03*
X1614600Y1110300D03*
X1564200Y1099500D03*
X1614200Y1104500D03*
D11*
X1610200Y1021750D03*
X1568200Y1021750D03*
X1568200Y1007250D03*
X1610200Y1007250D03*
D10*
X1741600Y1084900D03*
X1805100Y1110300D03*
X1754700Y1099500D03*
X1804700Y1104500D03*
D11*
X1800700Y1021750D03*
X1758700Y1021750D03*
X1758700Y1007250D03*
X1800700Y1007250D03*
D10*
X1122500Y513400D03*
X1186000Y538800D03*
X1135600Y528000D03*
X1185600Y533000D03*
D11*
X1181600Y450250D03*
X1139600Y450250D03*
X1139600Y435750D03*
X1181600Y435750D03*
D10*
X27100Y894400D03*
X90600Y919800D03*
X40200Y909000D03*
X90200Y914000D03*
D11*
X86200Y831250D03*
X44200Y831250D03*
X44200Y816750D03*
X86200Y816750D03*
D10*
X1313000Y513400D03*
X1376500Y538800D03*
X1326100Y528000D03*
X1376100Y533000D03*
D11*
X1372100Y450250D03*
X1330100Y450250D03*
X1330100Y435750D03*
X1372100Y435750D03*
D10*
X3122700Y894400D03*
X3186200Y919800D03*
X3135800Y909000D03*
X3185800Y914000D03*
D11*
X3181800Y831250D03*
X3139800Y831250D03*
X3139800Y816750D03*
X3181800Y816750D03*
D10*
X1646400Y703900D03*
X1709900Y729300D03*
X1659500Y718500D03*
X1709500Y723500D03*
D11*
X1705500Y640750D03*
X1663500Y640750D03*
X1663500Y626250D03*
X1705500Y626250D03*
D10*
X2932200Y894400D03*
X2995700Y919800D03*
X2945300Y909000D03*
X2995300Y914000D03*
D11*
X2991300Y831250D03*
X2949300Y831250D03*
X2949300Y816750D03*
X2991300Y816750D03*
D10*
X1503500Y513400D03*
X1567000Y538800D03*
X1516600Y528000D03*
X1566600Y533000D03*
D11*
X1562600Y450250D03*
X1520600Y450250D03*
X1520600Y435750D03*
X1562600Y435750D03*
D10*
X1694000Y513400D03*
X1757500Y538800D03*
X1707100Y528000D03*
X1757100Y533000D03*
D11*
X1753100Y450250D03*
X1711100Y450250D03*
X1711100Y435750D03*
X1753100Y435750D03*
D10*
X3646600Y132400D03*
X3710100Y157800D03*
X3659700Y147000D03*
X3709700Y152000D03*
D11*
X3705700Y69250D03*
X3663700Y69250D03*
X3663700Y54750D03*
X3705700Y54750D03*
D10*
X3551400Y322900D03*
X3614900Y348300D03*
X3564500Y337500D03*
X3614500Y342500D03*
D11*
X3610500Y259750D03*
X3568500Y259750D03*
X3568500Y245250D03*
X3610500Y245250D03*
D10*
X3741900Y322900D03*
X3805400Y348300D03*
X3755000Y337500D03*
X3805000Y342500D03*
D11*
X3801000Y259750D03*
X3759000Y259750D03*
X3759000Y245250D03*
X3801000Y245250D03*
D10*
X3932400Y322900D03*
X3995900Y348300D03*
X3945500Y337500D03*
X3995500Y342500D03*
D11*
X3991500Y259750D03*
X3949500Y259750D03*
X3949500Y245250D03*
X3991500Y245250D03*
D10*
X3551400Y513400D03*
X3614900Y538800D03*
X3564500Y528000D03*
X3614500Y533000D03*
D11*
X3610500Y450250D03*
X3568500Y450250D03*
X3568500Y435750D03*
X3610500Y435750D03*
D10*
X4313400Y703900D03*
X4376900Y729300D03*
X4326500Y718500D03*
X4376500Y723500D03*
D11*
X4372500Y640750D03*
X4330500Y640750D03*
X4330500Y626250D03*
X4372500Y626250D03*
D10*
X3741900Y513400D03*
X3805400Y538800D03*
X3755000Y528000D03*
X3805000Y533000D03*
D11*
X3801000Y450250D03*
X3759000Y450250D03*
X3759000Y435750D03*
X3801000Y435750D03*
D10*
X3932400Y513400D03*
X3995900Y538800D03*
X3945500Y528000D03*
X3995500Y533000D03*
D11*
X3991500Y450250D03*
X3949500Y450250D03*
X3949500Y435750D03*
X3991500Y435750D03*
D10*
X4313400Y513400D03*
X4376900Y538800D03*
X4326500Y528000D03*
X4376500Y533000D03*
D11*
X4372500Y450250D03*
X4330500Y450250D03*
X4330500Y435750D03*
X4372500Y435750D03*
D10*
X3551400Y703900D03*
X3614900Y729300D03*
X3564500Y718500D03*
X3614500Y723500D03*
D11*
X3610500Y640750D03*
X3568500Y640750D03*
X3568500Y626250D03*
X3610500Y626250D03*
D10*
X3741900Y703900D03*
X3805400Y729300D03*
X3755000Y718500D03*
X3805000Y723500D03*
D11*
X3801000Y640750D03*
X3759000Y640750D03*
X3759000Y626250D03*
X3801000Y626250D03*
D10*
X3932400Y703900D03*
X3995900Y729300D03*
X3945500Y718500D03*
X3995500Y723500D03*
D11*
X3991500Y640750D03*
X3949500Y640750D03*
X3949500Y626250D03*
X3991500Y626250D03*
D10*
X3932400Y894400D03*
X3995900Y919800D03*
X3945500Y909000D03*
X3995500Y914000D03*
D11*
X3991500Y831250D03*
X3949500Y831250D03*
X3949500Y816750D03*
X3991500Y816750D03*
D10*
X4122900Y894400D03*
X4186400Y919800D03*
X4136000Y909000D03*
X4186000Y914000D03*
D11*
X4182000Y831250D03*
X4140000Y831250D03*
X4140000Y816750D03*
X4182000Y816750D03*
D10*
X3932400Y132400D03*
X3995900Y157800D03*
X3945500Y147000D03*
X3995500Y152000D03*
D11*
X3991500Y69250D03*
X3949500Y69250D03*
X3949500Y54750D03*
X3991500Y54750D03*
D10*
X3741900Y894400D03*
X3805400Y919800D03*
X3755000Y909000D03*
X3805000Y914000D03*
D11*
X3801000Y831250D03*
X3759000Y831250D03*
X3759000Y816750D03*
X3801000Y816750D03*
D10*
X1884500Y513400D03*
X1948000Y538800D03*
X1897600Y528000D03*
X1947600Y533000D03*
D11*
X1943600Y450250D03*
X1901600Y450250D03*
X1901600Y435750D03*
X1943600Y435750D03*
D10*
X2217900Y703900D03*
X2281400Y729300D03*
X2231000Y718500D03*
X2281000Y723500D03*
D11*
X2277000Y640750D03*
X2235000Y640750D03*
X2235000Y626250D03*
X2277000Y626250D03*
D10*
X2932200Y132400D03*
X2995700Y157800D03*
X2945300Y147000D03*
X2995300Y152000D03*
D11*
X2991300Y69250D03*
X2949300Y69250D03*
X2949300Y54750D03*
X2991300Y54750D03*
D10*
X1598700Y322900D03*
X1662200Y348300D03*
X1611800Y337500D03*
X1661800Y342500D03*
D11*
X1657800Y259750D03*
X1615800Y259750D03*
X1615800Y245250D03*
X1657800Y245250D03*
D10*
X2432200Y132400D03*
X2495700Y157800D03*
X2445300Y147000D03*
X2495300Y152000D03*
D11*
X2491300Y69250D03*
X2449300Y69250D03*
X2449300Y54750D03*
X2491300Y54750D03*
D10*
X1408200Y322900D03*
X1471700Y348300D03*
X1421300Y337500D03*
X1471300Y342500D03*
D11*
X1467300Y259750D03*
X1425300Y259750D03*
X1425300Y245250D03*
X1467300Y245250D03*
D10*
X3932400Y1084900D03*
X3995900Y1110300D03*
X3945500Y1099500D03*
X3995500Y1104500D03*
D11*
X3991500Y1021750D03*
X3949500Y1021750D03*
X3949500Y1007250D03*
X3991500Y1007250D03*
D10*
X3551400Y894400D03*
X3614900Y919800D03*
X3564500Y909000D03*
X3614500Y914000D03*
D11*
X3610500Y831250D03*
X3568500Y831250D03*
X3568500Y816750D03*
X3610500Y816750D03*
D10*
X1836900Y703900D03*
X1900400Y729300D03*
X1850000Y718500D03*
X1900000Y723500D03*
D11*
X1896000Y640750D03*
X1854000Y640750D03*
X1854000Y626250D03*
X1896000Y626250D03*
D10*
X2027400Y703900D03*
X2090900Y729300D03*
X2040500Y718500D03*
X2090500Y723500D03*
D11*
X2086500Y640750D03*
X2044500Y640750D03*
X2044500Y626250D03*
X2086500Y626250D03*
D10*
X3313200Y1084900D03*
X3376700Y1110300D03*
X3326300Y1099500D03*
X3376300Y1104500D03*
D11*
X3372300Y1021750D03*
X3330300Y1021750D03*
X3330300Y1007250D03*
X3372300Y1007250D03*
D10*
X3741900Y1084900D03*
X3805400Y1110300D03*
X3755000Y1099500D03*
X3805000Y1104500D03*
D11*
X3801000Y1021750D03*
X3759000Y1021750D03*
X3759000Y1007250D03*
X3801000Y1007250D03*
D10*
X1979700Y322900D03*
X2043200Y348300D03*
X1992800Y337500D03*
X2042800Y342500D03*
D11*
X2038800Y259750D03*
X1996800Y259750D03*
X1996800Y245250D03*
X2038800Y245250D03*
D10*
X3313200Y703900D03*
X3376700Y729300D03*
X3326300Y718500D03*
X3376300Y723500D03*
D11*
X3372300Y640750D03*
X3330300Y640750D03*
X3330300Y626250D03*
X3372300Y626250D03*
D10*
X3313200Y894400D03*
X3376700Y919800D03*
X3326300Y909000D03*
X3376300Y914000D03*
D11*
X3372300Y831250D03*
X3330300Y831250D03*
X3330300Y816750D03*
X3372300Y816750D03*
D10*
X2932200Y1084900D03*
X2995700Y1110300D03*
X2945300Y1099500D03*
X2995300Y1104500D03*
D11*
X2991300Y1021750D03*
X2949300Y1021750D03*
X2949300Y1007250D03*
X2991300Y1007250D03*
D10*
X312900Y703900D03*
X376400Y729300D03*
X326000Y718500D03*
X376000Y723500D03*
D11*
X372000Y640750D03*
X330000Y640750D03*
X330000Y626250D03*
X372000Y626250D03*
D10*
X2265500Y513400D03*
X2329000Y538800D03*
X2278600Y528000D03*
X2328600Y533000D03*
D11*
X2324600Y450250D03*
X2282600Y450250D03*
X2282600Y435750D03*
X2324600Y435750D03*
D10*
X884400Y703900D03*
X947900Y729300D03*
X897500Y718500D03*
X947500Y723500D03*
D11*
X943500Y640750D03*
X901500Y640750D03*
X901500Y626250D03*
X943500Y626250D03*
D10*
X2408400Y703900D03*
X2471900Y729300D03*
X2421500Y718500D03*
X2471500Y723500D03*
D11*
X2467500Y640750D03*
X2425500Y640750D03*
X2425500Y626250D03*
X2467500Y626250D03*
D10*
X3313200Y132400D03*
X3376700Y157800D03*
X3326300Y147000D03*
X3376300Y152000D03*
D11*
X3372300Y69250D03*
X3330300Y69250D03*
X3330300Y54750D03*
X3372300Y54750D03*
D10*
X551000Y513400D03*
X614500Y538800D03*
X564100Y528000D03*
X614100Y533000D03*
D11*
X610100Y450250D03*
X568100Y450250D03*
X568100Y435750D03*
X610100Y435750D03*
D10*
X3122700Y1084900D03*
X3186200Y1110300D03*
X3135800Y1099500D03*
X3185800Y1104500D03*
D11*
X3181800Y1021750D03*
X3139800Y1021750D03*
X3139800Y1007250D03*
X3181800Y1007250D03*
D10*
X2075000Y513400D03*
X2138500Y538800D03*
X2088100Y528000D03*
X2138100Y533000D03*
D11*
X2134100Y450250D03*
X2092100Y450250D03*
X2092100Y435750D03*
X2134100Y435750D03*
D10*
X146200Y322900D03*
X209700Y348300D03*
X159300Y337500D03*
X209300Y342500D03*
D11*
X205300Y259750D03*
X163300Y259750D03*
X163300Y245250D03*
X205300Y245250D03*
D10*
X2527400Y322900D03*
X2590900Y348300D03*
X2540500Y337500D03*
X2590500Y342500D03*
D11*
X2586500Y259750D03*
X2544500Y259750D03*
X2544500Y245250D03*
X2586500Y245250D03*
D10*
X2170200Y322900D03*
X2233700Y348300D03*
X2183300Y337500D03*
X2233300Y342500D03*
D11*
X2229300Y259750D03*
X2187300Y259750D03*
X2187300Y245250D03*
X2229300Y245250D03*
D10*
X1241500Y132400D03*
X1305000Y157800D03*
X1254600Y147000D03*
X1304600Y152000D03*
D11*
X1300600Y69250D03*
X1258600Y69250D03*
X1258600Y54750D03*
X1300600Y54750D03*
D10*
X1074900Y703900D03*
X1138400Y729300D03*
X1088000Y718500D03*
X1138000Y723500D03*
D11*
X1134000Y640750D03*
X1092000Y640750D03*
X1092000Y626250D03*
X1134000Y626250D03*
D10*
X74700Y703900D03*
X138200Y729300D03*
X87800Y718500D03*
X137800Y723500D03*
D11*
X133800Y640750D03*
X91800Y640750D03*
X91800Y626250D03*
X133800Y626250D03*
D10*
X1455900Y703900D03*
X1519400Y729300D03*
X1469000Y718500D03*
X1519000Y723500D03*
D11*
X1515000Y640750D03*
X1473000Y640750D03*
X1473000Y626250D03*
X1515000Y626250D03*
D10*
X4313400Y894400D03*
X4376900Y919800D03*
X4326500Y909000D03*
X4376500Y914000D03*
D11*
X4372500Y831250D03*
X4330500Y831250D03*
X4330500Y816750D03*
X4372500Y816750D03*
D10*
X3122700Y322900D03*
X3186200Y348300D03*
X3135800Y337500D03*
X3185800Y342500D03*
D11*
X3181800Y259750D03*
X3139800Y259750D03*
X3139800Y245250D03*
X3181800Y245250D03*
D10*
X1027200Y322900D03*
X1090700Y348300D03*
X1040300Y337500D03*
X1090300Y342500D03*
D11*
X1086300Y259750D03*
X1044300Y259750D03*
X1044300Y245250D03*
X1086300Y245250D03*
D10*
X2503600Y1084900D03*
X2567100Y1110300D03*
X2516700Y1099500D03*
X2566700Y1104500D03*
D11*
X2562700Y1021750D03*
X2520700Y1021750D03*
X2520700Y1007250D03*
X2562700Y1007250D03*
D10*
X2694100Y1084900D03*
X2757600Y1110300D03*
X2707200Y1099500D03*
X2757200Y1104500D03*
D11*
X2753200Y1021750D03*
X2711200Y1021750D03*
X2711200Y1007250D03*
X2753200Y1007250D03*
D10*
X503400Y703900D03*
X566900Y729300D03*
X516500Y718500D03*
X566500Y723500D03*
D11*
X562500Y640750D03*
X520500Y640750D03*
X520500Y626250D03*
X562500Y626250D03*
D10*
X289000Y132400D03*
X352500Y157800D03*
X302100Y147000D03*
X352100Y152000D03*
D11*
X348100Y69250D03*
X306100Y69250D03*
X306100Y54750D03*
X348100Y54750D03*
D10*
X2194000Y132400D03*
X2257500Y157800D03*
X2207100Y147000D03*
X2257100Y152000D03*
D11*
X2253100Y69250D03*
X2211100Y69250D03*
X2211100Y54750D03*
X2253100Y54750D03*
D10*
X646200Y322900D03*
X709700Y348300D03*
X659300Y337500D03*
X709300Y342500D03*
D11*
X705300Y259750D03*
X663300Y259750D03*
X663300Y245250D03*
X705300Y245250D03*
D10*
X1265400Y703900D03*
X1328900Y729300D03*
X1278500Y718500D03*
X1328500Y723500D03*
D11*
X1324500Y640750D03*
X1282500Y640750D03*
X1282500Y626250D03*
X1324500Y626250D03*
D10*
X455700Y322900D03*
X519200Y348300D03*
X468800Y337500D03*
X518800Y342500D03*
D11*
X514800Y259750D03*
X472800Y259750D03*
X472800Y245250D03*
X514800Y245250D03*
D12*
X-44200Y1144250D03*
X-44200Y1111550D03*
X-44200Y953750D03*
X-44200Y921050D03*
X-34200Y763250D03*
X-34200Y730550D03*
X-24200Y572750D03*
X-24200Y540050D03*
X-34200Y374630D03*
X-34200Y341930D03*
X-44200Y186670D03*
X-44200Y153970D03*
X4432600Y1146350D03*
X4432600Y1113650D03*
D10*
X4309900Y1084900D03*
X4373400Y1110300D03*
X4323000Y1099500D03*
X4373000Y1104500D03*
D11*
X4369000Y1021750D03*
X4327000Y1021750D03*
X4327000Y1007250D03*
X4369000Y1007250D03*
D10*
X4131900Y1084900D03*
X4195400Y1110300D03*
X4145000Y1099500D03*
X4195000Y1104500D03*
D11*
X4191000Y1021750D03*
X4149000Y1021750D03*
X4149000Y1007250D03*
X4191000Y1007250D03*
D12*
X4250000Y1146350D03*
X4250000Y1113650D03*
D10*
X-163400Y1084900D03*
X-99900Y1110300D03*
X-150300Y1099500D03*
X-100300Y1104500D03*
D11*
X-104300Y1021750D03*
X-146300Y1021750D03*
X-146300Y1007250D03*
X-104300Y1007250D03*
D10*
X-163400Y894400D03*
X-99900Y919800D03*
X-150300Y909000D03*
X-100300Y914000D03*
D11*
X-104300Y831250D03*
X-146300Y831250D03*
X-146300Y816750D03*
X-104300Y816750D03*
D10*
X-163400Y703900D03*
X-99900Y729300D03*
X-150300Y718500D03*
X-100300Y723500D03*
D11*
X-104300Y640750D03*
X-146300Y640750D03*
X-146300Y626250D03*
X-104300Y626250D03*
D10*
X-163400Y513400D03*
X-99900Y538800D03*
X-150300Y528000D03*
X-100300Y533000D03*
D11*
X-104300Y450250D03*
X-146300Y450250D03*
X-146300Y435750D03*
X-104300Y435750D03*
D10*
X-163400Y322900D03*
X-99900Y348300D03*
X-150300Y337500D03*
X-100300Y342500D03*
D11*
X-104300Y259750D03*
X-146300Y259750D03*
X-146300Y245250D03*
X-104300Y245250D03*
D10*
X-163400Y132400D03*
X-99900Y157800D03*
X-150300Y147000D03*
X-100300Y152000D03*
D11*
X-104300Y69250D03*
X-146300Y69250D03*
X-146300Y54750D03*
X-104300Y54750D03*
D13*
X4076700Y1216000D03*
X4076700Y1197000D03*
X4137660Y1197000D03*
X4137660Y1216000D03*
X4168140Y1424534D03*
X4168140Y1405534D03*
X4172966Y1217016D03*
X4172966Y1198016D03*
D14*
X4204360Y1320546D03*
X4223360Y1320546D03*
D13*
X3988054Y1411884D03*
X3988054Y1430884D03*
D15*
X4355846Y1290066D03*
X4355846Y1244854D03*
D16*
X4330954Y1302512D03*
X4330954Y1232408D03*
D17*
X4193286Y1217016D03*
X4193286Y1198016D03*
D18*
X4388968Y1361440D03*
X4369968Y1361440D03*
X4388968Y1341120D03*
X4369968Y1341120D03*
D19*
X4095430Y1215250D03*
X4118930Y1215250D03*
X4118930Y1197750D03*
X4095430Y1197750D03*
D17*
X4386326Y1382166D03*
X4386326Y1401166D03*
D18*
X4419244Y1437640D03*
X4438244Y1437640D03*
X3957980Y1346200D03*
X3976980Y1346200D03*
D14*
X4223360Y1341120D03*
X4204360Y1341120D03*
D10*
X2524860Y513400D03*
X2588360Y538800D03*
X2537960Y528000D03*
X2587960Y533000D03*
D11*
X2583960Y450250D03*
X2541960Y450250D03*
X2541960Y435750D03*
X2583960Y435750D03*
D20*
X4145915Y1403477D03*
X4138041Y1403477D03*
X4130167Y1403477D03*
X4122293Y1403477D03*
X4114419Y1403477D03*
X4106545Y1403477D03*
X4098671Y1403477D03*
X4090797Y1403477D03*
X4082923Y1403477D03*
X4075049Y1403477D03*
X4067175Y1403477D03*
X4059301Y1403477D03*
X4051427Y1403477D03*
X4043553Y1403477D03*
X4035679Y1403477D03*
X4027805Y1403477D03*
D21*
X4164457Y1329817D03*
X4164457Y1337691D03*
X4164457Y1345565D03*
X4164457Y1353439D03*
X4164457Y1361313D03*
X4164457Y1369187D03*
X4164457Y1377061D03*
X4164457Y1384935D03*
X4164457Y1321943D03*
X4164457Y1314069D03*
X4164457Y1306195D03*
X4164457Y1298321D03*
X4164457Y1290447D03*
X4164457Y1282573D03*
X4164457Y1274699D03*
X4164457Y1266825D03*
D20*
X4145915Y1248283D03*
X4138041Y1248283D03*
X4130167Y1248283D03*
X4122293Y1248283D03*
X4114419Y1248283D03*
X4106545Y1248283D03*
X4098671Y1248283D03*
X4090797Y1248283D03*
X4082923Y1248283D03*
X4075049Y1248283D03*
X4067175Y1248283D03*
X4059301Y1248283D03*
X4051427Y1248283D03*
X4043553Y1248283D03*
X4035679Y1248283D03*
X4027805Y1248283D03*
D21*
X4009263Y1266825D03*
X4009263Y1274699D03*
X4009263Y1282573D03*
X4009263Y1290447D03*
X4009263Y1298321D03*
X4009263Y1306195D03*
X4009263Y1314069D03*
X4009263Y1321943D03*
X4009263Y1329817D03*
X4009263Y1337691D03*
X4009263Y1345565D03*
X4009263Y1353439D03*
X4009263Y1361313D03*
X4009263Y1369187D03*
X4009263Y1377061D03*
X4009263Y1384935D03*
D22*
X4416480Y1401640D03*
X4416480Y1396640D03*
X4416480Y1391640D03*
X4416480Y1386640D03*
X4416480Y1381640D03*
X4416480Y1376640D03*
X4416480Y1371640D03*
X4416480Y1366640D03*
X4416480Y1361640D03*
X4416480Y1356640D03*
X4416480Y1351640D03*
X4416480Y1346640D03*
X4428480Y1344140D03*
X4428480Y1349140D03*
X4428480Y1354140D03*
X4428480Y1359140D03*
X4428480Y1364140D03*
X4428480Y1369140D03*
X4428480Y1379140D03*
X4428480Y1384140D03*
X4428480Y1389140D03*
X4428480Y1394140D03*
X4428480Y1399140D03*
X4428480Y1404140D03*
D23*
X4457280Y1433840D02*
X4468280Y1433840D01*
X4468280Y1314440D02*
X4457280Y1314440D01*
D24*
X4425620Y1419640D02*
X4415540Y1419640D01*
D25*
X4424830Y1420340D02*
X4424830Y1411760D01*
D24*
X4425620Y1328640D02*
X4415540Y1328640D01*
D25*
X4424830Y1327940D02*
X4424830Y1336520D01*
D14*
X4204360Y1402080D03*
X4223360Y1402080D03*
D10*
X4122420Y609600D03*
X4185920Y635000D03*
X4135520Y624200D03*
X4185520Y629200D03*
D11*
X4181520Y546450D03*
X4139520Y546450D03*
X4139520Y531950D03*
X4181520Y531950D03*
D10*
X4122420Y228600D03*
X4185920Y254000D03*
X4135520Y243200D03*
X4185520Y248200D03*
D11*
X4181520Y165450D03*
X4139520Y165450D03*
X4139520Y150950D03*
X4181520Y150950D03*
D26*
X287750Y1111550D02*
X280700Y1104500D01*
X287750Y1111550D02*
X336800Y1111550D01*
X284163Y1108075D02*
X282575Y1109663D01*
X281100Y1110300D01*
X284163Y1108075D02*
X280700Y1104500D01*
X473075Y1111250D02*
X527050Y1111250D01*
X527300Y1111550D01*
X473075Y1111250D02*
X471600Y1110300D01*
X663575Y1111250D02*
X717550Y1111250D01*
X717800Y1111550D01*
X663575Y1111250D02*
X662100Y1110300D01*
X854075Y1111250D02*
X908050Y1111250D01*
X908300Y1111550D01*
X854075Y1111250D02*
X852600Y1110300D01*
X1044575Y1111250D02*
X1098550Y1111250D01*
X1098800Y1111550D01*
X1044575Y1111250D02*
X1043100Y1110300D01*
X1235075Y1111250D02*
X1289050Y1111250D01*
X1289300Y1111550D01*
X1235075Y1111250D02*
X1233600Y1110300D01*
X1425575Y1111250D02*
X1479550Y1111250D01*
X1479800Y1111550D01*
X1425575Y1111250D02*
X1424100Y1110300D01*
X1616075Y1111250D02*
X1670050Y1111250D01*
X1670300Y1111550D01*
X1616075Y1111250D02*
X1614600Y1110300D01*
X1806575Y1111250D02*
X1860550Y1111250D01*
X1860800Y1111550D01*
X1806575Y1111250D02*
X1805100Y1110300D01*
X1997075Y1111250D02*
X2051050Y1111250D01*
X2051300Y1111550D01*
X1997075Y1111250D02*
X1995600Y1110300D01*
X2187575Y1111250D02*
X2241550Y1111250D01*
X2241800Y1111550D01*
X2187575Y1111250D02*
X2186100Y1110300D01*
X2378075Y1111250D02*
X2432050Y1111250D01*
X2432300Y1111550D01*
X2378075Y1111250D02*
X2376600Y1110300D01*
X2568575Y1111250D02*
X2622550Y1111250D01*
X2622800Y1111550D01*
X2568575Y1111250D02*
X2567100Y1110300D01*
X2759075Y1111250D02*
X2813050Y1111250D01*
X2813300Y1111550D01*
X2759075Y1111250D02*
X2757600Y1110300D01*
X2997200Y1111250D02*
X3051175Y1111250D01*
X3051400Y1111550D01*
X2997200Y1111250D02*
X2995700Y1110300D01*
X3187700Y1111250D02*
X3241675Y1111250D01*
X3241900Y1111550D01*
X3187700Y1111250D02*
X3186200Y1110300D01*
X3378200Y1111250D02*
X3432175Y1111250D01*
X3432400Y1111550D01*
X3378200Y1111250D02*
X3376700Y1110300D01*
X3616325Y1111250D02*
X3670300Y1111250D01*
X3670600Y1111550D01*
X3616325Y1111250D02*
X3614900Y1110300D01*
X3806825Y1111250D02*
X3860800Y1111250D01*
X3861100Y1111550D01*
X3806825Y1111250D02*
X3805400Y1110300D01*
X3997325Y1111250D02*
X4051300Y1111250D01*
X4051600Y1111550D01*
X3997325Y1111250D02*
X3995900Y1110300D01*
X146050Y920750D02*
X92075Y920750D01*
X146050Y920750D02*
X146300Y921050D01*
X92075Y920750D02*
X90600Y919800D01*
X92075Y920750D02*
X90200Y914000D01*
X282575Y920750D02*
X336550Y920750D01*
X336800Y921050D01*
X282575Y920750D02*
X281100Y919800D01*
X282575Y920750D02*
X280700Y914000D01*
X473075Y920750D02*
X527050Y920750D01*
X527300Y921050D01*
X473075Y920750D02*
X471600Y919800D01*
X473075Y920750D02*
X471200Y914000D01*
X663575Y920750D02*
X717550Y920750D01*
X717800Y921050D01*
X663575Y920750D02*
X662100Y919800D01*
X663575Y920750D02*
X661700Y914000D01*
X854075Y920750D02*
X908050Y920750D01*
X908300Y921050D01*
X854075Y920750D02*
X852600Y919800D01*
X854075Y920750D02*
X852200Y914000D01*
X1044575Y920750D02*
X1098550Y920750D01*
X1098800Y921050D01*
X1044575Y920750D02*
X1043100Y919800D01*
X1044575Y920750D02*
X1042700Y914000D01*
X1235075Y920750D02*
X1289050Y920750D01*
X1289300Y921050D01*
X1235075Y920750D02*
X1233600Y919800D01*
X1235075Y920750D02*
X1233200Y914000D01*
X1425575Y920750D02*
X1479550Y920750D01*
X1479800Y921050D01*
X1425575Y920750D02*
X1424100Y919800D01*
X1425575Y920750D02*
X1423700Y914000D01*
X1616075Y920750D02*
X1670050Y920750D01*
X1670300Y921050D01*
X1616075Y920750D02*
X1614600Y919800D01*
X1616075Y920750D02*
X1614200Y914000D01*
X1806575Y920750D02*
X1860550Y920750D01*
X1860800Y921050D01*
X1806575Y920750D02*
X1805100Y919800D01*
X1806575Y920750D02*
X1804700Y914000D01*
X1997075Y920750D02*
X2051050Y920750D01*
X2051300Y921050D01*
X1997075Y920750D02*
X1995600Y919800D01*
X1997075Y920750D02*
X1995200Y914000D01*
X2185988Y920750D02*
X2241550Y920750D01*
X2241800Y921050D01*
X2185988Y920750D02*
X2185700Y920000D01*
X2185988Y920750D02*
X2186100Y925800D01*
X2378075Y920750D02*
X2432050Y920750D01*
X2432300Y921050D01*
X2378075Y920750D02*
X2376600Y919800D01*
X2378075Y920750D02*
X2376200Y914000D01*
X2663825Y920750D02*
X2717800Y920750D01*
X2718100Y921050D01*
X2663825Y920750D02*
X2662400Y919800D01*
X2663825Y920750D02*
X2662000Y914000D01*
X2997200Y920750D02*
X3051175Y920750D01*
X3051400Y921050D01*
X2997200Y920750D02*
X2995700Y919800D01*
X2997200Y920750D02*
X2995300Y914000D01*
X3187700Y920750D02*
X3241675Y920750D01*
X3241900Y921050D01*
X3187700Y920750D02*
X3186200Y919800D01*
X3187700Y920750D02*
X3185800Y914000D01*
X3378200Y920750D02*
X3432175Y920750D01*
X3432400Y921050D01*
X3378200Y920750D02*
X3376700Y919800D01*
X3378200Y920750D02*
X3376300Y914000D01*
X3616325Y920750D02*
X3670300Y920750D01*
X3670600Y921050D01*
X3616325Y920750D02*
X3614900Y919800D01*
X3616325Y920750D02*
X3614500Y914000D01*
X3806825Y920750D02*
X3860800Y920750D01*
X3861100Y921050D01*
X3806825Y920750D02*
X3805400Y919800D01*
X3806825Y920750D02*
X3805000Y914000D01*
X3997325Y920750D02*
X4051300Y920750D01*
X4051600Y921050D01*
X3997325Y920750D02*
X3995900Y919800D01*
X3997325Y920750D02*
X3995500Y914000D01*
X4187825Y920750D02*
X4241800Y920750D01*
X4242100Y921050D01*
X4187825Y920750D02*
X4186400Y919800D01*
X4378325Y920750D02*
X4432300Y920750D01*
X4432600Y921050D01*
X4378325Y920750D02*
X4376900Y919800D01*
X4378325Y920750D02*
X4376500Y914000D01*
X193675Y730250D02*
X139700Y730250D01*
X193675Y730250D02*
X193900Y730550D01*
X139700Y730250D02*
X138200Y729300D01*
X377825Y730250D02*
X431800Y730250D01*
X432100Y730550D01*
X377825Y730250D02*
X376400Y729300D01*
X568325Y730250D02*
X622300Y730250D01*
X622600Y730550D01*
X568325Y730250D02*
X566900Y729300D01*
X758825Y730250D02*
X812800Y730250D01*
X813100Y730550D01*
X758825Y730250D02*
X757400Y729300D01*
X949325Y730250D02*
X1003300Y730250D01*
X1003600Y730550D01*
X949325Y730250D02*
X947900Y729300D01*
X1139825Y730250D02*
X1193800Y730250D01*
X1194100Y730550D01*
X1139825Y730250D02*
X1138400Y729300D01*
X1330325Y730250D02*
X1384300Y730250D01*
X1384600Y730550D01*
X1330325Y730250D02*
X1328900Y729300D01*
X1520825Y730250D02*
X1574800Y730250D01*
X1575100Y730550D01*
X1520825Y730250D02*
X1519400Y729300D01*
X1711325Y730250D02*
X1765300Y730250D01*
X1765600Y730550D01*
X1711325Y730250D02*
X1709900Y729300D01*
X1901825Y730250D02*
X1955800Y730250D01*
X1956100Y730550D01*
X1901825Y730250D02*
X1900400Y729300D01*
X2092325Y730250D02*
X2146300Y730250D01*
X2146600Y730550D01*
X2092325Y730250D02*
X2090900Y729300D01*
X2282825Y730250D02*
X2336800Y730250D01*
X2337100Y730550D01*
X2282825Y730250D02*
X2281400Y729300D01*
X2486025Y708025D02*
X2527300Y708025D01*
X2486025Y708025D02*
X2471738Y722313D01*
X2527300Y708025D02*
X2527600Y707690D01*
X2471738Y722313D02*
X2471900Y729300D01*
X2471738Y723900D02*
X2471500Y723500D01*
X2471738Y723900D02*
X2471900Y729300D01*
X2724150Y708025D02*
X2767013Y708025D01*
X2724150Y708025D02*
X2709863Y722313D01*
X2767013Y708025D02*
X2768240Y707690D01*
X2709863Y722313D02*
X2710000Y729300D01*
X2709863Y723900D02*
X2709600Y723500D01*
X2709863Y723900D02*
X2710000Y729300D01*
X2997200Y730250D02*
X3051175Y730250D01*
X3051400Y730550D01*
X2997200Y730250D02*
X2995700Y729300D01*
X3187700Y730250D02*
X3241675Y730250D01*
X3241900Y730550D01*
X3187700Y730250D02*
X3186200Y729300D01*
X3378200Y730250D02*
X3432175Y730250D01*
X3432400Y730550D01*
X3378200Y730250D02*
X3376700Y729300D01*
X3616325Y730250D02*
X3670300Y730250D01*
X3670600Y730550D01*
X3616325Y730250D02*
X3614900Y729300D01*
X3806825Y730250D02*
X3860800Y730250D01*
X3861100Y730550D01*
X3806825Y730250D02*
X3805400Y729300D01*
X3997325Y730250D02*
X4051300Y730250D01*
X4051600Y730550D01*
X3997325Y730250D02*
X3995900Y729300D01*
X4378325Y730250D02*
X4432300Y730250D01*
X4432600Y730550D01*
X4378325Y730250D02*
X4376900Y729300D01*
X217488Y539750D02*
X163513Y539750D01*
X217488Y539750D02*
X217700Y540050D01*
X163513Y539750D02*
X162000Y538800D01*
X163513Y539750D02*
X161600Y533000D01*
X425450Y539750D02*
X479425Y539750D01*
X479700Y540050D01*
X425450Y539750D02*
X424000Y538800D01*
X425450Y539750D02*
X423600Y533000D01*
X615950Y539750D02*
X669925Y539750D01*
X670200Y540050D01*
X615950Y539750D02*
X614500Y538800D01*
X615950Y539750D02*
X614100Y533000D01*
X796925Y539750D02*
X860425Y539750D01*
X860700Y540050D01*
X796925Y539750D02*
X795767Y538798D01*
X796925Y539750D02*
X795367Y532998D01*
X996950Y539750D02*
X1050925Y539750D01*
X1051200Y540050D01*
X996950Y539750D02*
X995500Y538800D01*
X996950Y539750D02*
X995100Y533000D01*
X1187450Y539750D02*
X1241425Y539750D01*
X1241700Y540050D01*
X1187450Y539750D02*
X1186000Y538800D01*
X1187450Y539750D02*
X1185600Y533000D01*
X1377950Y539750D02*
X1431925Y539750D01*
X1432200Y540050D01*
X1377950Y539750D02*
X1376500Y538800D01*
X1377950Y539750D02*
X1376100Y533000D01*
X1568450Y539750D02*
X1622425Y539750D01*
X1622700Y540050D01*
X1568450Y539750D02*
X1567000Y538800D01*
X1568450Y539750D02*
X1566600Y533000D01*
X1758950Y539750D02*
X1812925Y539750D01*
X1813200Y540050D01*
X1758950Y539750D02*
X1757500Y538800D01*
X1758950Y539750D02*
X1757100Y533000D01*
X1949450Y539750D02*
X2003425Y539750D01*
X2003700Y540050D01*
X1949450Y539750D02*
X1948000Y538800D01*
X1949450Y539750D02*
X1947600Y533000D01*
X2139950Y539750D02*
X2193925Y539750D01*
X2194200Y540050D01*
X2139950Y539750D02*
X2138500Y538800D01*
X2139950Y539750D02*
X2138100Y533000D01*
X2330450Y539750D02*
X2384425Y539750D01*
X2384700Y540050D01*
X2330450Y539750D02*
X2329000Y538800D01*
X2330450Y539750D02*
X2328600Y533000D01*
X3616325Y539750D02*
X3670300Y539750D01*
X3670600Y540050D01*
X3616325Y539750D02*
X3614900Y538800D01*
X3616325Y539750D02*
X3614500Y533000D01*
X3806825Y539750D02*
X3860800Y539750D01*
X3861100Y540050D01*
X3806825Y539750D02*
X3805400Y538800D01*
X3806825Y539750D02*
X3805000Y533000D01*
X3997325Y539750D02*
X4051300Y539750D01*
X4051600Y540050D01*
X3997325Y539750D02*
X3995900Y538800D01*
X3997325Y539750D02*
X3995500Y533000D01*
X4378325Y539750D02*
X4432300Y539750D01*
X4432600Y540050D01*
X4378325Y539750D02*
X4376900Y538800D01*
X4378325Y539750D02*
X4376500Y533000D01*
X265113Y342900D02*
X209550Y342900D01*
X265113Y342900D02*
X265400Y341930D01*
X209550Y342900D02*
X209300Y342500D01*
X209550Y342900D02*
X209700Y348300D01*
X519113Y342900D02*
X574675Y342900D01*
X574900Y341930D01*
X519113Y342900D02*
X518800Y342500D01*
X519113Y342900D02*
X519200Y348300D01*
X709613Y342900D02*
X765175Y342900D01*
X765400Y341930D01*
X709613Y342900D02*
X709300Y342500D01*
X709613Y342900D02*
X709700Y348300D01*
X900113Y342900D02*
X955675Y342900D01*
X955900Y341930D01*
X900113Y342900D02*
X899800Y342500D01*
X900113Y342900D02*
X900200Y348300D01*
X1090613Y342900D02*
X1146175Y342900D01*
X1146400Y341930D01*
X1090613Y342900D02*
X1090300Y342500D01*
X1090613Y342900D02*
X1090700Y348300D01*
X1281113Y342900D02*
X1336675Y342900D01*
X1336900Y341930D01*
X1281113Y342900D02*
X1280800Y342500D01*
X1281113Y342900D02*
X1281200Y348300D01*
X1471613Y342900D02*
X1527175Y342900D01*
X1527400Y341930D01*
X1471613Y342900D02*
X1471300Y342500D01*
X1471613Y342900D02*
X1471700Y348300D01*
X1662113Y342900D02*
X1717675Y342900D01*
X1717900Y341930D01*
X1662113Y342900D02*
X1661800Y342500D01*
X1662113Y342900D02*
X1662200Y348300D01*
X1852613Y342900D02*
X1908175Y342900D01*
X1908400Y341930D01*
X1852613Y342900D02*
X1852300Y342500D01*
X1852613Y342900D02*
X1852700Y348300D01*
X2043113Y342900D02*
X2098675Y342900D01*
X2098900Y341930D01*
X2043113Y342900D02*
X2042800Y342500D01*
X2043113Y342900D02*
X2043200Y348300D01*
X2233613Y342900D02*
X2289175Y342900D01*
X2289400Y341930D01*
X2233613Y342900D02*
X2233300Y342500D01*
X2233613Y342900D02*
X2233700Y348300D01*
X2695575Y342900D02*
X2722563Y342900D01*
X2695575Y342900D02*
X2692400Y339725D01*
X2592388Y339725D01*
X2590800Y341313D01*
X2722563Y342900D02*
X2722800Y344470D01*
X2590800Y341313D02*
X2590500Y342500D01*
X3186113Y342900D02*
X3241675Y342900D01*
X3241900Y341930D01*
X3186113Y342900D02*
X3185800Y342500D01*
X3186113Y342900D02*
X3186200Y348300D01*
X3614738Y342900D02*
X3670300Y342900D01*
X3670600Y341930D01*
X3614738Y342900D02*
X3614500Y342500D01*
X3614738Y342900D02*
X3614900Y348300D01*
X3805238Y342900D02*
X3860800Y342900D01*
X3861100Y341930D01*
X3805238Y342900D02*
X3805000Y342500D01*
X3805238Y342900D02*
X3805400Y348300D01*
X3995738Y342900D02*
X4040188Y342900D01*
X4041440Y341930D01*
X3995738Y342900D02*
X3995500Y342500D01*
X3995738Y342900D02*
X3995900Y348300D01*
X4376738Y342900D02*
X4432300Y342900D01*
X4432600Y341930D01*
X4376738Y342900D02*
X4376500Y342500D01*
X4376738Y342900D02*
X4376900Y348300D01*
X354013Y152400D02*
X352425Y152400D01*
X354013Y152400D02*
X407988Y152400D01*
X408200Y153970D01*
X352425Y152400D02*
X352100Y152000D01*
X354013Y152400D02*
X354013Y157163D01*
X352500Y157800D01*
X354013Y152400D02*
X352100Y152000D01*
X590550Y152400D02*
X592138Y152400D01*
X646113Y152400D01*
X646400Y153970D01*
X590550Y152400D02*
X590300Y152000D01*
X592138Y152400D02*
X592138Y157163D01*
X590700Y157800D01*
X592138Y152400D02*
X590300Y152000D01*
X1304925Y152400D02*
X1306513Y152400D01*
X1360488Y152400D01*
X1360700Y153970D01*
X1304925Y152400D02*
X1304600Y152000D01*
X1306513Y152400D02*
X1306513Y157163D01*
X1305000Y157800D01*
X1306513Y152400D02*
X1304600Y152000D01*
X2019300Y152400D02*
X2020888Y152400D01*
X2074863Y152400D01*
X2075100Y153970D01*
X2019300Y152400D02*
X2019000Y152000D01*
X2020888Y152400D02*
X2020888Y157163D01*
X2019400Y157800D01*
X2020888Y152400D02*
X2019000Y152000D01*
X2495550Y152400D02*
X2497138Y152400D01*
X2551113Y152400D01*
X2551400Y153970D01*
X2495550Y152400D02*
X2495300Y152000D01*
X2497138Y152400D02*
X2497138Y157163D01*
X2495700Y157800D01*
X2497138Y152400D02*
X2495300Y152000D01*
X2733675Y152400D02*
X2735263Y152400D01*
X2789238Y152400D01*
X2789500Y153970D01*
X2733675Y152400D02*
X2733400Y152000D01*
X2735263Y152400D02*
X2735263Y157163D01*
X2733800Y157800D01*
X2735263Y152400D02*
X2733400Y152000D01*
X2995613Y152400D02*
X2997200Y152400D01*
X3051175Y152400D01*
X3051400Y153970D01*
X2995613Y152400D02*
X2995300Y152000D01*
X2997200Y152400D02*
X2997200Y157163D01*
X2995700Y157800D01*
X2997200Y152400D02*
X2995300Y152000D01*
X3186113Y152400D02*
X3187700Y152400D01*
X3241675Y152400D01*
X3241900Y153970D01*
X3186113Y152400D02*
X3185800Y152000D01*
X3187700Y152400D02*
X3187700Y157163D01*
X3186200Y157800D01*
X3187700Y152400D02*
X3185800Y152000D01*
X3376613Y152400D02*
X3378200Y152400D01*
X3432175Y152400D01*
X3432400Y153970D01*
X3376613Y152400D02*
X3376300Y152000D01*
X3378200Y152400D02*
X3378200Y157163D01*
X3376700Y157800D01*
X3378200Y152400D02*
X3376300Y152000D01*
X3709988Y152400D02*
X3711575Y152400D01*
X3765550Y152400D01*
X3765800Y153970D01*
X3709988Y152400D02*
X3709700Y152000D01*
X3711575Y152400D02*
X3711575Y157163D01*
X3710100Y157800D01*
X3711575Y152400D02*
X3709700Y152000D01*
X3995738Y152400D02*
X3997325Y152400D01*
X4051300Y152400D01*
X4051600Y153970D01*
X3995738Y152400D02*
X3995500Y152000D01*
X3997325Y152400D02*
X3997325Y157163D01*
X3995900Y157800D01*
X3997325Y152400D02*
X3995500Y152000D01*
X4378325Y158750D02*
X4432300Y158750D01*
X4432600Y159050D01*
X4378325Y158750D02*
X4376900Y157800D01*
X4378325Y158750D02*
X4376500Y152000D01*
X97250Y1111550D02*
X90200Y1104500D01*
X97250Y1111550D02*
X146300Y1111550D01*
X90488Y1111250D02*
X88900Y1111250D01*
X87930Y1111550D01*
X90488Y1111250D02*
X90600Y1110300D01*
X92075Y1109663D02*
X93663Y1108075D01*
X92075Y1109663D02*
X90600Y1110300D01*
X93663Y1108075D02*
X90200Y1104500D01*
X4375150Y1112838D02*
X4432300Y1112838D01*
X4375150Y1112838D02*
X4373563Y1111250D01*
X4432300Y1112838D02*
X4432600Y1113650D01*
X4373563Y1111250D02*
X4373400Y1110300D01*
X4249738Y1112838D02*
X4197350Y1112838D01*
X4195763Y1111250D01*
X4249738Y1112838D02*
X4250000Y1113650D01*
X4195763Y1111250D02*
X4195400Y1110300D01*
X-45450Y1110300D02*
X-99900Y1110300D01*
X-45450Y1110300D02*
X-44200Y1111550D01*
X-44450Y920750D02*
X-98425Y920750D01*
X-44450Y920750D02*
X-44200Y921050D01*
X-98425Y920750D02*
X-99900Y919800D01*
X-98425Y920750D02*
X-100300Y914000D01*
X-98425Y730250D02*
X-34925Y730250D01*
X-34200Y730550D01*
X-98425Y730250D02*
X-99900Y729300D01*
X-98425Y539750D02*
X-25400Y539750D01*
X-24200Y540050D01*
X-98425Y539750D02*
X-99900Y538800D01*
X-98425Y539750D02*
X-100300Y533000D01*
X-100013Y342900D02*
X-34925Y342900D01*
X-34200Y341930D01*
X-100013Y342900D02*
X-100300Y342500D01*
X-100013Y342900D02*
X-99900Y348300D01*
X-100013Y152400D02*
X-98425Y152400D01*
X-44450Y152400D01*
X-44200Y153970D01*
X-100013Y152400D02*
X-100300Y152000D01*
X-98425Y152400D02*
X-98425Y157163D01*
X-99900Y157800D01*
X-98425Y152400D02*
X-100300Y152000D01*
X4164457Y1337691D02*
X4179951Y1337691D01*
X4183380Y1341120D01*
X4204360Y1341120D01*
D27*
X4118840Y1215160D02*
X4117570Y1213890D01*
D28*
X4106545Y1248283D02*
X4106545Y1302131D01*
X4149979Y1345565D02*
X4164457Y1345565D01*
X4149979Y1345565D02*
X4106545Y1302131D01*
X4138041Y1389380D02*
X4138041Y1403477D01*
X4138041Y1389380D02*
X4138041Y1357503D01*
X4149979Y1345565D01*
X4059301Y1397559D02*
X4059301Y1403477D01*
X4059301Y1397559D02*
X4099357Y1357503D01*
X4138041Y1357503D01*
D29*
X4418482Y1436878D02*
X4419244Y1437640D01*
D28*
X4151986Y1389380D02*
X4138041Y1389380D01*
D27*
X4416480Y1401640D02*
X4418980Y1404140D01*
X4428480Y1404140D01*
D29*
X4424830Y1407790D01*
D28*
X4424830Y1416050D01*
X4448580Y1419640D02*
X4462780Y1433840D01*
X4448580Y1419640D02*
X4420580Y1419640D01*
X4462526Y1434094D02*
X4462780Y1433840D01*
D29*
X4428480Y1344140D02*
X4428480Y1335880D01*
D28*
X4424830Y1332230D01*
X4424170Y1332230D02*
X4420580Y1328640D01*
X4424170Y1332230D02*
X4424830Y1332230D01*
X4434780Y1314440D02*
X4462780Y1314440D01*
X4434780Y1314440D02*
X4420580Y1328640D01*
X4059301Y1374521D02*
X4059301Y1403477D01*
X4059301Y1374521D02*
X4030980Y1346200D01*
X3957980Y1346200D02*
X3942080Y1346200D01*
D30*
X4030980Y1346200D03*
X3942080Y1346200D03*
D28*
X4151986Y1389380D02*
X4168140Y1405534D01*
X4179214Y1405534D01*
X4191000Y1417320D01*
X4214416Y1411053D02*
X4214416Y1411024D01*
X4223360Y1402080D01*
X4208149Y1417320D02*
X4191000Y1417320D01*
X4208149Y1417320D02*
X4214416Y1411053D01*
D27*
X4418980Y1344140D02*
X4428480Y1344140D01*
X4418980Y1344140D02*
X4416480Y1346640D01*
D28*
X4223360Y1341120D02*
X4223360Y1320546D01*
X4180205Y1345565D02*
X4164457Y1345565D01*
X4213200Y1353820D02*
X4223360Y1343660D01*
X4223360Y1341120D01*
X4188460Y1353820D02*
X4180205Y1345565D01*
X4188460Y1353820D02*
X4213200Y1353820D01*
X4119680Y1216000D02*
X4118930Y1215250D01*
X4095430Y1197750D02*
X4094680Y1197000D01*
X4076700Y1197000D01*
X4095430Y1197750D02*
X4109540Y1183640D01*
X4109720Y1183640D01*
D30*
X4107180Y1236980D03*
D28*
X4107180Y1247648D02*
X4106545Y1248283D01*
X4107180Y1247648D02*
X4107180Y1236980D01*
D30*
X4109720Y1183640D03*
D28*
X4158590Y1183640D01*
X4172966Y1198016D01*
X4395504Y1419640D02*
X4420580Y1419640D01*
X4462780Y1433840D02*
X4462780Y1314440D01*
X4059301Y1425706D02*
X4045287Y1439720D01*
X4059301Y1425706D02*
X4059301Y1403477D01*
X4386326Y1410462D02*
X4395504Y1419640D01*
X4386326Y1410462D02*
X4386326Y1401166D01*
X4382160Y1397000D01*
X4228440Y1397000D01*
X4223360Y1402080D01*
X4137660Y1216000D02*
X4119680Y1216000D01*
X4118930Y1215250D02*
X4118840Y1215160D01*
X4112542Y1231618D02*
X4107180Y1236980D01*
X4112542Y1231618D02*
X4112542Y1231401D01*
X4118930Y1225013D02*
X4118930Y1215250D01*
X4118930Y1225013D02*
X4112542Y1231401D01*
D31*
X4420580Y1419640D02*
X4421240Y1419640D01*
X4421580Y1419300D01*
X4424830Y1416050D01*
D28*
X4419244Y1421636D02*
X4419244Y1437640D01*
X4419244Y1421636D02*
X4421580Y1419300D01*
X3916680Y1282700D02*
X3812540Y1178560D01*
X3916680Y1412240D02*
X3937000Y1432560D01*
X3916680Y1412240D02*
X3916680Y1282700D01*
X3812540Y1178560D02*
X-53340Y1178560D01*
X-71120Y1160780D01*
X-71120Y1137920D01*
D30*
X-71120Y1137920D03*
X30480Y1018540D03*
D28*
X33690Y1021750D02*
X44200Y1021750D01*
X33690Y1021750D02*
X30480Y1018540D01*
D30*
X220980Y1018540D03*
D28*
X224190Y1021750D02*
X234700Y1021750D01*
X224190Y1021750D02*
X220980Y1018540D01*
D30*
X-162560Y1018540D03*
D28*
X-159350Y1021750D02*
X-146300Y1021750D01*
X-159350Y1021750D02*
X-162560Y1018540D01*
D30*
X27940Y825500D03*
D28*
X33690Y831250D02*
X44200Y831250D01*
X33690Y831250D02*
X27940Y825500D01*
D30*
X-172720Y825500D03*
D28*
X-166970Y831250D02*
X-146300Y831250D01*
X-166970Y831250D02*
X-172720Y825500D01*
D30*
X-167640Y632460D03*
D28*
X-159350Y640750D02*
X-146300Y640750D01*
X-159350Y640750D02*
X-167640Y632460D01*
D30*
X-172720Y444500D03*
X-170180Y254000D03*
X4310380Y68580D03*
X4305300Y640080D03*
X4310380Y447040D03*
X4297680Y254000D03*
D28*
X-147638Y68263D02*
X-157163Y68263D01*
X-147638Y68263D02*
X-146300Y69250D01*
X57150Y69850D02*
X66675Y69850D01*
X68000Y69250D01*
X-147638Y258763D02*
X-165100Y258763D01*
X-169863Y254000D01*
X-147638Y258763D02*
X-146300Y259750D01*
X-169863Y254000D02*
X-170180Y254000D01*
X-166688Y449263D02*
X-147638Y449263D01*
X-166688Y449263D02*
X-171450Y444500D01*
X-147638Y449263D02*
X-146300Y450250D01*
X-171450Y444500D02*
X-172720Y444500D01*
X295275Y69850D02*
X304800Y69850D01*
X306100Y69250D01*
X161925Y260350D02*
X152400Y260350D01*
X161925Y260350D02*
X163300Y259750D01*
X114300Y450850D02*
X104775Y450850D01*
X114300Y450850D02*
X115600Y450250D01*
X533400Y69850D02*
X542925Y69850D01*
X544300Y69250D01*
X471488Y260350D02*
X461963Y260350D01*
X471488Y260350D02*
X472800Y259750D01*
X90488Y641350D02*
X80963Y641350D01*
X90488Y641350D02*
X91800Y640750D01*
X366713Y450850D02*
X376238Y450850D01*
X377600Y450250D01*
X652463Y260350D02*
X661988Y260350D01*
X663300Y259750D01*
X328613Y641350D02*
X319088Y641350D01*
X328613Y641350D02*
X330000Y640750D01*
X557213Y450850D02*
X566738Y450850D01*
X568100Y450250D01*
X233363Y831850D02*
X223838Y831850D01*
X233363Y831850D02*
X234700Y831250D01*
X842963Y260350D02*
X852488Y260350D01*
X853800Y259750D01*
X519113Y641350D02*
X509588Y641350D01*
X519113Y641350D02*
X520500Y640750D01*
X738188Y450850D02*
X749300Y450850D01*
X749367Y450248D01*
X423863Y831850D02*
X414338Y831850D01*
X423863Y831850D02*
X425200Y831250D01*
X1033463Y260350D02*
X1042988Y260350D01*
X1044300Y259750D01*
X709613Y641350D02*
X700088Y641350D01*
X709613Y641350D02*
X711000Y640750D01*
X1301750Y53975D02*
X1311275Y53975D01*
X1301750Y53975D02*
X1300600Y54750D01*
X947738Y450850D02*
X938213Y450850D01*
X947738Y450850D02*
X949100Y450250D01*
X614363Y831850D02*
X604838Y831850D01*
X614363Y831850D02*
X615700Y831250D01*
X1223963Y249238D02*
X1233488Y258763D01*
X1234800Y259750D01*
X900113Y641350D02*
X890588Y641350D01*
X900113Y641350D02*
X901500Y640750D01*
X1128713Y450850D02*
X1138238Y450850D01*
X1139600Y450250D01*
X804863Y831850D02*
X795338Y831850D01*
X804863Y831850D02*
X806200Y831250D01*
X1414463Y260350D02*
X1423988Y260350D01*
X1425300Y259750D01*
X1090613Y641350D02*
X1081088Y641350D01*
X1090613Y641350D02*
X1092000Y640750D01*
X1319213Y450850D02*
X1328738Y450850D01*
X1330100Y450250D01*
X995363Y831850D02*
X985838Y831850D01*
X995363Y831850D02*
X996700Y831250D01*
X1604963Y260350D02*
X1614488Y260350D01*
X1615800Y259750D01*
X1281113Y641350D02*
X1271588Y641350D01*
X1281113Y641350D02*
X1282500Y640750D01*
X1509713Y450850D02*
X1519238Y450850D01*
X1520600Y450250D01*
X1185863Y831850D02*
X1176338Y831850D01*
X1185863Y831850D02*
X1187200Y831250D01*
X1462088Y641350D02*
X1471613Y641350D01*
X1473000Y640750D01*
X1700213Y450850D02*
X1709738Y450850D01*
X1711100Y450250D01*
X1376363Y831850D02*
X1366838Y831850D01*
X1376363Y831850D02*
X1377700Y831250D01*
X1652588Y641350D02*
X1662113Y641350D01*
X1663500Y640750D01*
X1566863Y831850D02*
X1557338Y831850D01*
X1566863Y831850D02*
X1568200Y831250D01*
X1747838Y830263D02*
X1757363Y830263D01*
X1758700Y831250D01*
X423863Y1022350D02*
X414338Y1022350D01*
X423863Y1022350D02*
X425200Y1021750D01*
X604838Y1022350D02*
X614363Y1022350D01*
X615700Y1021750D01*
X795338Y1022350D02*
X804863Y1022350D01*
X806200Y1021750D01*
X985838Y1022350D02*
X995363Y1022350D01*
X996700Y1021750D01*
X1176338Y1022350D02*
X1185863Y1022350D01*
X1187200Y1021750D01*
X1366838Y1022350D02*
X1376363Y1022350D01*
X1377700Y1021750D01*
X1524000Y1020763D02*
X1566863Y1020763D01*
X1568200Y1021750D01*
X1962150Y68263D02*
X1971675Y68263D01*
X1973000Y69250D01*
X1804988Y260350D02*
X1795463Y260350D01*
X1804988Y260350D02*
X1806300Y259750D01*
X1985963Y260350D02*
X1995488Y260350D01*
X1996800Y259750D01*
X1900238Y450850D02*
X1890713Y450850D01*
X1900238Y450850D02*
X1901600Y450250D01*
X1852613Y641350D02*
X1843088Y641350D01*
X1852613Y641350D02*
X1854000Y640750D01*
X2033588Y639763D02*
X2043113Y639763D01*
X2044500Y640750D01*
X2200275Y69850D02*
X2209800Y69850D01*
X2211100Y69250D01*
X2176463Y249238D02*
X2185988Y258763D01*
X2187300Y259750D01*
X2090738Y450850D02*
X2081213Y450850D01*
X2090738Y450850D02*
X2092100Y450250D01*
X2271713Y439738D02*
X2281238Y449263D01*
X2282600Y450250D01*
X2438400Y69850D02*
X2447925Y69850D01*
X2449300Y69250D01*
X2676525Y69850D02*
X2686050Y69850D01*
X2687400Y69250D01*
X1947863Y831850D02*
X1938338Y831850D01*
X1947863Y831850D02*
X1949200Y831250D01*
X2532063Y258763D02*
X2543175Y258763D01*
X2532063Y258763D02*
X2506663Y233363D01*
X2543175Y258763D02*
X2544500Y259750D01*
X2233613Y641350D02*
X2224088Y641350D01*
X2233613Y641350D02*
X2235000Y640750D01*
X2530475Y450850D02*
X2541588Y450850D01*
X2541960Y450250D01*
X2938463Y69850D02*
X2947988Y69850D01*
X2949300Y69250D01*
X2424113Y641350D02*
X2414588Y641350D01*
X2424113Y641350D02*
X2425500Y640750D01*
X2328863Y831850D02*
X2319338Y831850D01*
X2328863Y831850D02*
X2330200Y831250D01*
X3128963Y69850D02*
X3138488Y69850D01*
X3139800Y69250D01*
X2662238Y641350D02*
X2652713Y641350D01*
X2662238Y641350D02*
X2663600Y640750D01*
X3319463Y69850D02*
X3328988Y69850D01*
X3330300Y69250D01*
X3138488Y258763D02*
X3132138Y252413D01*
X3130550Y252413D01*
X3138488Y258763D02*
X3139800Y259750D01*
X2614613Y831850D02*
X2605088Y831850D01*
X2614613Y831850D02*
X2616000Y831250D01*
X2938463Y641350D02*
X2947988Y641350D01*
X2949300Y640750D01*
X3652838Y58738D02*
X3662363Y68263D01*
X3663700Y69250D01*
X3138488Y641350D02*
X3128963Y641350D01*
X3138488Y641350D02*
X3139800Y640750D01*
X2947988Y831850D02*
X2938463Y831850D01*
X2947988Y831850D02*
X2949300Y831250D01*
X3557588Y249238D02*
X3567113Y258763D01*
X3568500Y259750D01*
X3138488Y831850D02*
X3128963Y831850D01*
X3138488Y831850D02*
X3139800Y831250D01*
X3319463Y641350D02*
X3328988Y641350D01*
X3330300Y640750D01*
X3938588Y69850D02*
X3948113Y69850D01*
X3949500Y69250D01*
X3757613Y260350D02*
X3748088Y260350D01*
X3757613Y260350D02*
X3759000Y259750D01*
X3567113Y450850D02*
X3557588Y450850D01*
X3567113Y450850D02*
X3568500Y450250D01*
X3328988Y831850D02*
X3319463Y831850D01*
X3328988Y831850D02*
X3330300Y831250D01*
X3748088Y450850D02*
X3757613Y450850D01*
X3759000Y450250D01*
X3938588Y260350D02*
X3948113Y260350D01*
X3949500Y259750D01*
X3567113Y641350D02*
X3557588Y641350D01*
X3567113Y641350D02*
X3568500Y640750D01*
X4183063Y150813D02*
X4227513Y150813D01*
X4310063Y68263D01*
X4183063Y150813D02*
X4181520Y150950D01*
X4310063Y68263D02*
X4310380Y68580D01*
X4311650Y69850D02*
X4329113Y69850D01*
X4330500Y69250D01*
X4311650Y69850D02*
X4310380Y68580D01*
X3948113Y450850D02*
X3938588Y450850D01*
X3948113Y450850D02*
X3949500Y450250D01*
X3757613Y641350D02*
X3748088Y641350D01*
X3757613Y641350D02*
X3759000Y640750D01*
X3567113Y831850D02*
X3557588Y831850D01*
X3567113Y831850D02*
X3568500Y831250D01*
X3748088Y831850D02*
X3757613Y831850D01*
X3759000Y831250D01*
X4303713Y258763D02*
X4329113Y258763D01*
X4303713Y258763D02*
X4298950Y254000D01*
X4329113Y258763D02*
X4330500Y259750D01*
X4298950Y254000D02*
X4297680Y254000D01*
X3948113Y641350D02*
X3938588Y641350D01*
X3948113Y641350D02*
X3949500Y640750D01*
X4183063Y531813D02*
X4225925Y531813D01*
X4310063Y447675D01*
X4183063Y531813D02*
X4181520Y531950D01*
X4310063Y447675D02*
X4310380Y447040D01*
X4310063Y449263D02*
X4329113Y449263D01*
X4330500Y450250D01*
X4310380Y447040D02*
X4310063Y449263D01*
X3948113Y831850D02*
X3938588Y831850D01*
X3948113Y831850D02*
X3949500Y831250D01*
X4129088Y831850D02*
X4138613Y831850D01*
X4140000Y831250D01*
X4305300Y641350D02*
X4329113Y641350D01*
X4330500Y640750D01*
X4305300Y641350D02*
X4305300Y640080D01*
X4319588Y830263D02*
X4329113Y830263D01*
X4319588Y830263D02*
X4300538Y811213D01*
X4329113Y830263D02*
X4330500Y831250D01*
X1757363Y1022350D02*
X1747838Y1022350D01*
X1757363Y1022350D02*
X1758700Y1021750D01*
X2128838Y836613D02*
X2138363Y836613D01*
X2139700Y837250D01*
X1947863Y1022350D02*
X1938338Y1022350D01*
X1947863Y1022350D02*
X1949200Y1021750D01*
X2128838Y1022350D02*
X2138363Y1022350D01*
X2139700Y1021750D01*
X2319338Y1022350D02*
X2328863Y1022350D01*
X2330200Y1021750D01*
X2509838Y1022350D02*
X2519363Y1022350D01*
X2520700Y1021750D01*
X2700338Y1022350D02*
X2709863Y1022350D01*
X2711200Y1021750D01*
X2938463Y1022350D02*
X2947988Y1022350D01*
X2949300Y1021750D01*
X3128963Y1022350D02*
X3138488Y1022350D01*
X3139800Y1021750D01*
X3319463Y1022350D02*
X3328988Y1022350D01*
X3330300Y1021750D01*
X3557588Y1022350D02*
X3567113Y1022350D01*
X3568500Y1021750D01*
X3748088Y1022350D02*
X3757613Y1022350D01*
X3759000Y1021750D01*
X3938588Y1022350D02*
X3948113Y1022350D01*
X3949500Y1021750D01*
X4119563Y1020763D02*
X4148138Y1020763D01*
X4149000Y1021750D01*
X4318000Y1020763D02*
X4325938Y1020763D01*
X4318000Y1020763D02*
X4300538Y1003300D01*
X4325938Y1020763D02*
X4327000Y1021750D01*
D30*
X-157163Y68263D03*
X57150Y69850D03*
X295275Y69850D03*
X152400Y260350D03*
X104775Y450850D03*
X533400Y69850D03*
X461963Y260350D03*
X80963Y641350D03*
X366713Y450850D03*
X652463Y260350D03*
X319088Y641350D03*
X557213Y450850D03*
X223838Y831850D03*
X842963Y260350D03*
X509588Y641350D03*
X738188Y450850D03*
X414338Y831850D03*
X1033463Y260350D03*
X700088Y641350D03*
X1311275Y53975D03*
X938213Y450850D03*
X604838Y831850D03*
X1223963Y249238D03*
X890588Y641350D03*
X1128713Y450850D03*
X795338Y831850D03*
X1414463Y260350D03*
X1081088Y641350D03*
X1319213Y450850D03*
X985838Y831850D03*
X1604963Y260350D03*
X1271588Y641350D03*
X1509713Y450850D03*
X1176338Y831850D03*
X1462088Y641350D03*
X1700213Y450850D03*
X1366838Y831850D03*
X1652588Y641350D03*
X1557338Y831850D03*
X1747838Y830263D03*
X414338Y1022350D03*
X604838Y1022350D03*
X795338Y1022350D03*
X985838Y1022350D03*
X1176338Y1022350D03*
X1366838Y1022350D03*
X1524000Y1020763D03*
X1962150Y68263D03*
X1795463Y260350D03*
X1985963Y260350D03*
X1890713Y450850D03*
X1843088Y641350D03*
X2033588Y639763D03*
X2200275Y69850D03*
X2176463Y249238D03*
X2081213Y450850D03*
X2271713Y439738D03*
X2438400Y69850D03*
X2676525Y69850D03*
X1938338Y831850D03*
X2506663Y233363D03*
X2224088Y641350D03*
X2530475Y450850D03*
X2938463Y69850D03*
X2414588Y641350D03*
X2319338Y831850D03*
X3128963Y69850D03*
X2652713Y641350D03*
X3319463Y69850D03*
X3130550Y252413D03*
X2605088Y831850D03*
X2938463Y641350D03*
X3652838Y58738D03*
X3128963Y641350D03*
X2938463Y831850D03*
X3557588Y249238D03*
X3128963Y831850D03*
X3319463Y641350D03*
X3938588Y69850D03*
X3748088Y260350D03*
X3557588Y450850D03*
X3319463Y831850D03*
X3748088Y450850D03*
X3938588Y260350D03*
X3557588Y641350D03*
X3938588Y450850D03*
X3748088Y641350D03*
X3557588Y831850D03*
X3748088Y831850D03*
X3938588Y641350D03*
X3938588Y831850D03*
X4129088Y831850D03*
X4300538Y811213D03*
X1747838Y1022350D03*
X2128838Y836613D03*
X1938338Y1022350D03*
X2128838Y1022350D03*
X2319338Y1022350D03*
X2509838Y1022350D03*
X2700338Y1022350D03*
X2938463Y1022350D03*
X3128963Y1022350D03*
X3319463Y1022350D03*
X3557588Y1022350D03*
X3748088Y1022350D03*
X3938588Y1022350D03*
X4119563Y1020763D03*
X4300538Y1003300D03*
D28*
X3988054Y1430884D02*
X3996890Y1439720D01*
X4045287Y1439720D01*
X3988054Y1430884D02*
X3986378Y1432560D01*
X3937000Y1432560D01*
X4355846Y1312926D02*
X4355846Y1290066D01*
X4355846Y1312926D02*
X4371560Y1328640D01*
X4420580Y1328640D01*
D26*
X4094680Y1216000D02*
X4076700Y1216000D01*
X4094680Y1216000D02*
X4095430Y1215250D01*
X4095496Y1226058D02*
X4090797Y1230757D01*
X4095496Y1226058D02*
X4095496Y1216816D01*
X4094680Y1216000D01*
X4090797Y1230757D02*
X4090797Y1248283D01*
X4098671Y1248283D02*
X4098671Y1235329D01*
X4109720Y1224280D02*
X4109720Y1206500D01*
X4118470Y1197750D01*
X4118930Y1197750D01*
X4109720Y1224280D02*
X4098671Y1235329D01*
X4118930Y1197750D02*
X4136910Y1197750D01*
X4137660Y1197000D01*
X4122420Y1248156D02*
X4122293Y1248283D01*
X4122420Y1248156D02*
X4122420Y1240818D01*
X4131338Y1231900D01*
X4206350Y1222022D02*
X4206350Y1212011D01*
X4206350Y1222022D02*
X4196472Y1231900D01*
X4193286Y1198947D02*
X4193286Y1198016D01*
X4193286Y1198947D02*
X4206350Y1212011D01*
X4196080Y1231900D02*
X4131338Y1231900D01*
X4196080Y1231900D02*
X4196472Y1231900D01*
X4353560Y1247140D02*
X4355846Y1244854D01*
X4353560Y1247140D02*
X4319431Y1247140D01*
D30*
X4196080Y1231900D03*
X4292600Y1231900D03*
D26*
X4304191Y1231900D01*
X4319431Y1247140D01*
X4416266Y1376426D02*
X4416480Y1376640D01*
X4416266Y1376426D02*
X4407117Y1376426D01*
X4392131Y1361440D02*
X4388968Y1361440D01*
X4392131Y1361440D02*
X4407117Y1376426D01*
D31*
X4416480Y1376640D02*
X4420980Y1376640D01*
X4428480Y1369140D01*
D26*
X4416480Y1371640D02*
X4416421Y1371699D01*
X4407389Y1371699D01*
X4403090Y1367400D01*
X4403090Y1347622D02*
X4396588Y1341120D01*
X4388968Y1341120D01*
X4403090Y1347724D02*
X4403090Y1367400D01*
X4403090Y1347724D02*
X4403090Y1347622D01*
D30*
X4403090Y1347724D03*
X4439666Y1376172D03*
D31*
X4436698Y1379140D02*
X4428480Y1379140D01*
X4436698Y1379140D02*
X4439666Y1376172D01*
D26*
X4177919Y1353439D02*
X4164457Y1353439D01*
X4177919Y1353439D02*
X4180840Y1356360D01*
X4364888Y1356360D02*
X4369968Y1361440D01*
X4364888Y1356360D02*
X4180840Y1356360D01*
X4381056Y1363853D02*
X4391580Y1374377D01*
X4381056Y1363853D02*
X4166997Y1363853D01*
X4164457Y1361313D01*
X4391580Y1374377D02*
X4410089Y1374377D01*
X4411568Y1372899D01*
X4411568Y1352557D02*
X4400131Y1341120D01*
X4369968Y1341120D01*
X4411568Y1352557D02*
X4411568Y1372899D01*
D28*
X4051427Y1403477D02*
X4051427Y1419578D01*
X4051963Y1420114D01*
D30*
X4051963Y1420114D03*
X4123182Y1420114D03*
D28*
X4130167Y1413129D01*
X4130167Y1403477D01*
X4130294Y1413002D02*
X4130167Y1413129D01*
X4130294Y1413002D02*
X4142486Y1413002D01*
X4146296Y1409192D01*
X4146296Y1403858D01*
X4145915Y1403477D01*
X4146296Y1409192D02*
X4147312Y1409192D01*
D26*
X4416480Y1386640D02*
X4417456Y1387616D01*
X4421526Y1387616D01*
X4423050Y1389140D02*
X4428480Y1389140D01*
X4423050Y1389140D02*
X4421526Y1387616D01*
D29*
X4442206Y1389126D02*
X4442460Y1389380D01*
X4442206Y1389126D02*
X4428494Y1389126D01*
X4428480Y1389140D01*
D30*
X4442460Y1389380D03*
D28*
X4114800Y1247902D02*
X4114419Y1248283D01*
X4114800Y1247902D02*
X4114800Y1239520D01*
X4164330Y1369060D02*
X4164457Y1369187D01*
X4162654Y1424534D02*
X4168140Y1424534D01*
X4162654Y1424534D02*
X4147312Y1409192D01*
X4193540Y1399540D02*
X4193540Y1386840D01*
X4193540Y1399540D02*
X4196080Y1402080D01*
X4204360Y1402080D01*
X4193540Y1386840D02*
X4175760Y1369060D01*
X4179443Y1329817D02*
X4164457Y1329817D01*
X4188714Y1320546D02*
X4204360Y1320546D01*
X4188714Y1320546D02*
X4179443Y1329817D01*
X4114800Y1239520D02*
X4119880Y1234440D01*
D30*
X4119880Y1234440D03*
X4157980Y1216660D03*
D28*
X4172610Y1216660D01*
X4172966Y1217016D01*
D30*
X4175760Y1369060D03*
X4179316Y1329944D03*
D28*
X4172966Y1217016D02*
X4193286Y1217016D01*
X4175633Y1369187D02*
X4164457Y1369187D01*
X4175633Y1369187D02*
X4175760Y1369060D01*
X4442460Y1389380D02*
X4447540Y1384300D01*
X4434051Y1359182D02*
X4434009Y1359140D01*
X4434051Y1359182D02*
X4442960Y1359182D01*
X4447540Y1363763D01*
X4447540Y1384300D01*
D29*
X4428522Y1359182D02*
X4428480Y1359140D01*
X4428522Y1359182D02*
X4434051Y1359182D01*
D30*
X-182880Y977900D03*
D28*
X-173097Y987683D01*
X-93980Y987683D01*
X106680Y987683D01*
X87113Y1007250D01*
X86200Y1007250D01*
X-93980Y996930D02*
X-104300Y1007250D01*
X-93980Y996930D02*
X-93980Y987683D01*
X4370579Y987683D02*
X4378087Y995191D01*
X4378087Y1000125D01*
X4378087Y1000760D01*
X277813Y987683D02*
X106680Y987683D01*
X277813Y987683D02*
X468313Y987683D01*
X658813Y987683D01*
X849313Y987683D01*
X1039813Y987683D01*
X1230313Y987683D01*
X1420813Y987683D01*
X1611313Y987683D01*
X1801813Y987683D01*
X1992313Y987683D01*
X2182813Y987683D01*
X2373313Y987683D01*
X2563813Y987683D01*
X2754313Y987683D01*
X2992438Y987683D01*
X3182938Y987683D01*
X3373438Y987683D01*
X3611563Y987683D01*
X3802063Y987683D01*
X3992563Y987683D01*
X4191000Y987683D01*
X4370579Y987683D01*
D30*
X-180340Y800100D03*
D28*
X-150796Y800100D01*
X-147879Y797183D01*
X-93980Y797183D01*
X99060Y797183D01*
X-93980Y806430D02*
X-104300Y816750D01*
X-93980Y806430D02*
X-93980Y797183D01*
X86200Y816750D02*
X99060Y803890D01*
X99060Y797183D01*
D30*
X-180340Y612140D03*
D28*
X-153336Y612140D01*
X-147879Y606683D01*
X-48637Y606683D02*
X-48260Y607060D01*
X89844Y607060D01*
X90221Y606683D01*
X-103188Y606683D02*
X-147879Y606683D01*
X-103188Y606683D02*
X-48637Y606683D01*
X90221Y606683D02*
X134938Y606683D01*
X373063Y606683D01*
X563563Y606683D01*
X754063Y606683D01*
X944563Y606683D01*
X1135063Y606683D01*
X1325563Y606683D01*
X1516063Y606683D01*
X1706563Y606683D01*
X1897063Y606683D01*
X2087563Y606683D01*
X2278063Y606683D01*
X2468563Y606683D01*
X2717800Y606683D01*
X2992438Y606683D01*
X3182938Y606683D01*
X3373438Y606683D01*
X3611563Y606683D01*
X3992563Y606683D01*
X4058920Y606683D01*
D30*
X-180340Y424180D03*
D28*
X-155876Y424180D01*
X-147879Y416183D01*
X747785Y416183D02*
X747788Y416181D01*
X792163Y416181D01*
X992188Y416181D01*
X1182688Y416181D01*
X1373188Y416181D01*
X1563688Y416181D01*
X1754188Y416181D01*
X1944688Y416181D01*
X2135188Y416181D01*
X2325688Y416181D01*
X2401394Y416181D01*
X-103188Y416183D02*
X-147879Y416183D01*
X-103188Y416183D02*
X158750Y416183D01*
X420688Y416183D01*
X611188Y416183D01*
X747785Y416183D01*
D30*
X-180340Y236220D03*
D28*
X-158416Y236220D01*
X-147879Y225683D01*
X4703Y225683D02*
X35560Y256540D01*
X-103188Y225683D02*
X-147879Y225683D01*
X-103188Y225683D02*
X4703Y225683D01*
X35560Y256540D02*
X96520Y256540D01*
X128647Y224413D01*
X206375Y224413D01*
X247273Y224413D01*
X279400Y256540D01*
X322580Y256540D01*
X355600Y223520D01*
X515938Y223520D01*
X706438Y223520D01*
X896938Y223520D01*
X1087438Y223520D01*
X1277938Y223520D01*
X1468438Y223520D01*
X1658938Y223520D01*
X1849438Y223520D01*
X2039938Y223520D01*
X2230438Y223520D01*
X2377440Y223520D01*
X2410460Y256540D01*
X2471420Y256540D01*
X3865503Y225683D02*
X3865880Y226060D01*
X2504440Y223520D02*
X2471420Y256540D01*
X2504440Y223520D02*
X2587625Y223520D01*
X2628900Y223520D01*
X2661920Y256540D01*
X2715260Y256540D01*
X2746117Y225683D01*
X3206750Y225683D01*
X3611563Y225683D01*
X3865503Y225683D01*
D30*
X-182880Y66040D03*
D28*
X-139700Y22860D01*
X-103188Y22860D01*
X111125Y22860D01*
X349250Y22860D01*
X587375Y22860D01*
X723900Y22860D01*
X1765300Y63500D02*
X1793240Y63500D01*
X1833880Y22860D01*
X2016125Y22860D01*
X2254250Y22860D01*
X2492375Y22860D01*
X2992438Y22860D01*
X3182938Y22860D01*
X3373438Y22860D01*
X3510280Y22860D01*
X3858260Y22860D02*
X3992563Y22860D01*
X4378960Y22860D01*
X4391660Y35560D01*
X4391660Y45720D01*
X764540Y63500D02*
X723900Y22860D01*
X764540Y63500D02*
X795020Y63500D01*
X835660Y22860D01*
X1352550Y22860D01*
X1724660Y22860D01*
X1765300Y63500D01*
X3510280Y22860D02*
X3550920Y63500D01*
X3581400Y63500D01*
X3622040Y22860D01*
X3706813Y22860D01*
X3749040Y22860D01*
X3789680Y63500D01*
X3817620Y63500D01*
X3858260Y22860D01*
X4058920Y606683D02*
X4099560Y647323D01*
X4099560Y647700D01*
X4142740Y690880D01*
X4201160Y690880D01*
X4373880Y599440D02*
X4386739Y612299D01*
X4389120Y614680D01*
X4292600Y599440D02*
X4201160Y690880D01*
X4292600Y599440D02*
X4373880Y599440D01*
X2462374Y442872D02*
X2428086Y442872D01*
X2401394Y416181D01*
X2462374Y442872D02*
X2491684Y413563D01*
X2661006Y445412D02*
X2697073Y445412D01*
X2661006Y445412D02*
X2628120Y412526D01*
X2595871Y412771D02*
X2491684Y413563D01*
X2595871Y412771D02*
X2606030Y412694D01*
X2613650Y412636D01*
X2628120Y412526D01*
X2697073Y445412D02*
X2729226Y416181D01*
X3611563Y416181D01*
X3992563Y416181D01*
X4373563Y416181D01*
X4401441Y416181D01*
X4401820Y416560D01*
X277813Y797183D02*
X99060Y797183D01*
X277813Y797183D02*
X468313Y797183D01*
X658813Y797183D01*
X849313Y797183D01*
X1039813Y797183D01*
X1230313Y797183D01*
X1420813Y797183D01*
X1611313Y797183D01*
X1801813Y797183D01*
X1992313Y797183D01*
X2182813Y797183D01*
X2373313Y797183D01*
X2465963Y797183D01*
X2538228Y827516D02*
X2538313Y827594D01*
X2540099Y827516D01*
X2538228Y827516D02*
X2496296Y827516D01*
X2540099Y827516D02*
X2541997Y827516D01*
X2577557Y791956D01*
X2496296Y827516D02*
X2465963Y797183D01*
X2703213Y791956D02*
X2738773Y827516D01*
X2774448Y827516D02*
X2774533Y827594D01*
X2776319Y827516D01*
X2778107Y827516D01*
X2778188Y827435D01*
X2778303Y827430D01*
X2779511Y826112D01*
X2780776Y824847D01*
X2780776Y824732D01*
X2804988Y798319D01*
X2806271Y797036D01*
X4391660Y807720D02*
X4391660Y815340D01*
X2672080Y791956D02*
X2577557Y791956D01*
X2672080Y791956D02*
X2703213Y791956D01*
X2738773Y827516D02*
X2774448Y827516D01*
X2806271Y797036D02*
X2992438Y797036D01*
X3182938Y797036D01*
X3373438Y797036D01*
X3611563Y797036D01*
X3992563Y797036D01*
X4183063Y797036D01*
X4380976Y797036D01*
X4391660Y807720D01*
X4390250Y816750D02*
X4372500Y816750D01*
X4390250Y816750D02*
X4391660Y815340D01*
X3992563Y225683D02*
X3865503Y225683D01*
X3992563Y225683D02*
X4030603Y225683D01*
X4140200Y335280D02*
X4173220Y335280D01*
X4292600Y215900D01*
X4368800Y215900D01*
X4385469Y232569D01*
X4386580Y233680D01*
X4140200Y335280D02*
X4030603Y225683D01*
X4179316Y1329944D02*
X4179888Y1330325D01*
X4179443Y1329817D01*
X-103188Y53975D02*
X-103188Y22860D01*
X-103188Y53975D02*
X-104300Y54750D01*
X111125Y53975D02*
X111125Y22860D01*
X111125Y53975D02*
X110000Y54750D01*
X349250Y53975D02*
X349250Y22860D01*
X349250Y53975D02*
X348100Y54750D01*
X587375Y53975D02*
X587375Y22860D01*
X587375Y53975D02*
X586300Y54750D01*
X2016125Y53975D02*
X2016125Y22860D01*
X2016125Y53975D02*
X2015000Y54750D01*
X2254250Y53975D02*
X2254250Y22860D01*
X2254250Y53975D02*
X2253100Y54750D01*
X2492375Y53975D02*
X2492375Y22860D01*
X2492375Y53975D02*
X2491300Y54750D01*
X-103188Y225683D02*
X-103188Y244475D01*
X-104300Y245250D01*
X-103188Y416183D02*
X-103188Y434975D01*
X-104300Y435750D01*
X206375Y244475D02*
X206375Y224413D01*
X206375Y244475D02*
X205300Y245250D01*
X158750Y416183D02*
X158750Y434975D01*
X157600Y435750D01*
X515938Y244475D02*
X515938Y223520D01*
X515938Y244475D02*
X514800Y245250D01*
X420688Y416183D02*
X420688Y434975D01*
X419600Y435750D01*
X706438Y244475D02*
X706438Y223520D01*
X706438Y244475D02*
X705300Y245250D01*
X611188Y416183D02*
X611188Y434975D01*
X610100Y435750D01*
X896938Y244475D02*
X896938Y223520D01*
X896938Y244475D02*
X895800Y245250D01*
X792163Y416181D02*
X792163Y434975D01*
X791367Y435748D01*
X1087438Y244475D02*
X1087438Y223520D01*
X1087438Y244475D02*
X1086300Y245250D01*
X1301750Y68263D02*
X1308100Y68263D01*
X1352550Y23813D01*
X1301750Y68263D02*
X1300600Y69250D01*
X1352550Y23813D02*
X1352550Y22860D01*
X992188Y416181D02*
X992188Y434975D01*
X991100Y435750D01*
X1277938Y244475D02*
X1277938Y223520D01*
X1277938Y244475D02*
X1276800Y245250D01*
X1182688Y416181D02*
X1182688Y434975D01*
X1181600Y435750D01*
X1468438Y244475D02*
X1468438Y223520D01*
X1468438Y244475D02*
X1467300Y245250D01*
X1373188Y416181D02*
X1373188Y434975D01*
X1372100Y435750D01*
X1658938Y244475D02*
X1658938Y223520D01*
X1658938Y244475D02*
X1657800Y245250D01*
X1563688Y416181D02*
X1563688Y434975D01*
X1562600Y435750D01*
X1849438Y244475D02*
X1849438Y223520D01*
X1849438Y244475D02*
X1848300Y245250D01*
X1754188Y416181D02*
X1754188Y434975D01*
X1753100Y435750D01*
X2039938Y244475D02*
X2039938Y223520D01*
X2039938Y244475D02*
X2038800Y245250D01*
X1944688Y416181D02*
X1944688Y434975D01*
X1943600Y435750D01*
X2135188Y434975D02*
X2135188Y416181D01*
X2135188Y434975D02*
X2134100Y435750D01*
X-103188Y606683D02*
X-103188Y625475D01*
X-104300Y626250D01*
X134938Y625475D02*
X134938Y606683D01*
X134938Y625475D02*
X133800Y626250D01*
X373063Y625475D02*
X373063Y606683D01*
X373063Y625475D02*
X372000Y626250D01*
X277813Y797183D02*
X277813Y815975D01*
X276700Y816750D01*
X563563Y625475D02*
X563563Y606683D01*
X563563Y625475D02*
X562500Y626250D01*
X277813Y987683D02*
X277813Y1006475D01*
X276700Y1007250D01*
X468313Y815975D02*
X468313Y797183D01*
X468313Y815975D02*
X467200Y816750D01*
X754063Y625475D02*
X754063Y606683D01*
X754063Y625475D02*
X753000Y626250D01*
X658813Y797183D02*
X658813Y815975D01*
X657700Y816750D01*
X468313Y987683D02*
X468313Y1006475D01*
X467200Y1007250D01*
X944563Y625475D02*
X944563Y606683D01*
X944563Y625475D02*
X943500Y626250D01*
X658813Y987683D02*
X658813Y1006475D01*
X657700Y1007250D01*
X849313Y815975D02*
X849313Y797183D01*
X849313Y815975D02*
X848200Y816750D01*
X1135063Y625475D02*
X1135063Y606683D01*
X1135063Y625475D02*
X1134000Y626250D01*
X1039813Y797183D02*
X1039813Y815975D01*
X1038700Y816750D01*
X849313Y987683D02*
X849313Y1006475D01*
X848200Y1007250D01*
X1325563Y625475D02*
X1325563Y606683D01*
X1325563Y625475D02*
X1324500Y626250D01*
X1039813Y987683D02*
X1039813Y1006475D01*
X1038700Y1007250D01*
X1230313Y815975D02*
X1230313Y797183D01*
X1230313Y815975D02*
X1229200Y816750D01*
X1516063Y625475D02*
X1516063Y606683D01*
X1516063Y625475D02*
X1515000Y626250D01*
X1420813Y797183D02*
X1420813Y815975D01*
X1419700Y816750D01*
X1230313Y987683D02*
X1230313Y1006475D01*
X1229200Y1007250D01*
X1420813Y1006475D02*
X1420813Y987683D01*
X1420813Y1006475D02*
X1419700Y1007250D01*
X1611313Y815975D02*
X1611313Y797183D01*
X1611313Y815975D02*
X1610200Y816750D01*
X1611313Y987683D02*
X1611313Y1006475D01*
X1610200Y1007250D01*
X1706563Y625475D02*
X1706563Y606683D01*
X1706563Y625475D02*
X1705500Y626250D01*
X1801813Y797183D02*
X1801813Y815975D01*
X1800700Y816750D01*
X1897063Y625475D02*
X1897063Y606683D01*
X1897063Y625475D02*
X1896000Y626250D01*
X2087563Y625475D02*
X2087563Y606683D01*
X2087563Y625475D02*
X2086500Y626250D01*
X2230438Y244475D02*
X2230438Y223520D01*
X2230438Y244475D02*
X2229300Y245250D01*
X2325688Y416181D02*
X2325688Y434975D01*
X2324600Y435750D01*
X1801813Y987683D02*
X1801813Y1006475D01*
X1800700Y1007250D01*
X2587625Y244475D02*
X2587625Y223520D01*
X2587625Y244475D02*
X2586500Y245250D01*
X1992313Y797183D02*
X1992313Y815975D01*
X1991200Y816750D01*
X2278063Y625475D02*
X2278063Y606683D01*
X2278063Y625475D02*
X2277000Y626250D01*
X2182813Y797183D02*
X2182813Y822325D01*
X2181700Y822750D01*
X1992313Y987683D02*
X1992313Y1006475D01*
X1991200Y1007250D01*
X2992438Y53975D02*
X2992438Y22860D01*
X2992438Y53975D02*
X2991300Y54750D01*
X2468563Y606683D02*
X2468563Y625475D01*
X2467500Y626250D01*
X2182813Y987683D02*
X2182813Y1006475D01*
X2181700Y1007250D01*
X2373313Y815975D02*
X2373313Y797183D01*
X2373313Y815975D02*
X2372200Y816750D01*
X3182938Y53975D02*
X3182938Y22860D01*
X3182938Y53975D02*
X3181800Y54750D01*
X2373313Y987683D02*
X2373313Y1006475D01*
X2372200Y1007250D01*
X3373438Y53975D02*
X3373438Y22860D01*
X3373438Y53975D02*
X3372300Y54750D01*
X3189288Y244475D02*
X3182938Y244475D01*
X3189288Y244475D02*
X3206750Y227013D01*
X3182938Y244475D02*
X3181800Y245250D01*
X3206750Y227013D02*
X3206750Y225683D01*
X2563813Y987683D02*
X2563813Y1006475D01*
X2562700Y1007250D01*
X2992438Y625475D02*
X2992438Y606683D01*
X2992438Y625475D02*
X2991300Y626250D01*
X2754313Y987683D02*
X2754313Y1006475D01*
X2753200Y1007250D01*
X3706813Y53975D02*
X3706813Y22860D01*
X3706813Y53975D02*
X3705700Y54750D01*
X3182938Y606683D02*
X3182938Y625475D01*
X3181800Y626250D01*
X2992438Y797036D02*
X2992438Y815975D01*
X2991300Y816750D01*
X3611563Y244475D02*
X3611563Y225683D01*
X3611563Y244475D02*
X3610500Y245250D01*
X3373438Y606683D02*
X3373438Y625475D01*
X3372300Y626250D01*
X2992438Y987683D02*
X2992438Y1006475D01*
X2991300Y1007250D01*
X3182938Y815975D02*
X3182938Y797036D01*
X3182938Y815975D02*
X3181800Y816750D01*
X3992563Y53975D02*
X3992563Y22860D01*
X3992563Y53975D02*
X3991500Y54750D01*
X3611563Y416181D02*
X3611563Y434975D01*
X3610500Y435750D01*
X3373438Y797036D02*
X3373438Y815975D01*
X3372300Y816750D01*
X3182938Y987683D02*
X3182938Y1006475D01*
X3181800Y1007250D01*
X3992563Y244475D02*
X3992563Y225683D01*
X3992563Y244475D02*
X3991500Y245250D01*
X3611563Y606683D02*
X3611563Y625475D01*
X3610500Y626250D01*
X4183063Y165100D02*
X4340225Y165100D01*
X4376738Y128588D01*
X4410075Y128588D01*
X4424363Y114300D01*
X4424363Y79375D01*
X4398169Y53181D02*
X4392613Y47625D01*
X4398169Y53181D02*
X4424363Y79375D01*
X4183063Y165100D02*
X4181520Y165450D01*
X4392613Y47625D02*
X4391660Y45720D01*
X3373438Y987683D02*
X3373438Y1006475D01*
X3372300Y1007250D01*
X3992563Y434975D02*
X3992563Y416181D01*
X3992563Y434975D02*
X3991500Y435750D01*
X3611563Y797036D02*
X3611563Y815975D01*
X3610500Y816750D01*
X3992563Y625475D02*
X3992563Y606683D01*
X3992563Y625475D02*
X3991500Y626250D01*
X3611563Y987683D02*
X3611563Y1006475D01*
X3610500Y1007250D01*
X3802063Y1006475D02*
X3802063Y987683D01*
X3802063Y1006475D02*
X3801000Y1007250D01*
X3992563Y815975D02*
X3992563Y797036D01*
X3992563Y815975D02*
X3991500Y816750D01*
X4183063Y546100D02*
X4340225Y546100D01*
X4376738Y509588D01*
X4410075Y509588D01*
X4424363Y495300D01*
X4424363Y438150D01*
X4403725Y417513D01*
X4183063Y546100D02*
X4181520Y546450D01*
X4401820Y416560D02*
X4403725Y417513D01*
X4183063Y797036D02*
X4183063Y815975D01*
X4182000Y816750D01*
X3992563Y987683D02*
X3992563Y1006475D01*
X3991500Y1007250D01*
X4191000Y1007250D02*
X4191000Y987683D01*
X4370388Y1006475D02*
X4376738Y1000125D01*
X4370388Y1006475D02*
X4369000Y1007250D01*
X4376738Y1000125D02*
X4378087Y1000125D01*
X4373563Y53975D02*
X4397375Y53975D01*
X4373563Y53975D02*
X4372500Y54750D01*
X4397375Y53975D02*
X4398169Y53181D01*
X4385469Y232569D02*
X4373563Y244475D01*
X4372500Y245250D01*
X4373563Y416181D02*
X4373563Y434975D01*
X4372500Y435750D01*
X4386739Y612299D02*
X4373563Y625475D01*
X4372500Y626250D01*
X2672080Y802670D02*
X2658000Y816750D01*
X2672080Y802670D02*
X2672080Y791956D01*
X2705600Y626250D02*
X2717800Y614050D01*
X2717800Y606683D01*
X4042057Y1430020D02*
X4051963Y1420114D01*
X4005684Y1417424D02*
X4005684Y1422976D01*
X4012729Y1430020D01*
X4000144Y1411884D02*
X3988054Y1411884D01*
X4012729Y1430020D02*
X4042057Y1430020D01*
X4005684Y1417424D02*
X4000144Y1411884D01*
D26*
X4008628Y1346200D02*
X3976980Y1346200D01*
X4008628Y1346200D02*
X4009263Y1345565D01*
X4164457Y1274699D02*
X4176141Y1274699D01*
X4273550Y1177290D02*
X4399280Y1177290D01*
X4273550Y1177290D02*
X4176141Y1274699D01*
X4399280Y1177290D02*
X4430220Y1146350D01*
X4432600Y1146350D01*
X146300Y1144250D02*
X-44200Y1144250D01*
X146300Y1144250D02*
X336800Y1144250D01*
X4250000Y1146350D02*
X4432600Y1146350D01*
X4250000Y1146350D02*
X4053700Y1146350D01*
X4051600Y1144250D01*
X3861100Y1144250D01*
X3670600Y1144250D01*
X3432400Y1144250D01*
X3241900Y1144250D01*
X3051400Y1144250D01*
X2813300Y1144250D01*
X2622800Y1144250D01*
X2432300Y1144250D01*
X2241800Y1144250D01*
X2051300Y1144250D01*
X1860800Y1144250D01*
X1670300Y1144250D01*
X1479800Y1144250D01*
X1289300Y1144250D01*
X1098800Y1144250D01*
X908300Y1144250D01*
X717800Y1144250D01*
X527300Y1144250D01*
X336800Y1144250D01*
X4164457Y1282573D02*
X4179403Y1282573D01*
X4276812Y1185164D02*
X4411432Y1185164D01*
X4276812Y1185164D02*
X4179403Y1282573D01*
X4467860Y1128736D02*
X4467860Y988060D01*
X4467860Y1128736D02*
X4411432Y1185164D01*
X4467860Y988060D02*
X4432600Y952800D01*
X4432600Y953750D01*
X-14970Y982980D02*
X-44200Y953750D01*
X-14970Y982980D02*
X175530Y982980D01*
X358140Y982980D01*
X175530Y982980D02*
X146300Y953750D01*
X336800Y953750D02*
X336800Y961640D01*
X358140Y982980D01*
X4403370Y982980D02*
X4432600Y953750D01*
X527050Y982980D02*
X358140Y982980D01*
X527050Y982980D02*
X717550Y982980D01*
X908050Y982980D01*
X1098550Y982980D01*
X1289050Y982980D01*
X1479550Y982980D01*
X1670050Y982980D01*
X1860550Y982980D01*
X2051050Y982980D01*
X2241550Y982980D01*
X2432050Y982980D01*
X2719388Y982980D01*
X3051175Y982980D01*
X3241675Y982980D01*
X3432175Y982980D01*
X3671888Y982980D01*
X3862388Y982980D01*
X4052888Y982980D01*
X4243388Y982980D01*
X4403370Y982980D01*
X527050Y982980D02*
X527050Y954088D01*
X527300Y953750D01*
X717550Y954088D02*
X717550Y982980D01*
X717550Y954088D02*
X717800Y953750D01*
X908050Y954088D02*
X908050Y982980D01*
X908050Y954088D02*
X908300Y953750D01*
X1098550Y954088D02*
X1098550Y982980D01*
X1098550Y954088D02*
X1098800Y953750D01*
X1289050Y954088D02*
X1289050Y982980D01*
X1289050Y954088D02*
X1289300Y953750D01*
X1479550Y954088D02*
X1479550Y982980D01*
X1479550Y954088D02*
X1479800Y953750D01*
X1670050Y954088D02*
X1670050Y982980D01*
X1670050Y954088D02*
X1670300Y953750D01*
X1860550Y954088D02*
X1860550Y982980D01*
X1860550Y954088D02*
X1860800Y953750D01*
X2051050Y954088D02*
X2051050Y982980D01*
X2051050Y954088D02*
X2051300Y953750D01*
X2241550Y954088D02*
X2241550Y982980D01*
X2241550Y954088D02*
X2241800Y953750D01*
X2432050Y954088D02*
X2432050Y982980D01*
X2432050Y954088D02*
X2432300Y953750D01*
X2719388Y954088D02*
X2719388Y982980D01*
X2719388Y954088D02*
X2718100Y953750D01*
X3051175Y954088D02*
X3051175Y982980D01*
X3051175Y954088D02*
X3051400Y953750D01*
X3241675Y954088D02*
X3241675Y982980D01*
X3241675Y954088D02*
X3241900Y953750D01*
X3432175Y954088D02*
X3432175Y982980D01*
X3432175Y954088D02*
X3432400Y953750D01*
X3671888Y954088D02*
X3671888Y982980D01*
X3671888Y954088D02*
X3670600Y953750D01*
X3862388Y954088D02*
X3862388Y982980D01*
X3862388Y954088D02*
X3861100Y953750D01*
X4052888Y954088D02*
X4052888Y982980D01*
X4052888Y954088D02*
X4051600Y953750D01*
X4243388Y954088D02*
X4243388Y982980D01*
X4243388Y954088D02*
X4242100Y953750D01*
X4182664Y1290447D02*
X4164457Y1290447D01*
X4280073Y1193038D02*
X4414693Y1193038D01*
X4280073Y1193038D02*
X4182664Y1290447D01*
X4475734Y1131997D02*
X4475734Y800100D01*
X4475734Y1131997D02*
X4414693Y1193038D01*
X4432600Y763250D02*
X4432600Y756966D01*
X4475734Y800100D01*
X-4970Y792480D02*
X-34200Y763250D01*
X-4970Y792480D02*
X193675Y792480D01*
X433388Y792480D01*
X623888Y792480D01*
X814388Y792480D01*
X1004888Y792480D01*
X1195388Y792480D01*
X1385888Y792480D01*
X1576388Y792480D01*
X1766888Y792480D01*
X1957388Y792480D01*
X2147888Y792480D01*
X2338388Y792480D01*
X2471420Y792480D01*
X2501900Y822960D02*
X2540000Y822960D01*
X2501900Y822960D02*
X2471420Y792480D01*
X2540000Y822960D02*
X2572597Y787400D01*
X2574925Y787400D01*
X2705100Y787400D01*
X2740660Y822960D01*
X2776220Y822960D01*
X2804160Y792480D01*
X2819400Y792480D01*
X3051175Y792480D01*
X3241675Y792480D01*
X3432175Y792480D01*
X3671888Y792480D01*
X3862388Y792480D01*
X4052888Y792480D01*
X4256088Y792480D01*
X4403370Y792480D01*
X4432600Y763250D01*
X193675Y763588D02*
X193675Y792480D01*
X193675Y763588D02*
X193900Y763250D01*
X433388Y763588D02*
X433388Y792480D01*
X433388Y763588D02*
X432100Y763250D01*
X623888Y763588D02*
X623888Y792480D01*
X623888Y763588D02*
X622600Y763250D01*
X814388Y763588D02*
X814388Y792480D01*
X814388Y763588D02*
X813100Y763250D01*
X1004888Y763588D02*
X1004888Y792480D01*
X1004888Y763588D02*
X1003600Y763250D01*
X1195388Y763588D02*
X1195388Y792480D01*
X1195388Y763588D02*
X1194100Y763250D01*
X1385888Y763588D02*
X1385888Y792480D01*
X1385888Y763588D02*
X1384600Y763250D01*
X1576388Y763588D02*
X1576388Y792480D01*
X1576388Y763588D02*
X1575100Y763250D01*
X1766888Y763588D02*
X1766888Y792480D01*
X1766888Y763588D02*
X1765600Y763250D01*
X1957388Y763588D02*
X1957388Y792480D01*
X1957388Y763588D02*
X1956100Y763250D01*
X2147888Y763588D02*
X2147888Y792480D01*
X2147888Y763588D02*
X2146600Y763250D01*
X2338388Y763588D02*
X2338388Y792480D01*
X2338388Y763588D02*
X2337100Y763250D01*
X2528888Y741363D02*
X2574925Y787400D01*
X2528888Y741363D02*
X2527600Y740390D01*
X2768600Y741363D02*
X2819400Y792163D01*
X2768600Y741363D02*
X2768240Y740390D01*
X2819400Y792163D02*
X2819400Y792480D01*
X3051175Y792480D02*
X3051175Y763588D01*
X3051400Y763250D01*
X3241675Y763588D02*
X3241675Y792480D01*
X3241675Y763588D02*
X3241900Y763250D01*
X3432175Y763588D02*
X3432175Y792480D01*
X3432175Y763588D02*
X3432400Y763250D01*
X3671888Y763588D02*
X3671888Y792480D01*
X3671888Y763588D02*
X3670600Y763250D01*
X3862388Y763588D02*
X3862388Y792480D01*
X3862388Y763588D02*
X3861100Y763250D01*
X4052888Y763588D02*
X4052888Y792480D01*
X4052888Y763588D02*
X4051600Y763250D01*
X4256088Y763588D02*
X4256088Y792480D01*
X4256088Y763588D02*
X4254800Y762030D01*
X4185926Y1298321D02*
X4164457Y1298321D01*
X4283335Y1200912D02*
X4417955Y1200912D01*
X4283335Y1200912D02*
X4185926Y1298321D01*
X4483608Y1135259D02*
X4483608Y614680D01*
X4483608Y1135259D02*
X4417955Y1200912D01*
X4483608Y614680D02*
X4432600Y563672D01*
X4432600Y572750D01*
X5554Y602504D02*
X-24200Y572750D01*
X87957Y602504D02*
X88334Y602127D01*
X217488Y602127D01*
X481013Y602127D01*
X671513Y602127D01*
X862013Y602127D01*
X1052513Y602127D01*
X1243013Y602127D01*
X1433513Y602127D01*
X1624013Y602127D01*
X1814513Y602127D01*
X2005013Y602127D01*
X2195513Y602127D01*
X2386013Y602127D01*
X2713038Y602127D01*
X3671888Y602127D01*
X3862388Y602127D01*
X4052888Y602127D01*
X4063853Y602127D01*
X4064000Y601980D01*
X87957Y602504D02*
X5554Y602504D01*
X4064000Y601980D02*
X4066540Y601980D01*
X4147820Y683260D01*
X4201160Y683260D01*
X4311670Y572750D02*
X4432600Y572750D01*
X4311670Y572750D02*
X4201160Y683260D01*
X217488Y602127D02*
X217488Y573088D01*
X217700Y572750D01*
X481013Y573088D02*
X481013Y602127D01*
X481013Y573088D02*
X479700Y572750D01*
X671513Y573088D02*
X671513Y602127D01*
X671513Y573088D02*
X670200Y572750D01*
X862013Y573088D02*
X862013Y602127D01*
X862013Y573088D02*
X860700Y572750D01*
X1052513Y573088D02*
X1052513Y602127D01*
X1052513Y573088D02*
X1051200Y572750D01*
X1243013Y573088D02*
X1243013Y602127D01*
X1243013Y573088D02*
X1241700Y572750D01*
X1433513Y573088D02*
X1433513Y602127D01*
X1433513Y573088D02*
X1432200Y572750D01*
X1624013Y573088D02*
X1624013Y602127D01*
X1624013Y573088D02*
X1622700Y572750D01*
X1814513Y573088D02*
X1814513Y602127D01*
X1814513Y573088D02*
X1813200Y572750D01*
X2005013Y573088D02*
X2005013Y602127D01*
X2005013Y573088D02*
X2003700Y572750D01*
X2195513Y573088D02*
X2195513Y602127D01*
X2195513Y573088D02*
X2194200Y572750D01*
X2386013Y573088D02*
X2386013Y602127D01*
X2386013Y573088D02*
X2384700Y572750D01*
X2713038Y576263D02*
X2713038Y602127D01*
X2713038Y576263D02*
X2711980Y575290D01*
X3671888Y573088D02*
X3671888Y602127D01*
X3671888Y573088D02*
X3670600Y572750D01*
X3862388Y573088D02*
X3862388Y602127D01*
X3862388Y573088D02*
X3861100Y572750D01*
X4052888Y573088D02*
X4052888Y602127D01*
X4052888Y573088D02*
X4051600Y572750D01*
X4164457Y1306195D02*
X4189188Y1306195D01*
X4286597Y1208786D02*
X4421217Y1208786D01*
X4286597Y1208786D02*
X4189188Y1306195D01*
X4491482Y1138520D02*
X4491482Y434340D01*
X4491482Y1138520D02*
X4421217Y1208786D01*
X4432600Y375458D02*
X4432600Y374630D01*
X4432600Y375458D02*
X4491482Y434340D01*
X2650Y411480D02*
X-34200Y374630D01*
X2403137Y411480D02*
X2429658Y438002D01*
X2517125Y406278D02*
X2517139Y406293D01*
X2517125Y406278D02*
X2492316Y406467D01*
X2460782Y438002D01*
X2429658Y438002D01*
X2631333Y406293D02*
X2664460Y439420D01*
X2696757Y439420D01*
X2724239Y414435D01*
X2727424Y411540D01*
X2727900Y411540D02*
X2730500Y408940D01*
X2727900Y411540D02*
X2727424Y411540D01*
X4398290Y408940D02*
X4432600Y374630D01*
X266700Y411480D02*
X2650Y411480D01*
X266700Y411480D02*
X574675Y411480D01*
X765175Y411480D01*
X955675Y411480D01*
X1146175Y411480D01*
X1336675Y411480D01*
X1527175Y411480D01*
X1717675Y411480D01*
X1908175Y411480D01*
X2098675Y411480D01*
X2252663Y411480D01*
X2403137Y411480D01*
X2517139Y406293D02*
X2631333Y406293D01*
X2730500Y408940D02*
X3241675Y408940D01*
X3671888Y408940D01*
X3862388Y408940D01*
X4041775Y408940D01*
X4260850Y408940D01*
X4398290Y408940D01*
X266700Y411480D02*
X266700Y374650D01*
X265400Y374630D01*
X574675Y374650D02*
X574675Y411480D01*
X574675Y374650D02*
X574900Y374630D01*
X765175Y374650D02*
X765175Y411480D01*
X765175Y374650D02*
X765400Y374630D01*
X955675Y374650D02*
X955675Y411480D01*
X955675Y374650D02*
X955900Y374630D01*
X1146175Y374650D02*
X1146175Y411480D01*
X1146175Y374650D02*
X1146400Y374630D01*
X1336675Y374650D02*
X1336675Y411480D01*
X1336675Y374650D02*
X1336900Y374630D01*
X1527175Y374650D02*
X1527175Y411480D01*
X1527175Y374650D02*
X1527400Y374630D01*
X1717675Y374650D02*
X1717675Y411480D01*
X1717675Y374650D02*
X1717900Y374630D01*
X1908175Y374650D02*
X1908175Y411480D01*
X1908175Y374650D02*
X1908400Y374630D01*
X2098675Y374650D02*
X2098675Y411480D01*
X2098675Y374650D02*
X2098900Y374630D01*
X2252663Y411163D02*
X2289175Y374650D01*
X2289400Y374630D01*
X2252663Y411163D02*
X2252663Y411480D01*
X2724150Y414338D02*
X2724150Y377825D01*
X2722800Y377170D01*
X2724150Y414338D02*
X2724239Y414435D01*
X3241675Y408940D02*
X3241675Y374650D01*
X3241900Y374630D01*
X3671888Y374650D02*
X3671888Y408940D01*
X3671888Y374650D02*
X3670600Y374630D01*
X3862388Y374650D02*
X3862388Y408940D01*
X3862388Y374650D02*
X3861100Y374630D01*
X4041775Y374650D02*
X4041775Y408940D01*
X4041775Y374650D02*
X4041440Y374630D01*
X4260850Y371475D02*
X4260850Y408940D01*
X4260850Y371475D02*
X4259880Y370870D01*
X4192449Y1314069D02*
X4164457Y1314069D01*
X4289858Y1216660D02*
X4424478Y1216660D01*
X4289858Y1216660D02*
X4192449Y1314069D01*
X4499356Y1141782D02*
X4499356Y248920D01*
X4499356Y1141782D02*
X4424478Y1216660D01*
X4499356Y248920D02*
X4432600Y182164D01*
X4432600Y191750D01*
X-9890Y220980D02*
X-44200Y186670D01*
X38624Y251984D02*
X93980Y251984D01*
X128532Y217432D01*
X7620Y220980D02*
X-9890Y220980D01*
X7620Y220980D02*
X38624Y251984D01*
X128532Y217432D02*
X169863Y217432D01*
X246735Y217432D01*
X320040Y251460D02*
X353060Y218440D01*
X280763Y251460D02*
X246735Y217432D01*
X280763Y251460D02*
X320040Y251460D01*
X353060Y218440D02*
X407988Y218440D01*
X647700Y218440D01*
X1360488Y218440D01*
X2074863Y218440D01*
X2312988Y218440D01*
X2378803Y218440D01*
X2411823Y251460D01*
X2470057Y251460D01*
X2502171Y219346D01*
X2502553Y218964D01*
X2631964Y218964D01*
X2664460Y251460D01*
X2713897Y251460D02*
X2744230Y221127D01*
X2776073Y221127D02*
X2776220Y220980D01*
X2776073Y221127D02*
X2744230Y221127D01*
X2776220Y220980D02*
X2790825Y220980D01*
X3051175Y220980D01*
X3241675Y220980D01*
X3432175Y220980D01*
X3765550Y220980D01*
X4017963Y220980D01*
X4033520Y220980D01*
X2713897Y251460D02*
X2664460Y251460D01*
X4033520Y220980D02*
X4142740Y330200D01*
X4170680Y330200D01*
X4309130Y191750D02*
X4432600Y191750D01*
X4309130Y191750D02*
X4170680Y330200D01*
X169863Y217432D02*
X169863Y187325D01*
X170100Y186670D01*
X407988Y187325D02*
X407988Y218440D01*
X407988Y187325D02*
X408200Y186670D01*
X647700Y187325D02*
X647700Y218440D01*
X647700Y187325D02*
X646400Y186670D01*
X1360488Y187325D02*
X1360488Y218440D01*
X1360488Y187325D02*
X1360700Y186670D01*
X2074863Y187325D02*
X2074863Y218440D01*
X2074863Y187325D02*
X2075100Y186670D01*
X2312988Y187325D02*
X2312988Y218440D01*
X2312988Y187325D02*
X2313200Y186670D01*
X2533650Y187325D02*
X2551113Y187325D01*
X2533650Y187325D02*
X2501900Y219075D01*
X2551113Y187325D02*
X2551400Y186670D01*
X2502171Y219346D02*
X2501900Y219075D01*
X2790825Y220980D02*
X2790825Y187325D01*
X2789500Y186670D01*
X3051175Y187325D02*
X3051175Y220980D01*
X3051175Y187325D02*
X3051400Y186670D01*
X3241675Y187325D02*
X3241675Y220980D01*
X3241675Y187325D02*
X3241900Y186670D01*
X3432175Y187325D02*
X3432175Y220980D01*
X3432175Y187325D02*
X3432400Y186670D01*
X3765550Y187325D02*
X3765550Y220980D01*
X3765550Y187325D02*
X3765800Y186670D01*
X4017963Y220663D02*
X4051300Y187325D01*
X4051600Y186670D01*
X4017963Y220663D02*
X4017963Y220980D01*
X4035679Y1403477D02*
X4035679Y1410081D01*
X4025824Y1419936D02*
X4013022Y1419936D01*
D30*
X4013022Y1419936D03*
D26*
X4025824Y1419936D02*
X4035679Y1410081D01*
X-150813Y196850D02*
X-150813Y147638D01*
X-150813Y196850D02*
X-196850Y242888D01*
X-196850Y304800D01*
X-179388Y322263D01*
X-163513Y322263D01*
X-150813Y147638D02*
X-150300Y147000D01*
X-163513Y322263D02*
X-163400Y322900D01*
X-163513Y512763D02*
X-179388Y512763D01*
X-196850Y495300D01*
X-196850Y304800D01*
X-163513Y512763D02*
X-163400Y513400D01*
X-163513Y703263D02*
X-179388Y703263D01*
X-196850Y685800D01*
X-196850Y495300D01*
X-163513Y703263D02*
X-163400Y703900D01*
X-163513Y893763D02*
X-179388Y893763D01*
X-196850Y876300D01*
X-196850Y685800D01*
X-163513Y893763D02*
X-163400Y894400D01*
X2257425Y152400D02*
X2259013Y152400D01*
X2312988Y152400D01*
X2313200Y153970D01*
X2257425Y152400D02*
X2257100Y152000D01*
X2259013Y152400D02*
X2259013Y157163D01*
X2257500Y157800D01*
X2259013Y152400D02*
X2257100Y152000D01*
X4020566Y1410716D02*
X4027805Y1403477D01*
X4020566Y1410716D02*
X4013200Y1410716D01*
D30*
X4013200Y1410716D03*
X15240Y976674D03*
D26*
X15240Y955040D01*
X40200Y930080D02*
X40200Y909000D01*
X40200Y930080D02*
X15240Y955040D01*
X40200Y909000D02*
X40200Y907500D01*
X27100Y894400D01*
D30*
X10160Y784860D03*
D26*
X21440Y784860D01*
X87800Y718500D01*
X65088Y169863D02*
X65088Y147638D01*
X65088Y169863D02*
X114300Y219075D01*
X65088Y147638D02*
X64000Y147000D01*
X158750Y338138D02*
X100013Y396875D01*
X158750Y338138D02*
X159300Y337500D01*
X111125Y528638D02*
X49213Y590550D01*
X111125Y528638D02*
X111600Y528000D01*
D30*
X114300Y219075D03*
X100013Y396875D03*
X49213Y590550D03*
D26*
X3995716Y1384935D02*
X4009263Y1384935D01*
X3995716Y1384935D02*
X3987800Y1392851D01*
D30*
X3987800Y1392851D03*
X210820Y976674D03*
D26*
X230700Y956794D01*
X230700Y909000D01*
X217600Y895900D01*
X217600Y894400D01*
X306388Y595313D02*
X373063Y528638D01*
X373600Y528000D01*
X366713Y211138D02*
X303213Y147638D01*
X302100Y147000D01*
X455613Y323850D02*
X382588Y396875D01*
X455613Y323850D02*
X455700Y322900D01*
X327025Y719138D02*
X327025Y785813D01*
X327025Y719138D02*
X326000Y718500D01*
D30*
X306388Y595313D03*
X366713Y211138D03*
X382588Y396875D03*
X327025Y785813D03*
D26*
X3994502Y1377061D02*
X4009263Y1377061D01*
X3994502Y1377061D02*
X3987800Y1383763D01*
D30*
X3987800Y1383763D03*
D26*
X541338Y211138D02*
X541338Y147638D01*
X540300Y147000D01*
X420688Y909638D02*
X420688Y976313D01*
X420688Y909638D02*
X421200Y909000D01*
X496888Y595313D02*
X563563Y528638D01*
X564100Y528000D01*
X517525Y719138D02*
X517525Y782638D01*
X517525Y719138D02*
X516500Y718500D01*
X660400Y404813D02*
X660400Y338138D01*
X659300Y337500D01*
D30*
X541338Y211138D03*
X420688Y976313D03*
X496888Y595313D03*
X517525Y782638D03*
X660400Y404813D03*
D26*
X3993288Y1369187D02*
X4009263Y1369187D01*
X3993288Y1369187D02*
X3987800Y1374675D01*
D30*
X3987800Y1374675D03*
D26*
X611188Y976313D02*
X611188Y909638D01*
X611700Y909000D01*
X682625Y590550D02*
X744538Y528638D01*
X745367Y527998D01*
X849313Y404813D02*
X849313Y338138D01*
X849800Y337500D01*
X708025Y719138D02*
X708025Y782638D01*
X708025Y719138D02*
X707000Y718500D01*
D30*
X611188Y976313D03*
X682625Y590550D03*
X849313Y404813D03*
X708025Y782638D03*
D26*
X3991765Y1361313D02*
X4009263Y1361313D01*
X3991765Y1361313D02*
X3987491Y1365587D01*
D30*
X3987491Y1365587D03*
D26*
X801688Y976313D02*
X801688Y909638D01*
X802200Y909000D01*
X882650Y590550D02*
X944563Y528638D01*
X945100Y528000D01*
X1041400Y404813D02*
X1041400Y338138D01*
X1040300Y337500D01*
X898525Y719138D02*
X898525Y782638D01*
X898525Y719138D02*
X897500Y718500D01*
D30*
X801688Y976313D03*
X882650Y590550D03*
X1041400Y404813D03*
X898525Y782638D03*
D26*
X3993261Y1353439D02*
X4009263Y1353439D01*
X3987800Y1358900D02*
X3970274Y1358900D01*
X3970274Y1360678D01*
D30*
X3970274Y1360678D03*
D26*
X3987800Y1358900D02*
X3993261Y1353439D01*
X1254125Y204788D02*
X1254125Y147638D01*
X1254600Y147000D01*
X992188Y909638D02*
X992188Y976313D01*
X992188Y909638D02*
X992700Y909000D01*
X1068388Y595313D02*
X1135063Y528638D01*
X1135600Y528000D01*
X1089025Y719138D02*
X1089025Y782638D01*
X1089025Y719138D02*
X1088000Y718500D01*
X1231900Y404813D02*
X1231900Y338138D01*
X1230800Y337500D01*
D30*
X1254125Y204788D03*
X992188Y976313D03*
X1068388Y595313D03*
X1089025Y782638D03*
X1231900Y404813D03*
D26*
X3997071Y1337691D02*
X4009263Y1337691D01*
X3972830Y1333770D02*
X3970020Y1330960D01*
D30*
X3970020Y1330960D03*
D26*
X3993150Y1333770D02*
X3997071Y1337691D01*
X3993150Y1333770D02*
X3972830Y1333770D01*
X1136650Y976313D02*
X1136650Y955675D01*
X1182688Y909638D01*
X1183200Y909000D01*
X1263650Y590550D02*
X1325563Y528638D01*
X1326100Y528000D01*
X1422400Y404813D02*
X1422400Y338138D01*
X1421300Y337500D01*
X1279525Y719138D02*
X1279525Y782638D01*
X1279525Y719138D02*
X1278500Y718500D01*
D30*
X1136650Y976313D03*
X1263650Y590550D03*
X1422400Y404813D03*
X1279525Y782638D03*
D26*
X3990153Y1329817D02*
X4009263Y1329817D01*
X3990153Y1329817D02*
X3987800Y1327464D01*
D30*
X3987800Y1327464D03*
D26*
X1373188Y976313D02*
X1373188Y909638D01*
X1373700Y909000D01*
X1454150Y590550D02*
X1516063Y528638D01*
X1516600Y528000D01*
X1612900Y404813D02*
X1612900Y338138D01*
X1611800Y337500D01*
X1470025Y719138D02*
X1470025Y782638D01*
X1470025Y719138D02*
X1469000Y718500D01*
D30*
X1373188Y976313D03*
X1454150Y590550D03*
X1612900Y404813D03*
X1470025Y782638D03*
D26*
X3992581Y1314069D02*
X4009263Y1314069D01*
X3992581Y1314069D02*
X3987800Y1309288D01*
D30*
X3987800Y1309288D03*
D26*
X1968500Y211138D02*
X1968500Y147638D01*
X1969000Y147000D01*
X1754188Y909638D02*
X1754188Y976313D01*
X1754188Y909638D02*
X1754700Y909000D01*
X1830388Y595313D02*
X1897063Y528638D01*
X1897600Y528000D01*
X1851025Y719138D02*
X1851025Y782638D01*
X1851025Y719138D02*
X1850000Y718500D01*
X1993900Y404813D02*
X1993900Y338138D01*
X1992800Y337500D01*
D30*
X1968500Y211138D03*
X1754188Y976313D03*
X1830388Y595313D03*
X1851025Y782638D03*
X1993900Y404813D03*
D26*
X4008628Y1305560D02*
X4009263Y1306195D01*
X3993160Y1305560D02*
X3987800Y1300200D01*
D30*
X3987800Y1300200D03*
D26*
X3993160Y1305560D02*
X4008628Y1305560D01*
X2206625Y204788D02*
X2206625Y147638D01*
X2207100Y147000D01*
X1944688Y909638D02*
X1944688Y976313D01*
X1944688Y909638D02*
X1945200Y909000D01*
X2020888Y595313D02*
X2087563Y528638D01*
X2088100Y528000D01*
X2041525Y719138D02*
X2041525Y782638D01*
X2041525Y719138D02*
X2040500Y718500D01*
X2184400Y404813D02*
X2184400Y338138D01*
X2183300Y337500D01*
D30*
X2206625Y204788D03*
X1944688Y976313D03*
X2020888Y595313D03*
X2041525Y782638D03*
X2184400Y404813D03*
D26*
X4008882Y1297940D02*
X4009263Y1298321D01*
X3994628Y1297940D02*
X3987800Y1291112D01*
D30*
X3987800Y1291112D03*
D26*
X3994628Y1297940D02*
X4008882Y1297940D01*
X2135188Y976313D02*
X2135188Y915988D01*
X2135700Y915000D01*
X2216150Y590550D02*
X2278063Y528638D01*
X2278600Y528000D01*
X2354263Y211138D02*
X2432050Y133350D01*
X2354263Y342900D02*
X2292350Y404813D01*
X2432050Y133350D02*
X2432200Y132400D01*
X2232025Y719138D02*
X2232025Y782638D01*
X2232025Y719138D02*
X2231000Y718500D01*
D30*
X2135188Y976313D03*
X2216150Y590550D03*
X2354263Y211138D03*
X2354263Y342900D03*
X2292350Y404813D03*
X2232025Y782638D03*
D26*
X3996223Y1290447D02*
X4009263Y1290447D01*
X3996223Y1290447D02*
X3987800Y1282024D01*
D30*
X3987800Y1282024D03*
D26*
X2325688Y976313D02*
X2325688Y909638D01*
X2326200Y909000D01*
X2422525Y785813D02*
X2422525Y719138D01*
X2421500Y718500D01*
D30*
X2325688Y976313D03*
X2422525Y785813D03*
D26*
X3998651Y1274699D02*
X4009263Y1274699D01*
X3998651Y1274699D02*
X3987800Y1263848D01*
D30*
X3987800Y1263848D03*
D26*
X2613025Y976313D02*
X2613025Y909638D01*
X2612000Y909000D01*
X2492375Y385763D02*
X2540000Y338138D01*
X2540500Y337500D01*
X2592388Y211138D02*
X2670175Y133350D01*
X2670300Y132400D01*
X2538413Y528638D02*
X2600325Y590550D01*
X2538413Y528638D02*
X2537960Y528000D01*
X2466975Y785813D02*
X2460625Y785813D01*
X2466975Y785813D02*
X2547938Y704850D01*
X2646363Y704850D01*
X2646500Y703900D01*
D30*
X2613025Y976313D03*
X2492375Y385763D03*
X2592388Y211138D03*
X2600325Y590550D03*
X2460625Y785813D03*
D26*
X3999865Y1266825D02*
X4009263Y1266825D01*
X3999865Y1266825D02*
X3987800Y1254760D01*
D30*
X3987800Y1254760D03*
D26*
X2944813Y214313D02*
X2944813Y147638D01*
X2944813Y381000D02*
X2944813Y401638D01*
X2944813Y573088D02*
X2944813Y595313D01*
X2944813Y147638D02*
X2945300Y147000D01*
X2898775Y765175D02*
X2898775Y782638D01*
X2898775Y765175D02*
X2944813Y719138D01*
X2945300Y718500D01*
X2944813Y909638D02*
X2944813Y976313D01*
X2944813Y909638D02*
X2945300Y909000D01*
D30*
X2944813Y214313D03*
X2944813Y381000D03*
X2944813Y401638D03*
X2944813Y573088D03*
X2944813Y595313D03*
X2898775Y782638D03*
X2944813Y976313D03*
X4015740Y1226820D03*
D26*
X4027805Y1237643D02*
X4027805Y1248283D01*
X4016982Y1226820D02*
X4015740Y1226820D01*
X4016982Y1226820D02*
X4027805Y1237643D01*
X3135313Y214313D02*
X3135313Y147638D01*
X3135800Y147000D01*
X3135313Y719138D02*
X3135313Y785813D01*
X3135313Y719138D02*
X3135800Y718500D01*
X3135313Y401638D02*
X3135313Y338138D01*
X3135313Y573088D02*
X3135313Y595313D01*
X3135313Y338138D02*
X3135800Y337500D01*
X3135313Y909638D02*
X3135313Y976313D01*
X3135313Y909638D02*
X3135800Y909000D01*
D30*
X3135313Y214313D03*
X3135313Y785813D03*
X3135313Y401638D03*
X3135313Y573088D03*
X3135313Y595313D03*
X3135313Y976313D03*
X4025900Y1226820D03*
D26*
X4035679Y1234285D02*
X4035679Y1248283D01*
X4028214Y1226820D02*
X4025900Y1226820D01*
X4028214Y1226820D02*
X4035679Y1234285D01*
X3325813Y214313D02*
X3325813Y147638D01*
X3325813Y381000D02*
X3325813Y401638D01*
X3325813Y573088D02*
X3325813Y595313D01*
X3325813Y147638D02*
X3326300Y147000D01*
X3279775Y765175D02*
X3279775Y782638D01*
X3279775Y765175D02*
X3325813Y719138D01*
X3326300Y718500D01*
X3325813Y909638D02*
X3325813Y976313D01*
X3325813Y909638D02*
X3326300Y909000D01*
D30*
X3325813Y214313D03*
X3325813Y381000D03*
X3325813Y401638D03*
X3325813Y573088D03*
X3325813Y595313D03*
X3279775Y782638D03*
X3325813Y976313D03*
X4037132Y1226820D03*
D26*
X4043553Y1233241D02*
X4043553Y1248283D01*
X4043553Y1233241D02*
X4037132Y1226820D01*
X3563938Y401638D02*
X3563938Y338138D01*
X3564500Y337500D01*
X3660775Y214313D02*
X3660775Y147638D01*
X3659700Y147000D01*
X3517900Y574675D02*
X3517900Y590550D01*
X3517900Y574675D02*
X3563938Y528638D01*
X3564500Y528000D01*
X3517900Y765175D02*
X3517900Y782638D01*
X3517900Y765175D02*
X3563938Y719138D01*
X3564500Y718500D01*
X3517900Y955675D02*
X3517900Y976313D01*
X3517900Y955675D02*
X3563938Y909638D01*
X3564500Y909000D01*
D30*
X3563938Y401638D03*
X3660775Y214313D03*
X3517900Y590550D03*
X3517900Y782638D03*
X3517900Y976313D03*
X4046220Y1226820D03*
D26*
X4051427Y1232027D01*
X4051427Y1248283D01*
X3754438Y401638D02*
X3754438Y338138D01*
X3755000Y337500D01*
X3708400Y574675D02*
X3708400Y590550D01*
X3708400Y574675D02*
X3754438Y528638D01*
X3755000Y528000D01*
X3708400Y765175D02*
X3708400Y782638D01*
X3708400Y765175D02*
X3754438Y719138D01*
X3755000Y718500D01*
X3708400Y955675D02*
X3708400Y976313D01*
X3708400Y955675D02*
X3754438Y909638D01*
X3755000Y909000D01*
D30*
X3754438Y401638D03*
X3708400Y590550D03*
X3708400Y782638D03*
X3708400Y976313D03*
X4056380Y1226820D03*
D26*
X4056380Y1229360D01*
X4059301Y1232281D02*
X4059301Y1248283D01*
X4059301Y1232281D02*
X4056380Y1229360D01*
X3944938Y214313D02*
X3944938Y147638D01*
X3945500Y147000D01*
X3898900Y384175D02*
X3898900Y396875D01*
X3898900Y384175D02*
X3944938Y338138D01*
X3945500Y337500D01*
X3898900Y574675D02*
X3898900Y590550D01*
X3898900Y574675D02*
X3944938Y528638D01*
X3945500Y528000D01*
X3898900Y765175D02*
X3898900Y782638D01*
X3898900Y765175D02*
X3944938Y719138D01*
X3945500Y718500D01*
X3898900Y955675D02*
X3898900Y976313D01*
X3898900Y955675D02*
X3944938Y909638D01*
X3945500Y909000D01*
D30*
X3944938Y214313D03*
X3898900Y396875D03*
X3898900Y590550D03*
X3898900Y782638D03*
X3898900Y976313D03*
D26*
X4073525Y1231900D02*
X4073525Y1247775D01*
X4073525Y1231900D02*
X4065588Y1223963D01*
X4065588Y1189038D01*
X4100513Y1154113D01*
X4073525Y1247775D02*
X4075049Y1248283D01*
D30*
X4100513Y1154113D03*
D26*
X4135438Y312738D02*
X4135438Y244475D01*
X4135438Y381000D02*
X4135438Y401638D01*
X4135438Y244475D02*
X4135520Y243200D01*
X4067175Y1248283D02*
X4067175Y1254125D01*
X4064000Y1257300D01*
X4024313Y1257300D01*
X4008438Y1241425D01*
X4008438Y1208088D01*
X4062413Y1154113D01*
X4135438Y976313D02*
X4135438Y909638D01*
X4136000Y909000D01*
X4137025Y661988D02*
X4137025Y625475D01*
X4137025Y661988D02*
X4140200Y665163D01*
X4140200Y766763D02*
X4140200Y785813D01*
X4137025Y625475D02*
X4135520Y624200D01*
D30*
X4135438Y312738D03*
X4135438Y381000D03*
X4135438Y401638D03*
X4062413Y1154113D03*
X4135438Y976313D03*
X4140200Y665163D03*
X4140200Y766763D03*
X4140200Y785813D03*
X3987800Y1272936D03*
D26*
X3997437Y1282573D02*
X4009263Y1282573D01*
X3997437Y1282573D02*
X3987800Y1272936D01*
X4067175Y1403477D02*
X4067175Y1445260D01*
X3906520Y1284172D02*
X3808528Y1186180D01*
X3926840Y1445260D02*
X4067175Y1445260D01*
X3926840Y1445260D02*
X3906520Y1424940D01*
X3906520Y1284172D01*
X3808528Y1186180D02*
X-86360Y1186180D01*
X-215900Y1056640D01*
X-194450Y1007250D02*
X-146300Y1007250D01*
X-194450Y1007250D02*
X-215900Y1028700D01*
X-215900Y1056640D01*
X-104300Y1021750D02*
X-32674Y1021750D01*
X-18034Y1007110D01*
X-17894Y1007250D02*
X44200Y1007250D01*
X-17894Y1007250D02*
X-18034Y1007110D01*
X86200Y1021750D02*
X146650Y1021750D01*
X162560Y1005840D01*
X233290Y1005840D02*
X234700Y1007250D01*
X233290Y1005840D02*
X162560Y1005840D01*
X277813Y1020763D02*
X406400Y1020763D01*
X419100Y1008063D01*
X423863Y1008063D01*
X277813Y1020763D02*
X276700Y1021750D01*
X423863Y1008063D02*
X425200Y1007250D01*
X468313Y1020763D02*
X596900Y1020763D01*
X609600Y1008063D01*
X614363Y1008063D01*
X468313Y1020763D02*
X467200Y1021750D01*
X614363Y1008063D02*
X615700Y1007250D01*
X658813Y1020763D02*
X787400Y1020763D01*
X800100Y1008063D01*
X804863Y1008063D01*
X658813Y1020763D02*
X657700Y1021750D01*
X804863Y1008063D02*
X806200Y1007250D01*
X849313Y1020763D02*
X977900Y1020763D01*
X990600Y1008063D01*
X995363Y1008063D01*
X849313Y1020763D02*
X848200Y1021750D01*
X995363Y1008063D02*
X996700Y1007250D01*
X1039813Y1020763D02*
X1168400Y1020763D01*
X1181100Y1008063D01*
X1185863Y1008063D01*
X1039813Y1020763D02*
X1038700Y1021750D01*
X1185863Y1008063D02*
X1187200Y1007250D01*
X1230313Y1020763D02*
X1358900Y1020763D01*
X1371600Y1008063D01*
X1376363Y1008063D01*
X1230313Y1020763D02*
X1229200Y1021750D01*
X1376363Y1008063D02*
X1377700Y1007250D01*
X1433513Y1008063D02*
X1566863Y1008063D01*
X1433513Y1008063D02*
X1420813Y1020763D01*
X1566863Y1008063D02*
X1568200Y1007250D01*
X1420813Y1020763D02*
X1419700Y1021750D01*
X1611313Y1020763D02*
X1739900Y1020763D01*
X1752600Y1008063D01*
X1757363Y1008063D01*
X1611313Y1020763D02*
X1610200Y1021750D01*
X1757363Y1008063D02*
X1758700Y1007250D01*
X1801813Y1020763D02*
X1930400Y1020763D01*
X1943100Y1008063D01*
X1947863Y1008063D01*
X1801813Y1020763D02*
X1800700Y1021750D01*
X1947863Y1008063D02*
X1949200Y1007250D01*
X1992313Y1020763D02*
X2120900Y1020763D01*
X2133600Y1008063D01*
X2138363Y1008063D01*
X1992313Y1020763D02*
X1991200Y1021750D01*
X2138363Y1008063D02*
X2139700Y1007250D01*
X2182813Y1020763D02*
X2311400Y1020763D01*
X2324100Y1008063D01*
X2328863Y1008063D01*
X2182813Y1020763D02*
X2181700Y1021750D01*
X2328863Y1008063D02*
X2330200Y1007250D01*
X2373313Y1020763D02*
X2501900Y1020763D01*
X2514600Y1008063D01*
X2519363Y1008063D01*
X2373313Y1020763D02*
X2372200Y1021750D01*
X2519363Y1008063D02*
X2520700Y1007250D01*
X2563813Y1020763D02*
X2692400Y1020763D01*
X2705100Y1008063D01*
X2709863Y1008063D01*
X2563813Y1020763D02*
X2562700Y1021750D01*
X2709863Y1008063D02*
X2711200Y1007250D01*
X2754313Y1020763D02*
X2930525Y1020763D01*
X2943225Y1008063D01*
X2947988Y1008063D01*
X2754313Y1020763D02*
X2753200Y1021750D01*
X2947988Y1008063D02*
X2949300Y1007250D01*
X2992438Y1020763D02*
X3121025Y1020763D01*
X3133725Y1008063D01*
X3138488Y1008063D01*
X2992438Y1020763D02*
X2991300Y1021750D01*
X3138488Y1008063D02*
X3139800Y1007250D01*
X3182938Y1020763D02*
X3311525Y1020763D01*
X3324225Y1008063D01*
X3328988Y1008063D01*
X3182938Y1020763D02*
X3181800Y1021750D01*
X3328988Y1008063D02*
X3330300Y1007250D01*
X3373438Y1020763D02*
X3549650Y1020763D01*
X3562350Y1008063D01*
X3567113Y1008063D01*
X3373438Y1020763D02*
X3372300Y1021750D01*
X3567113Y1008063D02*
X3568500Y1007250D01*
X3611563Y1020763D02*
X3740150Y1020763D01*
X3752850Y1008063D01*
X3757613Y1008063D01*
X3611563Y1020763D02*
X3610500Y1021750D01*
X3757613Y1008063D02*
X3759000Y1007250D01*
X3802063Y1020763D02*
X3930650Y1020763D01*
X3943350Y1008063D01*
X3948113Y1008063D01*
X3802063Y1020763D02*
X3801000Y1021750D01*
X3948113Y1008063D02*
X3949500Y1007250D01*
X4005263Y1008063D02*
X4148138Y1008063D01*
X4005263Y1008063D02*
X3992563Y1020763D01*
X4148138Y1008063D02*
X4149000Y1007250D01*
X3992563Y1020763D02*
X3991500Y1021750D01*
X4191000Y1020763D02*
X4273550Y1020763D01*
X4297363Y996950D01*
X4316413Y996950D01*
X4325938Y1006475D01*
X4191000Y1020763D02*
X4191000Y1021750D01*
X4325938Y1006475D02*
X4327000Y1007250D01*
X-31150Y831250D02*
X-104300Y831250D01*
X-16764Y816864D02*
X-2540Y816864D01*
X2540Y816864D01*
X-16764Y816864D02*
X-31150Y831250D01*
X-2426Y816750D02*
X44200Y816750D01*
X-2426Y816750D02*
X-2540Y816864D01*
X87313Y830263D02*
X215900Y830263D01*
X228600Y817563D01*
X233363Y817563D01*
X87313Y830263D02*
X86200Y831250D01*
X233363Y817563D02*
X234700Y816750D01*
X277813Y830263D02*
X406400Y830263D01*
X419100Y817563D01*
X423863Y817563D01*
X277813Y830263D02*
X276700Y831250D01*
X423863Y817563D02*
X425200Y816750D01*
X468313Y830263D02*
X596900Y830263D01*
X609600Y817563D01*
X614363Y817563D01*
X468313Y830263D02*
X467200Y831250D01*
X614363Y817563D02*
X615700Y816750D01*
X658813Y830263D02*
X787400Y830263D01*
X800100Y817563D01*
X804863Y817563D01*
X658813Y830263D02*
X657700Y831250D01*
X804863Y817563D02*
X806200Y816750D01*
X849313Y830263D02*
X977900Y830263D01*
X990600Y817563D01*
X995363Y817563D01*
X849313Y830263D02*
X848200Y831250D01*
X995363Y817563D02*
X996700Y816750D01*
X1039813Y830263D02*
X1168400Y830263D01*
X1181100Y817563D01*
X1185863Y817563D01*
X1039813Y830263D02*
X1038700Y831250D01*
X1185863Y817563D02*
X1187200Y816750D01*
X1230313Y830263D02*
X1358900Y830263D01*
X1371600Y817563D01*
X1376363Y817563D01*
X1230313Y830263D02*
X1229200Y831250D01*
X1376363Y817563D02*
X1377700Y816750D01*
X1420813Y830263D02*
X1549400Y830263D01*
X1562100Y817563D01*
X1566863Y817563D01*
X1420813Y830263D02*
X1419700Y831250D01*
X1566863Y817563D02*
X1568200Y816750D01*
X1624013Y817563D02*
X1757363Y817563D01*
X1624013Y817563D02*
X1611313Y830263D01*
X1757363Y817563D02*
X1758700Y816750D01*
X1611313Y830263D02*
X1610200Y831250D01*
X1801813Y830263D02*
X1930400Y830263D01*
X1943100Y817563D01*
X1947863Y817563D01*
X1801813Y830263D02*
X1800700Y831250D01*
X1947863Y817563D02*
X1949200Y816750D01*
X1992313Y830263D02*
X2132013Y830263D01*
X2138363Y823913D01*
X1992313Y830263D02*
X1991200Y831250D01*
X2138363Y823913D02*
X2139700Y822750D01*
X2182813Y836613D02*
X2305050Y836613D01*
X2324100Y817563D01*
X2328863Y817563D01*
X2182813Y836613D02*
X2181700Y837250D01*
X2328863Y817563D02*
X2330200Y816750D01*
X2659063Y831850D02*
X2735263Y831850D01*
X2736850Y833438D01*
X2927350Y833438D01*
X2943225Y817563D01*
X2947988Y817563D01*
X2659063Y831850D02*
X2658000Y831250D01*
X2947988Y817563D02*
X2949300Y816750D01*
X2992438Y830263D02*
X3121025Y830263D01*
X3133725Y817563D01*
X3138488Y817563D01*
X2992438Y830263D02*
X2991300Y831250D01*
X3138488Y817563D02*
X3139800Y816750D01*
X3182938Y830263D02*
X3311525Y830263D01*
X3324225Y817563D01*
X3328988Y817563D01*
X3182938Y830263D02*
X3181800Y831250D01*
X3328988Y817563D02*
X3330300Y816750D01*
X3373438Y830263D02*
X3549650Y830263D01*
X3562350Y817563D01*
X3567113Y817563D01*
X3373438Y830263D02*
X3372300Y831250D01*
X3567113Y817563D02*
X3568500Y816750D01*
X3611563Y830263D02*
X3740150Y830263D01*
X3752850Y817563D01*
X3757613Y817563D01*
X3611563Y830263D02*
X3610500Y831250D01*
X3757613Y817563D02*
X3759000Y816750D01*
X3802063Y830263D02*
X3930650Y830263D01*
X3943350Y817563D01*
X3948113Y817563D01*
X3802063Y830263D02*
X3801000Y831250D01*
X3948113Y817563D02*
X3949500Y816750D01*
X3992563Y830263D02*
X4121150Y830263D01*
X4133850Y817563D01*
X4138613Y817563D01*
X3992563Y830263D02*
X3991500Y831250D01*
X4138613Y817563D02*
X4140000Y816750D01*
X4314825Y815975D02*
X4329113Y815975D01*
X4314825Y815975D02*
X4303713Y804863D01*
X4208463Y804863D01*
X4183063Y830263D01*
X4329113Y815975D02*
X4330500Y816750D01*
X4183063Y830263D02*
X4182000Y831250D01*
X4075049Y1448522D02*
X4074501Y1449070D01*
X3898646Y1287434D02*
X3801964Y1190752D01*
X4075049Y1403477D02*
X4075049Y1448522D01*
X4074501Y1449070D02*
X3924594Y1449070D01*
X3898646Y1423122D01*
X3898646Y1287434D01*
X3801964Y1190752D02*
X-87844Y1190752D01*
X-239014Y1039582D01*
X-180975Y817563D02*
X-147638Y817563D01*
X-212725Y849313D02*
X-212725Y871538D01*
X-147638Y817563D02*
X-146300Y816750D01*
D30*
X-180975Y817563D03*
X-212725Y849313D03*
D26*
X-239014Y897827D02*
X-239014Y1039582D01*
X-239014Y897827D02*
X-212725Y871538D01*
X-103188Y639763D02*
X73025Y639763D01*
X85725Y627063D01*
X90488Y627063D01*
X-103188Y639763D02*
X-104300Y640750D01*
X90488Y627063D02*
X91800Y626250D01*
X134938Y639763D02*
X311150Y639763D01*
X323850Y627063D01*
X328613Y627063D01*
X134938Y639763D02*
X133800Y640750D01*
X328613Y627063D02*
X330000Y626250D01*
X373063Y639763D02*
X501650Y639763D01*
X514350Y627063D01*
X519113Y627063D01*
X373063Y639763D02*
X372000Y640750D01*
X519113Y627063D02*
X520500Y626250D01*
X563563Y639763D02*
X692150Y639763D01*
X704850Y627063D01*
X709613Y627063D01*
X563563Y639763D02*
X562500Y640750D01*
X709613Y627063D02*
X711000Y626250D01*
X754063Y639763D02*
X882650Y639763D01*
X895350Y627063D01*
X900113Y627063D01*
X754063Y639763D02*
X753000Y640750D01*
X900113Y627063D02*
X901500Y626250D01*
X944563Y639763D02*
X1073150Y639763D01*
X1085850Y627063D01*
X1090613Y627063D01*
X944563Y639763D02*
X943500Y640750D01*
X1090613Y627063D02*
X1092000Y626250D01*
X1135063Y639763D02*
X1263650Y639763D01*
X1276350Y627063D01*
X1281113Y627063D01*
X1135063Y639763D02*
X1134000Y640750D01*
X1281113Y627063D02*
X1282500Y626250D01*
X1325563Y639763D02*
X1454150Y639763D01*
X1466850Y627063D01*
X1471613Y627063D01*
X1325563Y639763D02*
X1324500Y640750D01*
X1471613Y627063D02*
X1473000Y626250D01*
X1516063Y639763D02*
X1644650Y639763D01*
X1657350Y627063D01*
X1662113Y627063D01*
X1516063Y639763D02*
X1515000Y640750D01*
X1662113Y627063D02*
X1663500Y626250D01*
X1706563Y639763D02*
X1835150Y639763D01*
X1847850Y627063D01*
X1852613Y627063D01*
X1706563Y639763D02*
X1705500Y640750D01*
X1852613Y627063D02*
X1854000Y626250D01*
X1909763Y627063D02*
X2043113Y627063D01*
X1909763Y627063D02*
X1897063Y639763D01*
X2043113Y627063D02*
X2044500Y626250D01*
X1897063Y639763D02*
X1896000Y640750D01*
X2087563Y639763D02*
X2216150Y639763D01*
X2228850Y627063D01*
X2233613Y627063D01*
X2087563Y639763D02*
X2086500Y640750D01*
X2233613Y627063D02*
X2235000Y626250D01*
X2278063Y639763D02*
X2406650Y639763D01*
X2419350Y627063D01*
X2424113Y627063D01*
X2278063Y639763D02*
X2277000Y640750D01*
X2424113Y627063D02*
X2425500Y626250D01*
X2468563Y639763D02*
X2644775Y639763D01*
X2657475Y627063D01*
X2662238Y627063D01*
X2468563Y639763D02*
X2467500Y640750D01*
X2662238Y627063D02*
X2663600Y626250D01*
X2706688Y639763D02*
X2930525Y639763D01*
X2943225Y627063D01*
X2947988Y627063D01*
X2706688Y639763D02*
X2705600Y640750D01*
X2947988Y627063D02*
X2949300Y626250D01*
X2992438Y639763D02*
X3121025Y639763D01*
X3133725Y627063D01*
X3138488Y627063D01*
X2992438Y639763D02*
X2991300Y640750D01*
X3138488Y627063D02*
X3139800Y626250D01*
X3182938Y639763D02*
X3311525Y639763D01*
X3324225Y627063D01*
X3328988Y627063D01*
X3182938Y639763D02*
X3181800Y640750D01*
X3328988Y627063D02*
X3330300Y626250D01*
X3373438Y639763D02*
X3549650Y639763D01*
X3562350Y627063D01*
X3567113Y627063D01*
X3373438Y639763D02*
X3372300Y640750D01*
X3567113Y627063D02*
X3568500Y626250D01*
X3611563Y639763D02*
X3740150Y639763D01*
X3752850Y627063D01*
X3757613Y627063D01*
X3611563Y639763D02*
X3610500Y640750D01*
X3757613Y627063D02*
X3759000Y626250D01*
X3802063Y639763D02*
X3930650Y639763D01*
X3943350Y627063D01*
X3948113Y627063D01*
X3802063Y639763D02*
X3801000Y640750D01*
X3948113Y627063D02*
X3949500Y626250D01*
X3992563Y639763D02*
X4024313Y639763D01*
X4068763Y595313D02*
X4116388Y547688D01*
X4138613Y547688D01*
X3992563Y639763D02*
X3991500Y640750D01*
X4138613Y547688D02*
X4139520Y546450D01*
D30*
X4024313Y639763D03*
X4068763Y595313D03*
D26*
X4140200Y531813D02*
X4140200Y530225D01*
X4152900Y517525D01*
X4221163Y517525D01*
X4314825Y611188D02*
X4329113Y625475D01*
X4140200Y531813D02*
X4139520Y531950D01*
X4329113Y625475D02*
X4330500Y626250D01*
D30*
X4221163Y517525D03*
X4314825Y611188D03*
D26*
X4082923Y1451783D02*
X4082080Y1452626D01*
X3890772Y1290695D02*
X3794385Y1194308D01*
X-246888Y1037763D02*
X-246888Y719138D01*
X-246888Y718820D01*
X4082923Y1403477D02*
X4082923Y1451783D01*
X4082080Y1452626D02*
X3922095Y1452626D01*
X3890772Y1421303D01*
X3890772Y1290695D01*
X3794385Y1194308D02*
X-90343Y1194308D01*
X-246888Y1037763D01*
X-176213Y625475D02*
X-147638Y625475D01*
X-212725Y661988D02*
X-212725Y685800D01*
X-246063Y719138D01*
X-147638Y625475D02*
X-146300Y626250D01*
X-246063Y719138D02*
X-246888Y719138D01*
D30*
X-176213Y625475D03*
X-212725Y661988D03*
D26*
X-103188Y449263D02*
X96838Y449263D01*
X109538Y436563D01*
X114300Y436563D01*
X-103188Y449263D02*
X-104300Y450250D01*
X114300Y436563D02*
X115600Y435750D01*
X158750Y449263D02*
X358775Y449263D01*
X371475Y436563D01*
X376238Y436563D01*
X158750Y449263D02*
X157600Y450250D01*
X376238Y436563D02*
X377600Y435750D01*
X420688Y449263D02*
X549275Y449263D01*
X561975Y436563D01*
X566738Y436563D01*
X420688Y449263D02*
X419600Y450250D01*
X566738Y436563D02*
X568100Y435750D01*
X611188Y449263D02*
X730250Y449263D01*
X742950Y436563D01*
X749300Y436563D01*
X611188Y449263D02*
X610100Y450250D01*
X749300Y436563D02*
X749367Y435748D01*
X792163Y449263D02*
X930275Y449263D01*
X942975Y436563D01*
X947738Y436563D01*
X792163Y449263D02*
X791367Y450248D01*
X947738Y436563D02*
X949100Y435750D01*
X992188Y449263D02*
X1120775Y449263D01*
X1133475Y436563D01*
X1138238Y436563D01*
X992188Y449263D02*
X991100Y450250D01*
X1138238Y436563D02*
X1139600Y435750D01*
X1182688Y449263D02*
X1311275Y449263D01*
X1323975Y436563D01*
X1328738Y436563D01*
X1182688Y449263D02*
X1181600Y450250D01*
X1328738Y436563D02*
X1330100Y435750D01*
X1373188Y449263D02*
X1501775Y449263D01*
X1514475Y436563D01*
X1519238Y436563D01*
X1373188Y449263D02*
X1372100Y450250D01*
X1519238Y436563D02*
X1520600Y435750D01*
X1563688Y449263D02*
X1692275Y449263D01*
X1704975Y436563D01*
X1709738Y436563D01*
X1563688Y449263D02*
X1562600Y450250D01*
X1709738Y436563D02*
X1711100Y435750D01*
X1754188Y449263D02*
X1882775Y449263D01*
X1895475Y436563D01*
X1900238Y436563D01*
X1754188Y449263D02*
X1753100Y450250D01*
X1900238Y436563D02*
X1901600Y435750D01*
X1944688Y449263D02*
X2073275Y449263D01*
X2085975Y436563D01*
X2090738Y436563D01*
X1944688Y449263D02*
X1943600Y450250D01*
X2090738Y436563D02*
X2092100Y435750D01*
X2135188Y449263D02*
X2228850Y449263D01*
X2252663Y425450D01*
X2271713Y425450D01*
X2281238Y434975D01*
X2135188Y449263D02*
X2134100Y450250D01*
X2281238Y434975D02*
X2282600Y435750D01*
X2325688Y449263D02*
X2522538Y449263D01*
X2535238Y436563D01*
X2541588Y436563D01*
X2325688Y449263D02*
X2324600Y450250D01*
X2541588Y436563D02*
X2541960Y435750D01*
X4089660Y1456182D02*
X4090797Y1455045D01*
X3882898Y1293957D02*
X3787313Y1198372D01*
X-254762Y1035945D02*
X-254762Y533400D01*
X4090797Y1403477D02*
X4090797Y1455045D01*
X4089660Y1456182D02*
X3919595Y1456182D01*
X3882898Y1419485D01*
X3882898Y1293957D01*
X3787313Y1198372D02*
X-92335Y1198372D01*
X-254762Y1035945D01*
X-180975Y436563D02*
X-147638Y436563D01*
X-212725Y468313D02*
X-212725Y492125D01*
X-254000Y533400D01*
X-147638Y436563D02*
X-146300Y435750D01*
X-254000Y533400D02*
X-254762Y533400D01*
D30*
X-180975Y436563D03*
X-212725Y468313D03*
D26*
X3611563Y449263D02*
X3740150Y449263D01*
X3752850Y436563D01*
X3757613Y436563D01*
X3611563Y449263D02*
X3610500Y450250D01*
X3757613Y436563D02*
X3759000Y435750D01*
X3802063Y449263D02*
X3930650Y449263D01*
X3943350Y436563D01*
X3948113Y436563D01*
X3802063Y449263D02*
X3801000Y450250D01*
X3948113Y436563D02*
X3949500Y435750D01*
X3992563Y449263D02*
X4049713Y449263D01*
X4065588Y433388D01*
X4327525Y433388D01*
X4329113Y434975D01*
X3992563Y449263D02*
X3991500Y450250D01*
X4329113Y434975D02*
X4330500Y435750D01*
X3548063Y450850D02*
X2584450Y450850D01*
X3548063Y450850D02*
X3562350Y436563D01*
X3567113Y436563D01*
X2584450Y450850D02*
X2583960Y450250D01*
X3567113Y436563D02*
X3568500Y435750D01*
X31750Y260350D02*
X-103188Y260350D01*
X31750Y260350D02*
X33338Y261938D01*
X141288Y261938D01*
X157163Y246063D01*
X161925Y246063D01*
X-103188Y260350D02*
X-104300Y259750D01*
X161925Y246063D02*
X163300Y245250D01*
X206375Y260350D02*
X276225Y260350D01*
X277813Y261938D01*
X450850Y261938D01*
X466725Y246063D01*
X471488Y246063D01*
X206375Y260350D02*
X205300Y259750D01*
X471488Y246063D02*
X472800Y245250D01*
X515938Y258763D02*
X644525Y258763D01*
X657225Y246063D01*
X661988Y246063D01*
X515938Y258763D02*
X514800Y259750D01*
X661988Y246063D02*
X663300Y245250D01*
X706438Y258763D02*
X835025Y258763D01*
X847725Y246063D01*
X852488Y246063D01*
X706438Y258763D02*
X705300Y259750D01*
X852488Y246063D02*
X853800Y245250D01*
X896938Y258763D02*
X1025525Y258763D01*
X1038225Y246063D01*
X1042988Y246063D01*
X896938Y258763D02*
X895800Y259750D01*
X1042988Y246063D02*
X1044300Y245250D01*
X1087438Y258763D02*
X1181100Y258763D01*
X1204913Y234950D01*
X1223963Y234950D01*
X1233488Y244475D01*
X1087438Y258763D02*
X1086300Y259750D01*
X1233488Y244475D02*
X1234800Y245250D01*
X1277938Y258763D02*
X1406525Y258763D01*
X1419225Y246063D01*
X1423988Y246063D01*
X1277938Y258763D02*
X1276800Y259750D01*
X1423988Y246063D02*
X1425300Y245250D01*
X1468438Y258763D02*
X1597025Y258763D01*
X1609725Y246063D01*
X1614488Y246063D01*
X1468438Y258763D02*
X1467300Y259750D01*
X1614488Y246063D02*
X1615800Y245250D01*
X1658938Y258763D02*
X1787525Y258763D01*
X1800225Y246063D01*
X1804988Y246063D01*
X1658938Y258763D02*
X1657800Y259750D01*
X1804988Y246063D02*
X1806300Y245250D01*
X1849438Y258763D02*
X1978025Y258763D01*
X1990725Y246063D01*
X1995488Y246063D01*
X1849438Y258763D02*
X1848300Y259750D01*
X1995488Y246063D02*
X1996800Y245250D01*
X2039938Y258763D02*
X2133600Y258763D01*
X2157413Y234950D01*
X2176463Y234950D01*
X2185988Y244475D01*
X2039938Y258763D02*
X2038800Y259750D01*
X2185988Y244475D02*
X2187300Y245250D01*
X2532063Y246063D02*
X2543175Y246063D01*
X2516188Y261938D02*
X2232025Y261938D01*
X2230438Y260350D01*
X2543175Y246063D02*
X2544500Y245250D01*
X2230438Y260350D02*
X2229300Y259750D01*
D30*
X2532063Y246063D03*
X2516188Y261938D03*
D26*
X2587625Y260350D02*
X2659063Y260350D01*
X2660650Y261938D01*
X3109913Y261938D01*
X3138488Y233363D01*
X3189288Y233363D01*
X3319463Y233363D02*
X3556000Y233363D01*
X3567113Y244475D01*
X2587625Y260350D02*
X2586500Y259750D01*
X3567113Y244475D02*
X3568500Y245250D01*
D30*
X3189288Y233363D03*
X3319463Y233363D03*
D26*
X3611563Y258763D02*
X3740150Y258763D01*
X3752850Y246063D01*
X3757613Y246063D01*
X3611563Y258763D02*
X3610500Y259750D01*
X3757613Y246063D02*
X3759000Y245250D01*
X3802063Y258763D02*
X3930650Y258763D01*
X3943350Y246063D01*
X3948113Y246063D01*
X3802063Y258763D02*
X3801000Y259750D01*
X3948113Y246063D02*
X3949500Y245250D01*
X4098671Y1455766D02*
X4094699Y1459738D01*
X3875024Y1297218D02*
X3784052Y1206246D01*
X-262636Y1034127D02*
X-262636Y350838D01*
X-262636Y350520D01*
X4098671Y1403477D02*
X4098671Y1455766D01*
X4094699Y1459738D02*
X3917096Y1459738D01*
X3875024Y1417667D01*
X3875024Y1297218D01*
X3784052Y1206246D02*
X-90517Y1206246D01*
X-262636Y1034127D01*
X-177800Y246063D02*
X-147638Y246063D01*
X-212725Y280988D02*
X-212725Y301625D01*
X-261938Y350838D01*
X-147638Y246063D02*
X-146300Y245250D01*
X-261938Y350838D02*
X-262636Y350838D01*
D30*
X-177800Y246063D03*
X-212725Y280988D03*
D26*
X3992563Y258763D02*
X4025900Y258763D01*
X4062413Y222250D02*
X4117975Y166688D01*
X4138613Y166688D01*
X3992563Y258763D02*
X3991500Y259750D01*
X4138613Y166688D02*
X4139520Y165450D01*
D30*
X4025900Y258763D03*
X4062413Y222250D03*
D26*
X4140200Y150813D02*
X4140200Y136525D01*
X4314825Y230188D02*
X4329113Y244475D01*
X4140200Y150813D02*
X4139520Y150950D01*
X4329113Y244475D02*
X4330500Y245250D01*
D30*
X4140200Y136525D03*
X4314825Y230188D03*
D26*
X49213Y68263D02*
X-103188Y68263D01*
X49213Y68263D02*
X61913Y55563D01*
X66675Y55563D01*
X-103188Y68263D02*
X-104300Y69250D01*
X66675Y55563D02*
X68000Y54750D01*
X111125Y68263D02*
X287338Y68263D01*
X300038Y55563D01*
X304800Y55563D01*
X111125Y68263D02*
X110000Y69250D01*
X304800Y55563D02*
X306100Y54750D01*
X349250Y68263D02*
X525463Y68263D01*
X538163Y55563D01*
X542925Y55563D01*
X349250Y68263D02*
X348100Y69250D01*
X542925Y55563D02*
X544300Y54750D01*
X587375Y69850D02*
X1257300Y69850D01*
X587375Y69850D02*
X586300Y69250D01*
X1257300Y69850D02*
X1258600Y69250D01*
X1258888Y53975D02*
X1270000Y42863D01*
X1314450Y42863D01*
X1954213Y61913D02*
X1965325Y61913D01*
X1971675Y55563D01*
X1258888Y53975D02*
X1258600Y54750D01*
X1971675Y55563D02*
X1973000Y54750D01*
D30*
X1314450Y42863D03*
X1954213Y61913D03*
D26*
X2016125Y68263D02*
X2192338Y68263D01*
X2205038Y55563D01*
X2209800Y55563D01*
X2016125Y68263D02*
X2015000Y69250D01*
X2209800Y55563D02*
X2211100Y54750D01*
X2254250Y68263D02*
X2430463Y68263D01*
X2443163Y55563D01*
X2447925Y55563D01*
X2254250Y68263D02*
X2253100Y69250D01*
X2447925Y55563D02*
X2449300Y54750D01*
X3992563Y68263D02*
X4049713Y68263D01*
X4065588Y52388D01*
X4327525Y52388D01*
X4329113Y53975D01*
X3992563Y68263D02*
X3991500Y69250D01*
X4329113Y53975D02*
X4330500Y54750D01*
X4106545Y1415511D02*
X4103656Y1418400D01*
X4103656Y1434020D01*
X4106545Y1436909D01*
X4106545Y1415511D02*
X4106545Y1403477D01*
X4106545Y1456488D02*
X4099739Y1463294D01*
X3867150Y1415848D02*
X3867150Y1300480D01*
X3780790Y1214120D01*
X4106545Y1436909D02*
X4106545Y1456488D01*
X4099739Y1463294D02*
X3914596Y1463294D01*
X3867150Y1415848D01*
X3780790Y1214120D02*
X-91238Y1214120D01*
X-266700Y1038658D01*
X-153988Y55563D02*
X-147638Y55563D01*
X-146300Y54750D01*
X-153988Y55563D02*
X-266383Y167958D01*
X-266383Y378143D01*
X-266700Y378460D01*
X-266700Y1038658D01*
X3706813Y68263D02*
X3930650Y68263D01*
X3943350Y55563D01*
X3948113Y55563D01*
X3706813Y68263D02*
X3705700Y69250D01*
X3948113Y55563D02*
X3949500Y54750D01*
X2668588Y68263D02*
X2492375Y68263D01*
X2668588Y68263D02*
X2681288Y55563D01*
X2686050Y55563D01*
X2492375Y68263D02*
X2491300Y69250D01*
X2686050Y55563D02*
X2687400Y54750D01*
X2730500Y68263D02*
X2930525Y68263D01*
X2943225Y55563D01*
X2947988Y55563D01*
X2730500Y68263D02*
X2729400Y69250D01*
X2947988Y55563D02*
X2949300Y54750D01*
X2992438Y68263D02*
X3121025Y68263D01*
X3133725Y55563D01*
X3138488Y55563D01*
X2992438Y68263D02*
X2991300Y69250D01*
X3138488Y55563D02*
X3139800Y54750D01*
X3182938Y68263D02*
X3311525Y68263D01*
X3324225Y55563D01*
X3328988Y55563D01*
X3182938Y68263D02*
X3181800Y69250D01*
X3328988Y55563D02*
X3330300Y54750D01*
X2711450Y541338D02*
X2703513Y541338D01*
X2692400Y530225D01*
X2590800Y530225D01*
X2589213Y531813D01*
X2711450Y541338D02*
X2711980Y542590D01*
X2589213Y531813D02*
X2587960Y533000D01*
X4386264Y1381640D02*
X4416480Y1381640D01*
X4386326Y1382166D02*
X4386264Y1381640D01*
X4386326Y1382166D02*
X4348886Y1382166D01*
X4338320Y1371600D01*
D30*
X4338320Y1371600D03*
X4114800Y1427480D03*
D26*
X4122293Y1412085D02*
X4122293Y1403477D01*
X4114800Y1419578D02*
X4114800Y1427480D01*
X4114800Y1419578D02*
X4122293Y1412085D01*
X4428480Y1364140D02*
X4437540Y1364140D01*
X4439920Y1366520D01*
D30*
X4439920Y1366520D03*
X4485640Y1432560D03*
D26*
X4251960Y1402080D02*
X4239260Y1414780D01*
X4218940Y1414780D02*
X4211320Y1422400D01*
X4193540Y1422400D01*
X4180332Y1435608D02*
X4110228Y1435608D01*
X4107180Y1432560D01*
X4107180Y1419860D02*
X4114800Y1412240D01*
X4114800Y1403858D01*
X4114419Y1403477D01*
X4251960Y1402080D02*
X4364853Y1402080D01*
X4239260Y1414780D02*
X4218940Y1414780D01*
X4193540Y1422400D02*
X4180332Y1435608D01*
X4107180Y1432560D02*
X4107180Y1419860D01*
X4438244Y1437640D02*
X4448404Y1447800D01*
X4470400Y1447800D02*
X4485640Y1432560D01*
X4470400Y1447800D02*
X4448404Y1447800D01*
X4409440Y1452880D02*
X4406900Y1450340D01*
X4438244Y1444396D02*
X4438244Y1437640D01*
X4406900Y1444128D02*
X4364853Y1402080D01*
X4406900Y1444128D02*
X4406900Y1450340D01*
X4409440Y1452880D02*
X4429760Y1452880D01*
X4438244Y1444396D01*
X4256088Y728663D02*
X4256088Y711200D01*
X4271963Y695325D01*
X4271963Y631825D01*
X4256088Y728663D02*
X4254800Y729330D01*
D30*
X4271963Y631825D03*
D26*
X4260850Y338138D02*
X4260850Y258763D01*
X4273550Y246063D01*
X4260850Y338138D02*
X4259880Y338170D01*
D30*
X4273550Y246063D03*
D26*
X115888Y152400D02*
X114300Y152400D01*
X115888Y152400D02*
X169863Y152400D01*
X170100Y153970D01*
X114300Y152400D02*
X114000Y152000D01*
X115888Y152400D02*
X115888Y157163D01*
X114400Y157800D01*
X115888Y152400D02*
X114000Y152000D01*
X3991367Y1321943D02*
X4009263Y1321943D01*
X3991367Y1321943D02*
X3987800Y1318376D01*
D30*
X3987800Y1318376D03*
D26*
X1563688Y976313D02*
X1563688Y909638D01*
X1564200Y909000D01*
X1644650Y590550D02*
X1706563Y528638D01*
X1707100Y528000D01*
X1803400Y404813D02*
X1803400Y338138D01*
X1802300Y337500D01*
X1660525Y719138D02*
X1660525Y782638D01*
X1660525Y719138D02*
X1659500Y718500D01*
D30*
X1563688Y976313D03*
X1644650Y590550D03*
X1803400Y404813D03*
X1660525Y782638D03*
D26*
X2373313Y831850D02*
X2493963Y831850D01*
X2495550Y833438D01*
X2593975Y833438D01*
X2609850Y817563D01*
X2614613Y817563D01*
X2373313Y831850D02*
X2372200Y831250D01*
X2614613Y817563D02*
X2616000Y816750D01*
M02*
