G04 EAGLE Gerber RS-274X export*
G75*
%MOMM*%
%FSLAX34Y34*%
%LPD*%
%INSoldermask Bottom*%
%IPPOS*%
%AMOC8*
5,1,8,0,0,1.08239X$1,22.5*%
G01*
%ADD10C,4.203200*%
%ADD11C,1.903200*%
%ADD12C,2.743200*%
%ADD13R,1.203200X0.953200*%
%ADD14C,3.253200*%
%ADD15R,1.423200X1.113200*%
%ADD16R,1.703200X1.503200*%
%ADD17R,1.503200X1.703200*%
%ADD18P,1.869504X8X292.500000*%
%ADD19C,2.451100*%
%ADD20R,1.803200X1.503200*%
%ADD21R,1.503200X1.803200*%
%ADD22R,1.403200X1.303200*%
%ADD23R,0.762000X1.397000*%
%ADD24R,1.397000X0.762000*%
%ADD25R,1.003200X0.503200*%
%ADD26C,1.303200*%
%ADD27C,1.211200*%
%ADD28C,1.061200*%
%ADD29C,0.959600*%


D10*
X1970200Y869000D03*
D11*
X1919400Y869000D03*
X2021000Y869000D03*
D12*
X1932100Y894400D03*
X1995600Y919800D03*
X1945200Y909000D03*
X1995200Y914000D03*
D13*
X1991200Y831250D03*
X1949200Y831250D03*
X1949200Y816750D03*
X1991200Y816750D03*
D11*
X1970200Y825820D03*
D10*
X255700Y869000D03*
D11*
X204900Y869000D03*
X306500Y869000D03*
D12*
X217600Y894400D03*
X281100Y919800D03*
X230700Y909000D03*
X280700Y914000D03*
D13*
X276700Y831250D03*
X234700Y831250D03*
X234700Y816750D03*
X276700Y816750D03*
D11*
X255700Y825820D03*
D10*
X446200Y869000D03*
D11*
X395400Y869000D03*
X497000Y869000D03*
D12*
X408100Y894400D03*
X471600Y919800D03*
X421200Y909000D03*
X471200Y914000D03*
D13*
X467200Y831250D03*
X425200Y831250D03*
X425200Y816750D03*
X467200Y816750D03*
D11*
X446200Y825820D03*
D10*
X636700Y869000D03*
D11*
X585900Y869000D03*
X687500Y869000D03*
D12*
X598600Y894400D03*
X662100Y919800D03*
X611700Y909000D03*
X661700Y914000D03*
D13*
X657700Y831250D03*
X615700Y831250D03*
X615700Y816750D03*
X657700Y816750D03*
D11*
X636700Y825820D03*
D10*
X827200Y869000D03*
D11*
X776400Y869000D03*
X878000Y869000D03*
D12*
X789100Y894400D03*
X852600Y919800D03*
X802200Y909000D03*
X852200Y914000D03*
D13*
X848200Y831250D03*
X806200Y831250D03*
X806200Y816750D03*
X848200Y816750D03*
D11*
X827200Y825820D03*
D10*
X1017700Y869000D03*
D11*
X966900Y869000D03*
X1068500Y869000D03*
D12*
X979600Y894400D03*
X1043100Y919800D03*
X992700Y909000D03*
X1042700Y914000D03*
D13*
X1038700Y831250D03*
X996700Y831250D03*
X996700Y816750D03*
X1038700Y816750D03*
D11*
X1017700Y825820D03*
D10*
X1208200Y869000D03*
D11*
X1157400Y869000D03*
X1259000Y869000D03*
D12*
X1170100Y894400D03*
X1233600Y919800D03*
X1183200Y909000D03*
X1233200Y914000D03*
D13*
X1229200Y831250D03*
X1187200Y831250D03*
X1187200Y816750D03*
X1229200Y816750D03*
D11*
X1208200Y825820D03*
D10*
X1398700Y869000D03*
D11*
X1347900Y869000D03*
X1449500Y869000D03*
D12*
X1360600Y894400D03*
X1424100Y919800D03*
X1373700Y909000D03*
X1423700Y914000D03*
D13*
X1419700Y831250D03*
X1377700Y831250D03*
X1377700Y816750D03*
X1419700Y816750D03*
D11*
X1398700Y825820D03*
D10*
X1589200Y869000D03*
D11*
X1538400Y869000D03*
X1640000Y869000D03*
D12*
X1551100Y894400D03*
X1614600Y919800D03*
X1564200Y909000D03*
X1614200Y914000D03*
D13*
X1610200Y831250D03*
X1568200Y831250D03*
X1568200Y816750D03*
X1610200Y816750D03*
D11*
X1589200Y825820D03*
D10*
X1779700Y869000D03*
D11*
X1728900Y869000D03*
X1830500Y869000D03*
D12*
X1741600Y894400D03*
X1805100Y919800D03*
X1754700Y909000D03*
X1804700Y914000D03*
D13*
X1800700Y831250D03*
X1758700Y831250D03*
X1758700Y816750D03*
X1800700Y816750D03*
D11*
X1779700Y825820D03*
D10*
X398600Y488000D03*
D11*
X347800Y488000D03*
X449400Y488000D03*
D12*
X360500Y513400D03*
X424000Y538800D03*
X373600Y528000D03*
X423600Y533000D03*
D13*
X419600Y450250D03*
X377600Y450250D03*
X377600Y435750D03*
X419600Y435750D03*
D11*
X398600Y444820D03*
D10*
X565300Y107000D03*
D11*
X514500Y107000D03*
X616100Y107000D03*
D12*
X527200Y132400D03*
X590700Y157800D03*
X540300Y147000D03*
X590300Y152000D03*
D13*
X586300Y69250D03*
X544300Y69250D03*
X544300Y54750D03*
X586300Y54750D03*
D11*
X565300Y63820D03*
D10*
X1994000Y107000D03*
D11*
X1943200Y107000D03*
X2044800Y107000D03*
D12*
X1955900Y132400D03*
X2019400Y157800D03*
X1969000Y147000D03*
X2019000Y152000D03*
D13*
X2015000Y69250D03*
X1973000Y69250D03*
X1973000Y54750D03*
X2015000Y54750D03*
D11*
X1994000Y63820D03*
D10*
X1255800Y297500D03*
D11*
X1205000Y297500D03*
X1306600Y297500D03*
D12*
X1217700Y322900D03*
X1281200Y348300D03*
X1230800Y337500D03*
X1280800Y342500D03*
D13*
X1276800Y259750D03*
X1234800Y259750D03*
X1234800Y245250D03*
X1276800Y245250D03*
D11*
X1255800Y254320D03*
D10*
X2684600Y678500D03*
D11*
X2633800Y678500D03*
X2735400Y678500D03*
D12*
X2646500Y703900D03*
X2710000Y729300D03*
X2659600Y718500D03*
X2709600Y723500D03*
D13*
X2705600Y640750D03*
X2663600Y640750D03*
X2663600Y626250D03*
X2705600Y626250D03*
D11*
X2684600Y635320D03*
D10*
X3589500Y1059500D03*
D11*
X3538700Y1059500D03*
X3640300Y1059500D03*
D12*
X3551400Y1084900D03*
X3614900Y1110300D03*
X3564500Y1099500D03*
X3614500Y1104500D03*
D13*
X3610500Y1021750D03*
X3568500Y1021750D03*
X3568500Y1007250D03*
X3610500Y1007250D03*
D11*
X3589500Y1016320D03*
D10*
X2637000Y869000D03*
D11*
X2586200Y869000D03*
X2687800Y869000D03*
D14*
X2518000Y939000D03*
X2756000Y939000D03*
D10*
X2518000Y786600D03*
X2756000Y786600D03*
D12*
X2598900Y894400D03*
X2662400Y919800D03*
X2612000Y909000D03*
X2662000Y914000D03*
D13*
X2658000Y831250D03*
X2616000Y831250D03*
X2616000Y816750D03*
X2658000Y816750D03*
D11*
X2637000Y824550D03*
D10*
X4351500Y107000D03*
D11*
X4300700Y107000D03*
X4402300Y107000D03*
D12*
X4313400Y132400D03*
X4376900Y157800D03*
X4326500Y147000D03*
X4376500Y152000D03*
D13*
X4372500Y69250D03*
X4330500Y69250D03*
X4330500Y54750D03*
X4372500Y54750D03*
D11*
X4351500Y63820D03*
D10*
X874800Y297500D03*
D11*
X824000Y297500D03*
X925600Y297500D03*
D12*
X836700Y322900D03*
X900200Y348300D03*
X849800Y337500D03*
X899800Y342500D03*
D13*
X895800Y259750D03*
X853800Y259750D03*
X853800Y245250D03*
X895800Y245250D03*
D11*
X874800Y254320D03*
D10*
X136600Y488000D03*
D11*
X85800Y488000D03*
X187400Y488000D03*
D12*
X98500Y513400D03*
X162000Y538800D03*
X111600Y528000D03*
X161600Y533000D03*
D13*
X157600Y450250D03*
X115600Y450250D03*
X115600Y435750D03*
X157600Y435750D03*
D11*
X136600Y444820D03*
D10*
X1827300Y297500D03*
D11*
X1776500Y297500D03*
X1878100Y297500D03*
D12*
X1789200Y322900D03*
X1852700Y348300D03*
X1802300Y337500D03*
X1852300Y342500D03*
D13*
X1848300Y259750D03*
X1806300Y259750D03*
X1806300Y245250D03*
X1848300Y245250D03*
D11*
X1827300Y254320D03*
D10*
X89000Y107000D03*
D11*
X38200Y107000D03*
X139800Y107000D03*
D12*
X50900Y132400D03*
X114400Y157800D03*
X64000Y147000D03*
X114000Y152000D03*
D13*
X110000Y69250D03*
X68000Y69250D03*
X68000Y54750D03*
X110000Y54750D03*
D11*
X89000Y63820D03*
D10*
X2708400Y107000D03*
D11*
X2657600Y107000D03*
X2759200Y107000D03*
D12*
X2670300Y132400D03*
X2733800Y157800D03*
X2683400Y147000D03*
X2733400Y152000D03*
D13*
X2729400Y69250D03*
X2687400Y69250D03*
X2687400Y54750D03*
X2729400Y54750D03*
D11*
X2708400Y63820D03*
D10*
X770367Y487998D03*
D11*
X719567Y487998D03*
X821167Y487998D03*
D12*
X732267Y513398D03*
X795767Y538798D03*
X745367Y527998D03*
X795367Y532998D03*
D13*
X791367Y450248D03*
X749367Y450248D03*
X749367Y435748D03*
X791367Y435748D03*
D11*
X770367Y444818D03*
D15*
X2051300Y953750D03*
X2051300Y921050D03*
X336800Y953750D03*
X336800Y921050D03*
X527300Y953750D03*
X527300Y921050D03*
X717800Y953750D03*
X717800Y921050D03*
X908300Y953750D03*
X908300Y921050D03*
X1098800Y953750D03*
X1098800Y921050D03*
X1289300Y953750D03*
X1289300Y921050D03*
X1479800Y953750D03*
X1479800Y921050D03*
X1670300Y953750D03*
X1670300Y921050D03*
X1860800Y953750D03*
X1860800Y921050D03*
X479700Y572750D03*
X479700Y540050D03*
X646400Y186670D03*
X646400Y153970D03*
X2075100Y186670D03*
X2075100Y153970D03*
D10*
X2160700Y875000D03*
D11*
X2109900Y875000D03*
X2211500Y875000D03*
D12*
X2122600Y900400D03*
X2186100Y925800D03*
X2135700Y915000D03*
X2185700Y920000D03*
D13*
X2181700Y837250D03*
X2139700Y837250D03*
X2139700Y822750D03*
X2181700Y822750D03*
D11*
X2160700Y831820D03*
D15*
X1336900Y374630D03*
X1336900Y341930D03*
X2768240Y740390D03*
X2768240Y707690D03*
X3670600Y1144250D03*
X3670600Y1111550D03*
X2718100Y953750D03*
X2718100Y921050D03*
X4432600Y191750D03*
X4432600Y159050D03*
X955900Y374630D03*
X955900Y341930D03*
X217700Y572750D03*
X217700Y540050D03*
X1908400Y374630D03*
X1908400Y341930D03*
X170100Y186670D03*
X170100Y153970D03*
X2789500Y186670D03*
X2789500Y153970D03*
X860700Y572750D03*
X860700Y540050D03*
X2241800Y953750D03*
X2241800Y921050D03*
X3051400Y763250D03*
X3051400Y730550D03*
X4432600Y374630D03*
X4432600Y341930D03*
X3241900Y186670D03*
X3241900Y153970D03*
X813100Y763250D03*
X813100Y730550D03*
D10*
X2970300Y678500D03*
D11*
X2919500Y678500D03*
X3021100Y678500D03*
D12*
X2932200Y703900D03*
X2995700Y729300D03*
X2945300Y718500D03*
X2995300Y723500D03*
D13*
X2991300Y640750D03*
X2949300Y640750D03*
X2949300Y626250D03*
X2991300Y626250D03*
D11*
X2970300Y635320D03*
D10*
X4351500Y297500D03*
D11*
X4300700Y297500D03*
X4402300Y297500D03*
D12*
X4313400Y322900D03*
X4376900Y348300D03*
X4326500Y337500D03*
X4376500Y342500D03*
D13*
X4372500Y259750D03*
X4330500Y259750D03*
X4330500Y245250D03*
X4372500Y245250D03*
D11*
X4351500Y254320D03*
D15*
X3241900Y763250D03*
X3241900Y730550D03*
X2711980Y575290D03*
X2711980Y542590D03*
X4259880Y370870D03*
X4259880Y338170D03*
X2432300Y953750D03*
X2432300Y921050D03*
X4254800Y762030D03*
X4254800Y729330D03*
X146300Y1144250D03*
X146300Y1111550D03*
X1051200Y572750D03*
X1051200Y540050D03*
X336800Y1144250D03*
X336800Y1111550D03*
X2051300Y1144250D03*
X2051300Y1111550D03*
X2241800Y1144250D03*
X2241800Y1111550D03*
X2432300Y1144250D03*
X2432300Y1111550D03*
X527300Y1144250D03*
X527300Y1111550D03*
X717800Y1144250D03*
X717800Y1111550D03*
X908300Y1144250D03*
X908300Y1111550D03*
X1098800Y1144250D03*
X1098800Y1111550D03*
X1289300Y1144250D03*
X1289300Y1111550D03*
X1479800Y1144250D03*
X1479800Y1111550D03*
X1670300Y1144250D03*
X1670300Y1111550D03*
X1860800Y1144250D03*
X1860800Y1111550D03*
X1241700Y572750D03*
X1241700Y540050D03*
X146300Y953750D03*
X146300Y921050D03*
X1432200Y572750D03*
X1432200Y540050D03*
X3241900Y953750D03*
X3241900Y921050D03*
X1765600Y763250D03*
X1765600Y730550D03*
X3051400Y953750D03*
X3051400Y921050D03*
X1622700Y572750D03*
X1622700Y540050D03*
X1813200Y572750D03*
X1813200Y540050D03*
X3765800Y186670D03*
X3765800Y153970D03*
X3670600Y374630D03*
X3670600Y341930D03*
X3861100Y374630D03*
X3861100Y341930D03*
X4041440Y374630D03*
X4041440Y341930D03*
X3670600Y572750D03*
X3670600Y540050D03*
X4432600Y763250D03*
X4432600Y730550D03*
X3861100Y572750D03*
X3861100Y540050D03*
X4051600Y572750D03*
X4051600Y540050D03*
X4432600Y572750D03*
X4432600Y540050D03*
X3670600Y763250D03*
X3670600Y730550D03*
X3861100Y763250D03*
X3861100Y730550D03*
X4051600Y763250D03*
X4051600Y730550D03*
X4051600Y953750D03*
X4051600Y921050D03*
X4242100Y953750D03*
X4242100Y921050D03*
X4051600Y186670D03*
X4051600Y153970D03*
X3861100Y953750D03*
X3861100Y921050D03*
X2003700Y572750D03*
X2003700Y540050D03*
X2337100Y763250D03*
X2337100Y730550D03*
X3051400Y186670D03*
X3051400Y153970D03*
X1717900Y374630D03*
X1717900Y341930D03*
X2551400Y186670D03*
X2551400Y153970D03*
X1527400Y374630D03*
X1527400Y341930D03*
X4051600Y1144250D03*
X4051600Y1111550D03*
X3670600Y953750D03*
X3670600Y921050D03*
X1956100Y763250D03*
X1956100Y730550D03*
D10*
X3160800Y107000D03*
D11*
X3110000Y107000D03*
X3211600Y107000D03*
D12*
X3122700Y132400D03*
X3186200Y157800D03*
X3135800Y147000D03*
X3185800Y152000D03*
D13*
X3181800Y69250D03*
X3139800Y69250D03*
X3139800Y54750D03*
X3181800Y54750D03*
D11*
X3160800Y63820D03*
D15*
X2146600Y763250D03*
X2146600Y730550D03*
X3432400Y1144250D03*
X3432400Y1111550D03*
X3861100Y1144250D03*
X3861100Y1111550D03*
X2098900Y374630D03*
X2098900Y341930D03*
X3432400Y763250D03*
X3432400Y730550D03*
X3432400Y953750D03*
X3432400Y921050D03*
X3051400Y1144250D03*
X3051400Y1111550D03*
X432100Y763250D03*
X432100Y730550D03*
X2384700Y572750D03*
X2384700Y540050D03*
X1003600Y763250D03*
X1003600Y730550D03*
X2527600Y740390D03*
X2527600Y707690D03*
X3432400Y186670D03*
X3432400Y153970D03*
X670200Y572750D03*
X670200Y540050D03*
X3241900Y1144250D03*
X3241900Y1111550D03*
X2194200Y572750D03*
X2194200Y540050D03*
X265400Y374630D03*
X265400Y341930D03*
X2722800Y377170D03*
X2722800Y344470D03*
X2289400Y374630D03*
X2289400Y341930D03*
X1360700Y186670D03*
X1360700Y153970D03*
X1194100Y763250D03*
X1194100Y730550D03*
X193900Y763250D03*
X193900Y730550D03*
X1575100Y763250D03*
X1575100Y730550D03*
X4432600Y953750D03*
X4432600Y921050D03*
X3241900Y374630D03*
X3241900Y341930D03*
X1146400Y374630D03*
X1146400Y341930D03*
X2622800Y1144250D03*
X2622800Y1111550D03*
X2813300Y1144250D03*
X2813300Y1111550D03*
X622600Y763250D03*
X622600Y730550D03*
X408200Y186670D03*
X408200Y153970D03*
X2313200Y186670D03*
X2313200Y153970D03*
X765400Y374630D03*
X765400Y341930D03*
X1384600Y763250D03*
X1384600Y730550D03*
X574900Y374630D03*
X574900Y341930D03*
D10*
X732000Y678500D03*
D11*
X681200Y678500D03*
X782800Y678500D03*
D12*
X693900Y703900D03*
X757400Y729300D03*
X707000Y718500D03*
X757000Y723500D03*
D13*
X753000Y640750D03*
X711000Y640750D03*
X711000Y626250D03*
X753000Y626250D03*
D11*
X732000Y635320D03*
D10*
X3160800Y678500D03*
D11*
X3110000Y678500D03*
X3211600Y678500D03*
D12*
X3122700Y703900D03*
X3186200Y729300D03*
X3135800Y718500D03*
X3185800Y723500D03*
D13*
X3181800Y640750D03*
X3139800Y640750D03*
X3139800Y626250D03*
X3181800Y626250D03*
D11*
X3160800Y635320D03*
D10*
X2351200Y869000D03*
D11*
X2300400Y869000D03*
X2402000Y869000D03*
D12*
X2313100Y894400D03*
X2376600Y919800D03*
X2326200Y909000D03*
X2376200Y914000D03*
D13*
X2372200Y831250D03*
X2330200Y831250D03*
X2330200Y816750D03*
X2372200Y816750D03*
D11*
X2351200Y825820D03*
D10*
X65200Y1059500D03*
D11*
X14400Y1059500D03*
X116000Y1059500D03*
D12*
X27100Y1084900D03*
X90600Y1110300D03*
X40200Y1099500D03*
X90200Y1104500D03*
D13*
X86200Y1021750D03*
X44200Y1021750D03*
X44200Y1007250D03*
X86200Y1007250D03*
D11*
X65200Y1016320D03*
D10*
X970100Y488000D03*
D11*
X919300Y488000D03*
X1020900Y488000D03*
D12*
X932000Y513400D03*
X995500Y538800D03*
X945100Y528000D03*
X995100Y533000D03*
D13*
X991100Y450250D03*
X949100Y450250D03*
X949100Y435750D03*
X991100Y435750D03*
D11*
X970100Y444820D03*
D10*
X255700Y1059500D03*
D11*
X204900Y1059500D03*
X306500Y1059500D03*
D12*
X217600Y1084900D03*
X281100Y1110300D03*
X230700Y1099500D03*
X280700Y1104500D03*
D13*
X276700Y1021750D03*
X234700Y1021750D03*
X234700Y1007250D03*
X276700Y1007250D03*
D11*
X255700Y1016320D03*
D10*
X1970200Y1059500D03*
D11*
X1919400Y1059500D03*
X2021000Y1059500D03*
D12*
X1932100Y1084900D03*
X1995600Y1110300D03*
X1945200Y1099500D03*
X1995200Y1104500D03*
D13*
X1991200Y1021750D03*
X1949200Y1021750D03*
X1949200Y1007250D03*
X1991200Y1007250D03*
D11*
X1970200Y1016320D03*
D10*
X2160700Y1059500D03*
D11*
X2109900Y1059500D03*
X2211500Y1059500D03*
D12*
X2122600Y1084900D03*
X2186100Y1110300D03*
X2135700Y1099500D03*
X2185700Y1104500D03*
D13*
X2181700Y1021750D03*
X2139700Y1021750D03*
X2139700Y1007250D03*
X2181700Y1007250D03*
D11*
X2160700Y1016320D03*
D10*
X2351200Y1059500D03*
D11*
X2300400Y1059500D03*
X2402000Y1059500D03*
D12*
X2313100Y1084900D03*
X2376600Y1110300D03*
X2326200Y1099500D03*
X2376200Y1104500D03*
D13*
X2372200Y1021750D03*
X2330200Y1021750D03*
X2330200Y1007250D03*
X2372200Y1007250D03*
D11*
X2351200Y1016320D03*
D10*
X446200Y1059500D03*
D11*
X395400Y1059500D03*
X497000Y1059500D03*
D12*
X408100Y1084900D03*
X471600Y1110300D03*
X421200Y1099500D03*
X471200Y1104500D03*
D13*
X467200Y1021750D03*
X425200Y1021750D03*
X425200Y1007250D03*
X467200Y1007250D03*
D11*
X446200Y1016320D03*
D10*
X636700Y1059500D03*
D11*
X585900Y1059500D03*
X687500Y1059500D03*
D12*
X598600Y1084900D03*
X662100Y1110300D03*
X611700Y1099500D03*
X661700Y1104500D03*
D13*
X657700Y1021750D03*
X615700Y1021750D03*
X615700Y1007250D03*
X657700Y1007250D03*
D11*
X636700Y1016320D03*
D10*
X827200Y1059500D03*
D11*
X776400Y1059500D03*
X878000Y1059500D03*
D12*
X789100Y1084900D03*
X852600Y1110300D03*
X802200Y1099500D03*
X852200Y1104500D03*
D13*
X848200Y1021750D03*
X806200Y1021750D03*
X806200Y1007250D03*
X848200Y1007250D03*
D11*
X827200Y1016320D03*
D10*
X1017700Y1059500D03*
D11*
X966900Y1059500D03*
X1068500Y1059500D03*
D12*
X979600Y1084900D03*
X1043100Y1110300D03*
X992700Y1099500D03*
X1042700Y1104500D03*
D13*
X1038700Y1021750D03*
X996700Y1021750D03*
X996700Y1007250D03*
X1038700Y1007250D03*
D11*
X1017700Y1016320D03*
D10*
X1208200Y1059500D03*
D11*
X1157400Y1059500D03*
X1259000Y1059500D03*
D12*
X1170100Y1084900D03*
X1233600Y1110300D03*
X1183200Y1099500D03*
X1233200Y1104500D03*
D13*
X1229200Y1021750D03*
X1187200Y1021750D03*
X1187200Y1007250D03*
X1229200Y1007250D03*
D11*
X1208200Y1016320D03*
D10*
X1398700Y1059500D03*
D11*
X1347900Y1059500D03*
X1449500Y1059500D03*
D12*
X1360600Y1084900D03*
X1424100Y1110300D03*
X1373700Y1099500D03*
X1423700Y1104500D03*
D13*
X1419700Y1021750D03*
X1377700Y1021750D03*
X1377700Y1007250D03*
X1419700Y1007250D03*
D11*
X1398700Y1016320D03*
D10*
X1589200Y1059500D03*
D11*
X1538400Y1059500D03*
X1640000Y1059500D03*
D12*
X1551100Y1084900D03*
X1614600Y1110300D03*
X1564200Y1099500D03*
X1614200Y1104500D03*
D13*
X1610200Y1021750D03*
X1568200Y1021750D03*
X1568200Y1007250D03*
X1610200Y1007250D03*
D11*
X1589200Y1016320D03*
D10*
X1779700Y1059500D03*
D11*
X1728900Y1059500D03*
X1830500Y1059500D03*
D12*
X1741600Y1084900D03*
X1805100Y1110300D03*
X1754700Y1099500D03*
X1804700Y1104500D03*
D13*
X1800700Y1021750D03*
X1758700Y1021750D03*
X1758700Y1007250D03*
X1800700Y1007250D03*
D11*
X1779700Y1016320D03*
D10*
X1160600Y488000D03*
D11*
X1109800Y488000D03*
X1211400Y488000D03*
D12*
X1122500Y513400D03*
X1186000Y538800D03*
X1135600Y528000D03*
X1185600Y533000D03*
D13*
X1181600Y450250D03*
X1139600Y450250D03*
X1139600Y435750D03*
X1181600Y435750D03*
D11*
X1160600Y444820D03*
D10*
X65200Y869000D03*
D11*
X14400Y869000D03*
X116000Y869000D03*
D12*
X27100Y894400D03*
X90600Y919800D03*
X40200Y909000D03*
X90200Y914000D03*
D13*
X86200Y831250D03*
X44200Y831250D03*
X44200Y816750D03*
X86200Y816750D03*
D11*
X65200Y825820D03*
D10*
X1351100Y488000D03*
D11*
X1300300Y488000D03*
X1401900Y488000D03*
D12*
X1313000Y513400D03*
X1376500Y538800D03*
X1326100Y528000D03*
X1376100Y533000D03*
D13*
X1372100Y450250D03*
X1330100Y450250D03*
X1330100Y435750D03*
X1372100Y435750D03*
D11*
X1351100Y444820D03*
D10*
X3160800Y869000D03*
D11*
X3110000Y869000D03*
X3211600Y869000D03*
D12*
X3122700Y894400D03*
X3186200Y919800D03*
X3135800Y909000D03*
X3185800Y914000D03*
D13*
X3181800Y831250D03*
X3139800Y831250D03*
X3139800Y816750D03*
X3181800Y816750D03*
D11*
X3160800Y825820D03*
D10*
X1684500Y678500D03*
D11*
X1633700Y678500D03*
X1735300Y678500D03*
D12*
X1646400Y703900D03*
X1709900Y729300D03*
X1659500Y718500D03*
X1709500Y723500D03*
D13*
X1705500Y640750D03*
X1663500Y640750D03*
X1663500Y626250D03*
X1705500Y626250D03*
D11*
X1684500Y635320D03*
D10*
X2970300Y869000D03*
D11*
X2919500Y869000D03*
X3021100Y869000D03*
D12*
X2932200Y894400D03*
X2995700Y919800D03*
X2945300Y909000D03*
X2995300Y914000D03*
D13*
X2991300Y831250D03*
X2949300Y831250D03*
X2949300Y816750D03*
X2991300Y816750D03*
D11*
X2970300Y825820D03*
D10*
X1541600Y488000D03*
D11*
X1490800Y488000D03*
X1592400Y488000D03*
D12*
X1503500Y513400D03*
X1567000Y538800D03*
X1516600Y528000D03*
X1566600Y533000D03*
D13*
X1562600Y450250D03*
X1520600Y450250D03*
X1520600Y435750D03*
X1562600Y435750D03*
D11*
X1541600Y444820D03*
D10*
X1732100Y488000D03*
D11*
X1681300Y488000D03*
X1782900Y488000D03*
D12*
X1694000Y513400D03*
X1757500Y538800D03*
X1707100Y528000D03*
X1757100Y533000D03*
D13*
X1753100Y450250D03*
X1711100Y450250D03*
X1711100Y435750D03*
X1753100Y435750D03*
D11*
X1732100Y444820D03*
D10*
X3684700Y107000D03*
D11*
X3633900Y107000D03*
X3735500Y107000D03*
D14*
X3565700Y177000D03*
X3803700Y177000D03*
D10*
X3565700Y24600D03*
X3803700Y24600D03*
D12*
X3646600Y132400D03*
X3710100Y157800D03*
X3659700Y147000D03*
X3709700Y152000D03*
D13*
X3705700Y69250D03*
X3663700Y69250D03*
X3663700Y54750D03*
X3705700Y54750D03*
D11*
X3684700Y62550D03*
D10*
X3589500Y297500D03*
D11*
X3538700Y297500D03*
X3640300Y297500D03*
D12*
X3551400Y322900D03*
X3614900Y348300D03*
X3564500Y337500D03*
X3614500Y342500D03*
D13*
X3610500Y259750D03*
X3568500Y259750D03*
X3568500Y245250D03*
X3610500Y245250D03*
D11*
X3589500Y254320D03*
D10*
X3780000Y297500D03*
D11*
X3729200Y297500D03*
X3830800Y297500D03*
D12*
X3741900Y322900D03*
X3805400Y348300D03*
X3755000Y337500D03*
X3805000Y342500D03*
D13*
X3801000Y259750D03*
X3759000Y259750D03*
X3759000Y245250D03*
X3801000Y245250D03*
D11*
X3780000Y254320D03*
D10*
X3970500Y297500D03*
D11*
X3919700Y297500D03*
X4021300Y297500D03*
D12*
X3932400Y322900D03*
X3995900Y348300D03*
X3945500Y337500D03*
X3995500Y342500D03*
D13*
X3991500Y259750D03*
X3949500Y259750D03*
X3949500Y245250D03*
X3991500Y245250D03*
D11*
X3970500Y254320D03*
D10*
X3589500Y488000D03*
D11*
X3538700Y488000D03*
X3640300Y488000D03*
D12*
X3551400Y513400D03*
X3614900Y538800D03*
X3564500Y528000D03*
X3614500Y533000D03*
D13*
X3610500Y450250D03*
X3568500Y450250D03*
X3568500Y435750D03*
X3610500Y435750D03*
D11*
X3589500Y444820D03*
D10*
X4351500Y678500D03*
D11*
X4300700Y678500D03*
X4402300Y678500D03*
D12*
X4313400Y703900D03*
X4376900Y729300D03*
X4326500Y718500D03*
X4376500Y723500D03*
D13*
X4372500Y640750D03*
X4330500Y640750D03*
X4330500Y626250D03*
X4372500Y626250D03*
D11*
X4351500Y635320D03*
D10*
X3780000Y488000D03*
D11*
X3729200Y488000D03*
X3830800Y488000D03*
D12*
X3741900Y513400D03*
X3805400Y538800D03*
X3755000Y528000D03*
X3805000Y533000D03*
D13*
X3801000Y450250D03*
X3759000Y450250D03*
X3759000Y435750D03*
X3801000Y435750D03*
D11*
X3780000Y444820D03*
D10*
X3970500Y488000D03*
D11*
X3919700Y488000D03*
X4021300Y488000D03*
D12*
X3932400Y513400D03*
X3995900Y538800D03*
X3945500Y528000D03*
X3995500Y533000D03*
D13*
X3991500Y450250D03*
X3949500Y450250D03*
X3949500Y435750D03*
X3991500Y435750D03*
D11*
X3970500Y444820D03*
D10*
X4351500Y488000D03*
D11*
X4300700Y488000D03*
X4402300Y488000D03*
D12*
X4313400Y513400D03*
X4376900Y538800D03*
X4326500Y528000D03*
X4376500Y533000D03*
D13*
X4372500Y450250D03*
X4330500Y450250D03*
X4330500Y435750D03*
X4372500Y435750D03*
D11*
X4351500Y444820D03*
D10*
X3589500Y678500D03*
D11*
X3538700Y678500D03*
X3640300Y678500D03*
D12*
X3551400Y703900D03*
X3614900Y729300D03*
X3564500Y718500D03*
X3614500Y723500D03*
D13*
X3610500Y640750D03*
X3568500Y640750D03*
X3568500Y626250D03*
X3610500Y626250D03*
D11*
X3589500Y635320D03*
D10*
X3780000Y678500D03*
D11*
X3729200Y678500D03*
X3830800Y678500D03*
D12*
X3741900Y703900D03*
X3805400Y729300D03*
X3755000Y718500D03*
X3805000Y723500D03*
D13*
X3801000Y640750D03*
X3759000Y640750D03*
X3759000Y626250D03*
X3801000Y626250D03*
D11*
X3780000Y635320D03*
D10*
X3970500Y678500D03*
D11*
X3919700Y678500D03*
X4021300Y678500D03*
D12*
X3932400Y703900D03*
X3995900Y729300D03*
X3945500Y718500D03*
X3995500Y723500D03*
D13*
X3991500Y640750D03*
X3949500Y640750D03*
X3949500Y626250D03*
X3991500Y626250D03*
D11*
X3970500Y635320D03*
D10*
X3970500Y869000D03*
D11*
X3919700Y869000D03*
X4021300Y869000D03*
D12*
X3932400Y894400D03*
X3995900Y919800D03*
X3945500Y909000D03*
X3995500Y914000D03*
D13*
X3991500Y831250D03*
X3949500Y831250D03*
X3949500Y816750D03*
X3991500Y816750D03*
D11*
X3970500Y825820D03*
D10*
X4161000Y869000D03*
D11*
X4110200Y869000D03*
X4211800Y869000D03*
D12*
X4122900Y894400D03*
X4186400Y919800D03*
X4136000Y909000D03*
X4186000Y914000D03*
D13*
X4182000Y831250D03*
X4140000Y831250D03*
X4140000Y816750D03*
X4182000Y816750D03*
D11*
X4161000Y825820D03*
D10*
X3970500Y107000D03*
D11*
X3919700Y107000D03*
X4021300Y107000D03*
D12*
X3932400Y132400D03*
X3995900Y157800D03*
X3945500Y147000D03*
X3995500Y152000D03*
D13*
X3991500Y69250D03*
X3949500Y69250D03*
X3949500Y54750D03*
X3991500Y54750D03*
D11*
X3970500Y63820D03*
D10*
X3780000Y869000D03*
D11*
X3729200Y869000D03*
X3830800Y869000D03*
D12*
X3741900Y894400D03*
X3805400Y919800D03*
X3755000Y909000D03*
X3805000Y914000D03*
D13*
X3801000Y831250D03*
X3759000Y831250D03*
X3759000Y816750D03*
X3801000Y816750D03*
D11*
X3780000Y825820D03*
D10*
X1922600Y488000D03*
D11*
X1871800Y488000D03*
X1973400Y488000D03*
D12*
X1884500Y513400D03*
X1948000Y538800D03*
X1897600Y528000D03*
X1947600Y533000D03*
D13*
X1943600Y450250D03*
X1901600Y450250D03*
X1901600Y435750D03*
X1943600Y435750D03*
D11*
X1922600Y444820D03*
D10*
X2256000Y678500D03*
D11*
X2205200Y678500D03*
X2306800Y678500D03*
D12*
X2217900Y703900D03*
X2281400Y729300D03*
X2231000Y718500D03*
X2281000Y723500D03*
D13*
X2277000Y640750D03*
X2235000Y640750D03*
X2235000Y626250D03*
X2277000Y626250D03*
D11*
X2256000Y635320D03*
D10*
X2970300Y107000D03*
D11*
X2919500Y107000D03*
X3021100Y107000D03*
D12*
X2932200Y132400D03*
X2995700Y157800D03*
X2945300Y147000D03*
X2995300Y152000D03*
D13*
X2991300Y69250D03*
X2949300Y69250D03*
X2949300Y54750D03*
X2991300Y54750D03*
D11*
X2970300Y63820D03*
D10*
X1636800Y297500D03*
D11*
X1586000Y297500D03*
X1687600Y297500D03*
D12*
X1598700Y322900D03*
X1662200Y348300D03*
X1611800Y337500D03*
X1661800Y342500D03*
D13*
X1657800Y259750D03*
X1615800Y259750D03*
X1615800Y245250D03*
X1657800Y245250D03*
D11*
X1636800Y254320D03*
D10*
X2470300Y107000D03*
D11*
X2419500Y107000D03*
X2521100Y107000D03*
D12*
X2432200Y132400D03*
X2495700Y157800D03*
X2445300Y147000D03*
X2495300Y152000D03*
D13*
X2491300Y69250D03*
X2449300Y69250D03*
X2449300Y54750D03*
X2491300Y54750D03*
D11*
X2470300Y63820D03*
D10*
X1446300Y297500D03*
D11*
X1395500Y297500D03*
X1497100Y297500D03*
D12*
X1408200Y322900D03*
X1471700Y348300D03*
X1421300Y337500D03*
X1471300Y342500D03*
D13*
X1467300Y259750D03*
X1425300Y259750D03*
X1425300Y245250D03*
X1467300Y245250D03*
D11*
X1446300Y254320D03*
D10*
X3970500Y1059500D03*
D11*
X3919700Y1059500D03*
X4021300Y1059500D03*
D12*
X3932400Y1084900D03*
X3995900Y1110300D03*
X3945500Y1099500D03*
X3995500Y1104500D03*
D13*
X3991500Y1021750D03*
X3949500Y1021750D03*
X3949500Y1007250D03*
X3991500Y1007250D03*
D11*
X3970500Y1016320D03*
D10*
X3589500Y869000D03*
D11*
X3538700Y869000D03*
X3640300Y869000D03*
D12*
X3551400Y894400D03*
X3614900Y919800D03*
X3564500Y909000D03*
X3614500Y914000D03*
D13*
X3610500Y831250D03*
X3568500Y831250D03*
X3568500Y816750D03*
X3610500Y816750D03*
D11*
X3589500Y825820D03*
D10*
X1875000Y678500D03*
D11*
X1824200Y678500D03*
X1925800Y678500D03*
D12*
X1836900Y703900D03*
X1900400Y729300D03*
X1850000Y718500D03*
X1900000Y723500D03*
D13*
X1896000Y640750D03*
X1854000Y640750D03*
X1854000Y626250D03*
X1896000Y626250D03*
D11*
X1875000Y635320D03*
D10*
X2065500Y678500D03*
D11*
X2014700Y678500D03*
X2116300Y678500D03*
D12*
X2027400Y703900D03*
X2090900Y729300D03*
X2040500Y718500D03*
X2090500Y723500D03*
D13*
X2086500Y640750D03*
X2044500Y640750D03*
X2044500Y626250D03*
X2086500Y626250D03*
D11*
X2065500Y635320D03*
D10*
X3351300Y1059500D03*
D11*
X3300500Y1059500D03*
X3402100Y1059500D03*
D12*
X3313200Y1084900D03*
X3376700Y1110300D03*
X3326300Y1099500D03*
X3376300Y1104500D03*
D13*
X3372300Y1021750D03*
X3330300Y1021750D03*
X3330300Y1007250D03*
X3372300Y1007250D03*
D11*
X3351300Y1016320D03*
D10*
X3780000Y1059500D03*
D11*
X3729200Y1059500D03*
X3830800Y1059500D03*
D12*
X3741900Y1084900D03*
X3805400Y1110300D03*
X3755000Y1099500D03*
X3805000Y1104500D03*
D13*
X3801000Y1021750D03*
X3759000Y1021750D03*
X3759000Y1007250D03*
X3801000Y1007250D03*
D11*
X3780000Y1016320D03*
D10*
X2017800Y297500D03*
D11*
X1967000Y297500D03*
X2068600Y297500D03*
D12*
X1979700Y322900D03*
X2043200Y348300D03*
X1992800Y337500D03*
X2042800Y342500D03*
D13*
X2038800Y259750D03*
X1996800Y259750D03*
X1996800Y245250D03*
X2038800Y245250D03*
D11*
X2017800Y254320D03*
D10*
X3351300Y678500D03*
D11*
X3300500Y678500D03*
X3402100Y678500D03*
D12*
X3313200Y703900D03*
X3376700Y729300D03*
X3326300Y718500D03*
X3376300Y723500D03*
D13*
X3372300Y640750D03*
X3330300Y640750D03*
X3330300Y626250D03*
X3372300Y626250D03*
D11*
X3351300Y635320D03*
D10*
X3351300Y869000D03*
D11*
X3300500Y869000D03*
X3402100Y869000D03*
D12*
X3313200Y894400D03*
X3376700Y919800D03*
X3326300Y909000D03*
X3376300Y914000D03*
D13*
X3372300Y831250D03*
X3330300Y831250D03*
X3330300Y816750D03*
X3372300Y816750D03*
D11*
X3351300Y825820D03*
D10*
X2970300Y1059500D03*
D11*
X2919500Y1059500D03*
X3021100Y1059500D03*
D12*
X2932200Y1084900D03*
X2995700Y1110300D03*
X2945300Y1099500D03*
X2995300Y1104500D03*
D13*
X2991300Y1021750D03*
X2949300Y1021750D03*
X2949300Y1007250D03*
X2991300Y1007250D03*
D11*
X2970300Y1016320D03*
D10*
X351000Y678500D03*
D11*
X300200Y678500D03*
X401800Y678500D03*
D12*
X312900Y703900D03*
X376400Y729300D03*
X326000Y718500D03*
X376000Y723500D03*
D13*
X372000Y640750D03*
X330000Y640750D03*
X330000Y626250D03*
X372000Y626250D03*
D11*
X351000Y635320D03*
D10*
X2303600Y488000D03*
D11*
X2252800Y488000D03*
X2354400Y488000D03*
D12*
X2265500Y513400D03*
X2329000Y538800D03*
X2278600Y528000D03*
X2328600Y533000D03*
D13*
X2324600Y450250D03*
X2282600Y450250D03*
X2282600Y435750D03*
X2324600Y435750D03*
D11*
X2303600Y444820D03*
D10*
X922500Y678500D03*
D11*
X871700Y678500D03*
X973300Y678500D03*
D12*
X884400Y703900D03*
X947900Y729300D03*
X897500Y718500D03*
X947500Y723500D03*
D13*
X943500Y640750D03*
X901500Y640750D03*
X901500Y626250D03*
X943500Y626250D03*
D11*
X922500Y635320D03*
D10*
X2446500Y678500D03*
D11*
X2395700Y678500D03*
X2497300Y678500D03*
D12*
X2408400Y703900D03*
X2471900Y729300D03*
X2421500Y718500D03*
X2471500Y723500D03*
D13*
X2467500Y640750D03*
X2425500Y640750D03*
X2425500Y626250D03*
X2467500Y626250D03*
D11*
X2446500Y635320D03*
D10*
X3351300Y107000D03*
D11*
X3300500Y107000D03*
X3402100Y107000D03*
D12*
X3313200Y132400D03*
X3376700Y157800D03*
X3326300Y147000D03*
X3376300Y152000D03*
D13*
X3372300Y69250D03*
X3330300Y69250D03*
X3330300Y54750D03*
X3372300Y54750D03*
D11*
X3351300Y63820D03*
D10*
X589100Y488000D03*
D11*
X538300Y488000D03*
X639900Y488000D03*
D12*
X551000Y513400D03*
X614500Y538800D03*
X564100Y528000D03*
X614100Y533000D03*
D13*
X610100Y450250D03*
X568100Y450250D03*
X568100Y435750D03*
X610100Y435750D03*
D11*
X589100Y444820D03*
D10*
X3160800Y1059500D03*
D11*
X3110000Y1059500D03*
X3211600Y1059500D03*
D12*
X3122700Y1084900D03*
X3186200Y1110300D03*
X3135800Y1099500D03*
X3185800Y1104500D03*
D13*
X3181800Y1021750D03*
X3139800Y1021750D03*
X3139800Y1007250D03*
X3181800Y1007250D03*
D11*
X3160800Y1016320D03*
D10*
X2113100Y488000D03*
D11*
X2062300Y488000D03*
X2163900Y488000D03*
D12*
X2075000Y513400D03*
X2138500Y538800D03*
X2088100Y528000D03*
X2138100Y533000D03*
D13*
X2134100Y450250D03*
X2092100Y450250D03*
X2092100Y435750D03*
X2134100Y435750D03*
D11*
X2113100Y444820D03*
D10*
X184300Y297500D03*
D11*
X133500Y297500D03*
X235100Y297500D03*
D14*
X65300Y367500D03*
X303300Y367500D03*
D10*
X65300Y215100D03*
X303300Y215100D03*
D12*
X146200Y322900D03*
X209700Y348300D03*
X159300Y337500D03*
X209300Y342500D03*
D13*
X205300Y259750D03*
X163300Y259750D03*
X163300Y245250D03*
X205300Y245250D03*
D11*
X184300Y253050D03*
D10*
X2565500Y297500D03*
D11*
X2514700Y297500D03*
X2616300Y297500D03*
D14*
X2446500Y367500D03*
X2684500Y367500D03*
D10*
X2446500Y215100D03*
X2684500Y215100D03*
D12*
X2527400Y322900D03*
X2590900Y348300D03*
X2540500Y337500D03*
X2590500Y342500D03*
D13*
X2586500Y259750D03*
X2544500Y259750D03*
X2544500Y245250D03*
X2586500Y245250D03*
D11*
X2565500Y253050D03*
D10*
X2208300Y297500D03*
D11*
X2157500Y297500D03*
X2259100Y297500D03*
D12*
X2170200Y322900D03*
X2233700Y348300D03*
X2183300Y337500D03*
X2233300Y342500D03*
D13*
X2229300Y259750D03*
X2187300Y259750D03*
X2187300Y245250D03*
X2229300Y245250D03*
D11*
X2208300Y254320D03*
D10*
X1279600Y107000D03*
D11*
X1228800Y107000D03*
X1330400Y107000D03*
D14*
X779600Y177000D03*
X1779600Y177000D03*
D10*
X779600Y24600D03*
X1779600Y24600D03*
D12*
X1241500Y132400D03*
X1305000Y157800D03*
X1254600Y147000D03*
X1304600Y152000D03*
D13*
X1300600Y69250D03*
X1258600Y69250D03*
X1258600Y54750D03*
X1300600Y54750D03*
D11*
X1279600Y62550D03*
D10*
X1113000Y678500D03*
D11*
X1062200Y678500D03*
X1163800Y678500D03*
D12*
X1074900Y703900D03*
X1138400Y729300D03*
X1088000Y718500D03*
X1138000Y723500D03*
D13*
X1134000Y640750D03*
X1092000Y640750D03*
X1092000Y626250D03*
X1134000Y626250D03*
D11*
X1113000Y635320D03*
D10*
X112800Y678500D03*
D11*
X62000Y678500D03*
X163600Y678500D03*
D12*
X74700Y703900D03*
X138200Y729300D03*
X87800Y718500D03*
X137800Y723500D03*
D13*
X133800Y640750D03*
X91800Y640750D03*
X91800Y626250D03*
X133800Y626250D03*
D11*
X112800Y635320D03*
D10*
X1494000Y678500D03*
D11*
X1443200Y678500D03*
X1544800Y678500D03*
D12*
X1455900Y703900D03*
X1519400Y729300D03*
X1469000Y718500D03*
X1519000Y723500D03*
D13*
X1515000Y640750D03*
X1473000Y640750D03*
X1473000Y626250D03*
X1515000Y626250D03*
D11*
X1494000Y635320D03*
D10*
X4351500Y869000D03*
D11*
X4300700Y869000D03*
X4402300Y869000D03*
D12*
X4313400Y894400D03*
X4376900Y919800D03*
X4326500Y909000D03*
X4376500Y914000D03*
D13*
X4372500Y831250D03*
X4330500Y831250D03*
X4330500Y816750D03*
X4372500Y816750D03*
D11*
X4351500Y825820D03*
D10*
X3160800Y297500D03*
D11*
X3110000Y297500D03*
X3211600Y297500D03*
D12*
X3122700Y322900D03*
X3186200Y348300D03*
X3135800Y337500D03*
X3185800Y342500D03*
D13*
X3181800Y259750D03*
X3139800Y259750D03*
X3139800Y245250D03*
X3181800Y245250D03*
D11*
X3160800Y254320D03*
D10*
X1065300Y297500D03*
D11*
X1014500Y297500D03*
X1116100Y297500D03*
D12*
X1027200Y322900D03*
X1090700Y348300D03*
X1040300Y337500D03*
X1090300Y342500D03*
D13*
X1086300Y259750D03*
X1044300Y259750D03*
X1044300Y245250D03*
X1086300Y245250D03*
D11*
X1065300Y254320D03*
D10*
X2541700Y1059500D03*
D11*
X2490900Y1059500D03*
X2592500Y1059500D03*
D12*
X2503600Y1084900D03*
X2567100Y1110300D03*
X2516700Y1099500D03*
X2566700Y1104500D03*
D13*
X2562700Y1021750D03*
X2520700Y1021750D03*
X2520700Y1007250D03*
X2562700Y1007250D03*
D11*
X2541700Y1016320D03*
D10*
X2732200Y1059500D03*
D11*
X2681400Y1059500D03*
X2783000Y1059500D03*
D12*
X2694100Y1084900D03*
X2757600Y1110300D03*
X2707200Y1099500D03*
X2757200Y1104500D03*
D13*
X2753200Y1021750D03*
X2711200Y1021750D03*
X2711200Y1007250D03*
X2753200Y1007250D03*
D11*
X2732200Y1016320D03*
D10*
X541500Y678500D03*
D11*
X490700Y678500D03*
X592300Y678500D03*
D12*
X503400Y703900D03*
X566900Y729300D03*
X516500Y718500D03*
X566500Y723500D03*
D13*
X562500Y640750D03*
X520500Y640750D03*
X520500Y626250D03*
X562500Y626250D03*
D11*
X541500Y635320D03*
D10*
X327100Y107000D03*
D11*
X276300Y107000D03*
X377900Y107000D03*
D12*
X289000Y132400D03*
X352500Y157800D03*
X302100Y147000D03*
X352100Y152000D03*
D13*
X348100Y69250D03*
X306100Y69250D03*
X306100Y54750D03*
X348100Y54750D03*
D11*
X327100Y63820D03*
D10*
X2232100Y107000D03*
D11*
X2181300Y107000D03*
X2282900Y107000D03*
D12*
X2194000Y132400D03*
X2257500Y157800D03*
X2207100Y147000D03*
X2257100Y152000D03*
D13*
X2253100Y69250D03*
X2211100Y69250D03*
X2211100Y54750D03*
X2253100Y54750D03*
D11*
X2232100Y63820D03*
D10*
X684300Y297500D03*
D11*
X633500Y297500D03*
X735100Y297500D03*
D12*
X646200Y322900D03*
X709700Y348300D03*
X659300Y337500D03*
X709300Y342500D03*
D13*
X705300Y259750D03*
X663300Y259750D03*
X663300Y245250D03*
X705300Y245250D03*
D11*
X684300Y254320D03*
D10*
X1303500Y678500D03*
D11*
X1252700Y678500D03*
X1354300Y678500D03*
D12*
X1265400Y703900D03*
X1328900Y729300D03*
X1278500Y718500D03*
X1328500Y723500D03*
D13*
X1324500Y640750D03*
X1282500Y640750D03*
X1282500Y626250D03*
X1324500Y626250D03*
D11*
X1303500Y635320D03*
D10*
X493800Y297500D03*
D11*
X443000Y297500D03*
X544600Y297500D03*
D12*
X455700Y322900D03*
X519200Y348300D03*
X468800Y337500D03*
X518800Y342500D03*
D13*
X514800Y259750D03*
X472800Y259750D03*
X472800Y245250D03*
X514800Y245250D03*
D11*
X493800Y254320D03*
D15*
X-44200Y1144250D03*
X-44200Y1111550D03*
X-44200Y953750D03*
X-44200Y921050D03*
X-34200Y763250D03*
X-34200Y730550D03*
X-24200Y572750D03*
X-24200Y540050D03*
X-34200Y374630D03*
X-34200Y341930D03*
X-44200Y186670D03*
X-44200Y153970D03*
X4432600Y1146350D03*
X4432600Y1113650D03*
D10*
X4348000Y1059500D03*
D11*
X4297200Y1059500D03*
X4398800Y1059500D03*
D12*
X4309900Y1084900D03*
X4373400Y1110300D03*
X4323000Y1099500D03*
X4373000Y1104500D03*
D13*
X4369000Y1021750D03*
X4327000Y1021750D03*
X4327000Y1007250D03*
X4369000Y1007250D03*
D11*
X4348000Y1016320D03*
D10*
X4170000Y1059500D03*
D11*
X4119200Y1059500D03*
X4220800Y1059500D03*
D12*
X4131900Y1084900D03*
X4195400Y1110300D03*
X4145000Y1099500D03*
X4195000Y1104500D03*
D13*
X4191000Y1021750D03*
X4149000Y1021750D03*
X4149000Y1007250D03*
X4191000Y1007250D03*
D11*
X4170000Y1016320D03*
D15*
X4250000Y1146350D03*
X4250000Y1113650D03*
D10*
X-125300Y1059500D03*
D11*
X-176100Y1059500D03*
X-74500Y1059500D03*
D12*
X-163400Y1084900D03*
X-99900Y1110300D03*
X-150300Y1099500D03*
X-100300Y1104500D03*
D13*
X-104300Y1021750D03*
X-146300Y1021750D03*
X-146300Y1007250D03*
X-104300Y1007250D03*
D11*
X-125300Y1016320D03*
D10*
X-125300Y869000D03*
D11*
X-176100Y869000D03*
X-74500Y869000D03*
D12*
X-163400Y894400D03*
X-99900Y919800D03*
X-150300Y909000D03*
X-100300Y914000D03*
D13*
X-104300Y831250D03*
X-146300Y831250D03*
X-146300Y816750D03*
X-104300Y816750D03*
D11*
X-125300Y825820D03*
D10*
X-125300Y678500D03*
D11*
X-176100Y678500D03*
X-74500Y678500D03*
D12*
X-163400Y703900D03*
X-99900Y729300D03*
X-150300Y718500D03*
X-100300Y723500D03*
D13*
X-104300Y640750D03*
X-146300Y640750D03*
X-146300Y626250D03*
X-104300Y626250D03*
D11*
X-125300Y635320D03*
D10*
X-125300Y488000D03*
D11*
X-176100Y488000D03*
X-74500Y488000D03*
D12*
X-163400Y513400D03*
X-99900Y538800D03*
X-150300Y528000D03*
X-100300Y533000D03*
D13*
X-104300Y450250D03*
X-146300Y450250D03*
X-146300Y435750D03*
X-104300Y435750D03*
D11*
X-125300Y444820D03*
D10*
X-125300Y297500D03*
D11*
X-176100Y297500D03*
X-74500Y297500D03*
D12*
X-163400Y322900D03*
X-99900Y348300D03*
X-150300Y337500D03*
X-100300Y342500D03*
D13*
X-104300Y259750D03*
X-146300Y259750D03*
X-146300Y245250D03*
X-104300Y245250D03*
D11*
X-125300Y254320D03*
D10*
X-125300Y107000D03*
D11*
X-176100Y107000D03*
X-74500Y107000D03*
D12*
X-163400Y132400D03*
X-99900Y157800D03*
X-150300Y147000D03*
X-100300Y152000D03*
D13*
X-104300Y69250D03*
X-146300Y69250D03*
X-146300Y54750D03*
X-104300Y54750D03*
D11*
X-125300Y63820D03*
D16*
X4076700Y1216000D03*
X4076700Y1197000D03*
X4137660Y1197000D03*
X4137660Y1216000D03*
X4168140Y1424534D03*
X4168140Y1405534D03*
X4172966Y1217016D03*
X4172966Y1198016D03*
D17*
X4204360Y1320546D03*
X4223360Y1320546D03*
D16*
X3988054Y1411884D03*
X3988054Y1430884D03*
D18*
X4355846Y1290066D03*
X4355846Y1244854D03*
D19*
X4330954Y1302512D03*
X4330954Y1232408D03*
D20*
X4193286Y1217016D03*
X4193286Y1198016D03*
D21*
X4388968Y1361440D03*
X4369968Y1361440D03*
X4388968Y1341120D03*
X4369968Y1341120D03*
D22*
X4095430Y1215250D03*
X4118930Y1215250D03*
X4118930Y1197750D03*
X4095430Y1197750D03*
D20*
X4386326Y1382166D03*
X4386326Y1401166D03*
D21*
X4419244Y1437640D03*
X4438244Y1437640D03*
X3957980Y1346200D03*
X3976980Y1346200D03*
D17*
X4223360Y1341120D03*
X4204360Y1341120D03*
D10*
X2562960Y488000D03*
D11*
X2512160Y488000D03*
X2613760Y488000D03*
D14*
X2443960Y558000D03*
X2681960Y558000D03*
D10*
X2443960Y405600D03*
X2681960Y405600D03*
D12*
X2524860Y513400D03*
X2588360Y538800D03*
X2537960Y528000D03*
X2587960Y533000D03*
D13*
X2583960Y450250D03*
X2541960Y450250D03*
X2541960Y435750D03*
X2583960Y435750D03*
D11*
X2562960Y443550D03*
D23*
X4145915Y1403477D03*
X4138041Y1403477D03*
X4130167Y1403477D03*
X4122293Y1403477D03*
X4114419Y1403477D03*
X4106545Y1403477D03*
X4098671Y1403477D03*
X4090797Y1403477D03*
X4082923Y1403477D03*
X4075049Y1403477D03*
X4067175Y1403477D03*
X4059301Y1403477D03*
X4051427Y1403477D03*
X4043553Y1403477D03*
X4035679Y1403477D03*
X4027805Y1403477D03*
D24*
X4164457Y1329817D03*
X4164457Y1337691D03*
X4164457Y1345565D03*
X4164457Y1353439D03*
X4164457Y1361313D03*
X4164457Y1369187D03*
X4164457Y1377061D03*
X4164457Y1384935D03*
X4164457Y1321943D03*
X4164457Y1314069D03*
X4164457Y1306195D03*
X4164457Y1298321D03*
X4164457Y1290447D03*
X4164457Y1282573D03*
X4164457Y1274699D03*
X4164457Y1266825D03*
D23*
X4145915Y1248283D03*
X4138041Y1248283D03*
X4130167Y1248283D03*
X4122293Y1248283D03*
X4114419Y1248283D03*
X4106545Y1248283D03*
X4098671Y1248283D03*
X4090797Y1248283D03*
X4082923Y1248283D03*
X4075049Y1248283D03*
X4067175Y1248283D03*
X4059301Y1248283D03*
X4051427Y1248283D03*
X4043553Y1248283D03*
X4035679Y1248283D03*
X4027805Y1248283D03*
D24*
X4009263Y1266825D03*
X4009263Y1274699D03*
X4009263Y1282573D03*
X4009263Y1290447D03*
X4009263Y1298321D03*
X4009263Y1306195D03*
X4009263Y1314069D03*
X4009263Y1321943D03*
X4009263Y1329817D03*
X4009263Y1337691D03*
X4009263Y1345565D03*
X4009263Y1353439D03*
X4009263Y1361313D03*
X4009263Y1369187D03*
X4009263Y1377061D03*
X4009263Y1384935D03*
D25*
X4416480Y1401640D03*
X4416480Y1396640D03*
X4416480Y1391640D03*
X4416480Y1386640D03*
X4416480Y1381640D03*
X4416480Y1376640D03*
X4416480Y1371640D03*
X4416480Y1366640D03*
X4416480Y1361640D03*
X4416480Y1356640D03*
X4416480Y1351640D03*
X4416480Y1346640D03*
X4428480Y1344140D03*
X4428480Y1349140D03*
X4428480Y1354140D03*
X4428480Y1359140D03*
X4428480Y1364140D03*
X4428480Y1369140D03*
X4428480Y1379140D03*
X4428480Y1384140D03*
X4428480Y1389140D03*
X4428480Y1394140D03*
X4428480Y1399140D03*
X4428480Y1404140D03*
D26*
X4457280Y1433840D02*
X4468280Y1433840D01*
X4468280Y1314440D02*
X4457280Y1314440D01*
D27*
X4425620Y1419640D02*
X4415540Y1419640D01*
D28*
X4424830Y1420340D02*
X4424830Y1411760D01*
D27*
X4425620Y1328640D02*
X4415540Y1328640D01*
D28*
X4424830Y1327940D02*
X4424830Y1336520D01*
D17*
X4204360Y1402080D03*
X4223360Y1402080D03*
D10*
X4160520Y584200D03*
D11*
X4109720Y584200D03*
X4211320Y584200D03*
D14*
X4230520Y465200D03*
X4230520Y703200D03*
D10*
X4078120Y465200D03*
X4078120Y703200D03*
D12*
X4122420Y609600D03*
X4185920Y635000D03*
X4135520Y624200D03*
X4185520Y629200D03*
D13*
X4181520Y546450D03*
X4139520Y546450D03*
X4139520Y531950D03*
X4181520Y531950D03*
D11*
X4160520Y538480D03*
D10*
X4160520Y203200D03*
D11*
X4109720Y203200D03*
X4211320Y203200D03*
D14*
X4230520Y84200D03*
X4230520Y322200D03*
D10*
X4078120Y84200D03*
X4078120Y322200D03*
D12*
X4122420Y228600D03*
X4185920Y254000D03*
X4135520Y243200D03*
X4185520Y248200D03*
D13*
X4181520Y165450D03*
X4139520Y165450D03*
X4139520Y150950D03*
X4181520Y150950D03*
D11*
X4160520Y157480D03*
D29*
X4030980Y1346200D03*
X3942080Y1346200D03*
X4107180Y1236980D03*
X4109720Y1183640D03*
X-71120Y1137920D03*
X30480Y1018540D03*
X220980Y1018540D03*
X-162560Y1018540D03*
X27940Y825500D03*
X-172720Y825500D03*
X-167640Y632460D03*
X-172720Y444500D03*
X-170180Y254000D03*
X4310380Y68580D03*
X4305300Y640080D03*
X4310380Y447040D03*
X4297680Y254000D03*
X-157163Y68263D03*
X57150Y69850D03*
X295275Y69850D03*
X152400Y260350D03*
X104775Y450850D03*
X533400Y69850D03*
X461963Y260350D03*
X80963Y641350D03*
X366713Y450850D03*
X652463Y260350D03*
X319088Y641350D03*
X557213Y450850D03*
X223838Y831850D03*
X842963Y260350D03*
X509588Y641350D03*
X738188Y450850D03*
X414338Y831850D03*
X1033463Y260350D03*
X700088Y641350D03*
X1311275Y53975D03*
X938213Y450850D03*
X604838Y831850D03*
X1223963Y249238D03*
X890588Y641350D03*
X1128713Y450850D03*
X795338Y831850D03*
X1414463Y260350D03*
X1081088Y641350D03*
X1319213Y450850D03*
X985838Y831850D03*
X1604963Y260350D03*
X1271588Y641350D03*
X1509713Y450850D03*
X1176338Y831850D03*
X1462088Y641350D03*
X1700213Y450850D03*
X1366838Y831850D03*
X1652588Y641350D03*
X1557338Y831850D03*
X1747838Y830263D03*
X414338Y1022350D03*
X604838Y1022350D03*
X795338Y1022350D03*
X985838Y1022350D03*
X1176338Y1022350D03*
X1366838Y1022350D03*
X1524000Y1020763D03*
X1962150Y68263D03*
X1795463Y260350D03*
X1985963Y260350D03*
X1890713Y450850D03*
X1843088Y641350D03*
X2033588Y639763D03*
X2200275Y69850D03*
X2176463Y249238D03*
X2081213Y450850D03*
X2271713Y439738D03*
X2438400Y69850D03*
X2676525Y69850D03*
X1938338Y831850D03*
X2506663Y233363D03*
X2224088Y641350D03*
X2530475Y450850D03*
X2938463Y69850D03*
X2414588Y641350D03*
X2319338Y831850D03*
X3128963Y69850D03*
X2652713Y641350D03*
X3319463Y69850D03*
X3130550Y252413D03*
X2605088Y831850D03*
X2938463Y641350D03*
X3652838Y58738D03*
X3128963Y641350D03*
X2938463Y831850D03*
X3557588Y249238D03*
X3128963Y831850D03*
X3319463Y641350D03*
X3938588Y69850D03*
X3748088Y260350D03*
X3557588Y450850D03*
X3319463Y831850D03*
X3748088Y450850D03*
X3938588Y260350D03*
X3557588Y641350D03*
X3938588Y450850D03*
X3748088Y641350D03*
X3557588Y831850D03*
X3748088Y831850D03*
X3938588Y641350D03*
X3938588Y831850D03*
X4129088Y831850D03*
X4300538Y811213D03*
X1747838Y1022350D03*
X2128838Y836613D03*
X1938338Y1022350D03*
X2128838Y1022350D03*
X2319338Y1022350D03*
X2509838Y1022350D03*
X2700338Y1022350D03*
X2938463Y1022350D03*
X3128963Y1022350D03*
X3319463Y1022350D03*
X3557588Y1022350D03*
X3748088Y1022350D03*
X3938588Y1022350D03*
X4119563Y1020763D03*
X4300538Y1003300D03*
X4196080Y1231900D03*
X4292600Y1231900D03*
X4403090Y1347724D03*
X4439666Y1376172D03*
X4051963Y1420114D03*
X4123182Y1420114D03*
X4442460Y1389380D03*
X4119880Y1234440D03*
X4157980Y1216660D03*
X4175760Y1369060D03*
X4179316Y1329944D03*
X-182880Y977900D03*
X-180340Y800100D03*
X-180340Y612140D03*
X-180340Y424180D03*
X-180340Y236220D03*
X-182880Y66040D03*
X4013022Y1419936D03*
X4013200Y1410716D03*
X15240Y976674D03*
X10160Y784860D03*
X114300Y219075D03*
X100013Y396875D03*
X49213Y590550D03*
X3987800Y1392851D03*
X210820Y976674D03*
X306388Y595313D03*
X366713Y211138D03*
X382588Y396875D03*
X327025Y785813D03*
X3987800Y1383763D03*
X541338Y211138D03*
X420688Y976313D03*
X496888Y595313D03*
X517525Y782638D03*
X660400Y404813D03*
X3987800Y1374675D03*
X611188Y976313D03*
X682625Y590550D03*
X849313Y404813D03*
X708025Y782638D03*
X3987491Y1365587D03*
X801688Y976313D03*
X882650Y590550D03*
X1041400Y404813D03*
X898525Y782638D03*
X3970274Y1360678D03*
X1254125Y204788D03*
X992188Y976313D03*
X1068388Y595313D03*
X1089025Y782638D03*
X1231900Y404813D03*
X3970020Y1330960D03*
X1136650Y976313D03*
X1263650Y590550D03*
X1422400Y404813D03*
X1279525Y782638D03*
X3987800Y1327464D03*
X1373188Y976313D03*
X1454150Y590550D03*
X1612900Y404813D03*
X1470025Y782638D03*
X3987800Y1309288D03*
X1968500Y211138D03*
X1754188Y976313D03*
X1830388Y595313D03*
X1851025Y782638D03*
X1993900Y404813D03*
X3987800Y1300200D03*
X2206625Y204788D03*
X1944688Y976313D03*
X2020888Y595313D03*
X2041525Y782638D03*
X2184400Y404813D03*
X3987800Y1291112D03*
X2135188Y976313D03*
X2216150Y590550D03*
X2354263Y211138D03*
X2354263Y342900D03*
X2292350Y404813D03*
X2232025Y782638D03*
X3987800Y1282024D03*
X2325688Y976313D03*
X2422525Y785813D03*
X3987800Y1263848D03*
X2613025Y976313D03*
X2492375Y385763D03*
X2592388Y211138D03*
X2600325Y590550D03*
X2460625Y785813D03*
X3987800Y1254760D03*
X2944813Y214313D03*
X2944813Y381000D03*
X2944813Y401638D03*
X2944813Y573088D03*
X2944813Y595313D03*
X2898775Y782638D03*
X2944813Y976313D03*
X4015740Y1226820D03*
X3135313Y214313D03*
X3135313Y785813D03*
X3135313Y401638D03*
X3135313Y573088D03*
X3135313Y595313D03*
X3135313Y976313D03*
X4025900Y1226820D03*
X3325813Y214313D03*
X3325813Y381000D03*
X3325813Y401638D03*
X3325813Y573088D03*
X3325813Y595313D03*
X3279775Y782638D03*
X3325813Y976313D03*
X4037132Y1226820D03*
X3563938Y401638D03*
X3660775Y214313D03*
X3517900Y590550D03*
X3517900Y782638D03*
X3517900Y976313D03*
X4046220Y1226820D03*
X3754438Y401638D03*
X3708400Y590550D03*
X3708400Y782638D03*
X3708400Y976313D03*
X4056380Y1226820D03*
X3944938Y214313D03*
X3898900Y396875D03*
X3898900Y590550D03*
X3898900Y782638D03*
X3898900Y976313D03*
X4100513Y1154113D03*
X4135438Y312738D03*
X4135438Y381000D03*
X4135438Y401638D03*
X4062413Y1154113D03*
X4135438Y976313D03*
X4140200Y665163D03*
X4140200Y766763D03*
X4140200Y785813D03*
X3987800Y1272936D03*
X-180975Y817563D03*
X-212725Y849313D03*
X4024313Y639763D03*
X4068763Y595313D03*
X4221163Y517525D03*
X4314825Y611188D03*
X-176213Y625475D03*
X-212725Y661988D03*
X-180975Y436563D03*
X-212725Y468313D03*
X2532063Y246063D03*
X2516188Y261938D03*
X3189288Y233363D03*
X3319463Y233363D03*
X-177800Y246063D03*
X-212725Y280988D03*
X4025900Y258763D03*
X4062413Y222250D03*
X4140200Y136525D03*
X4314825Y230188D03*
X1314450Y42863D03*
X1954213Y61913D03*
X4338320Y1371600D03*
X4114800Y1427480D03*
X4439920Y1366520D03*
X4485640Y1432560D03*
X4271963Y631825D03*
X4273550Y246063D03*
X3987800Y1318376D03*
X1563688Y976313D03*
X1644650Y590550D03*
X1803400Y404813D03*
X1660525Y782638D03*
M02*
